<svg enable-background="new 0 0 600 600" viewBox="0 0 600 600" xmlns="http://www.w3.org/2000/svg"><path d="m1238 325.1v-1.2c-13.4 3.8-26.9 7.6-30.3 8.6-21.9 6.6-38.3 12.6-50.9 19.1-11.5 6-25.7 10.1-46.3 14.1-3 .6-6.1 1.2-10 1.9l-9.8 1.8c-20.2 3.8-30.5 6.3-39.2 10.1-8.7 3.9-19.9 6.6-34.6 8.8-4 .6-8.2 1.2-13.3 1.8l-12.7 1.5c-10.9 1.4-17.1 2.4-21.7 3.8-6.4 1.9-13.7 3.3-26.3 5-3.3.5-6.6.9-9.9 1.4-4.2.6-7.4 1-10.7 1.5-7.8 1.1-15.6 2.5-23.1 4-5.6 1.1-11.3 3.9-18.1 8.4-4.5 3-8.7 6.1-12.7 9.2-11.9 9.1-15.6 11.7-21.1 14.5-3 1.5-6.2 2.9-9.5 4.2-4.8 1.9-21.4 7.5-24.4 8.7-3 1.1-5.6 2.5-7.6 4.1-2.6 2.3-3.9 4.6-5.7 8.9-4.5 10.6-7.3 14.8-16.9 22.1-8.4 6.3-14 9.9-20.3 13-1 .5-2 1-3.1 1.5l-7.7 3.6c-3.4 1.6-6.6 3.1-10 4.9-9.4 4.8-16.4 10.6-20.4 16.9-5.2 8.1-5.6 15.5-3.6 27.2 1 5.8 1.1 6.4 1.1 8.2 0 10.5.2 17.5 1.3 25.8.5 4 1.2 7.8 2 11.2h1.9c-2.3-9.6-3.1-21.8-3.1-37 0-1.9-.1-2.4-1.1-8.3-1.9-11.6-1.5-18.9 3.6-26.8 3.9-6.2 10.7-11.9 19.9-16.5 3.4-1.8 6.6-3.3 10-4.9 1.3-.6 6.5-3 7.7-3.6 1.1-.5 2.1-1 3.1-1.5 6.4-3.2 12.1-6.8 20.6-13.1 9.8-7.4 12.7-11.7 17.2-22.4 1.8-4.2 3.1-6.4 5.5-8.6 1.4-1.2 3.7-2.5 7.1-3.9 2.8-1.1 19.5-6.8 24.3-8.7 3.5-1.4 6.7-2.8 9.7-4.3 5.6-2.9 9.4-5.5 21.4-14.7 4-3.1 8.2-6.2 12.6-9.1 6.6-4.3 12.2-7 17.3-8.1 7.2-1.5 14.6-2.8 22.9-4 5.2-.8 10.4-1.5 15.7-2.2l4.9-.7c12.8-1.8 20.2-3.2 26.8-5.1 4.4-1.3 10.5-2.3 21.2-3.6l12.7-1.5c5.2-.6 9.4-1.2 13.5-1.8 14.9-2.3 26.4-5.1 35.4-9 8.4-3.7 18.6-6.2 38.5-9.9l9.8-1.8c3.9-.7 7-1.3 10-1.9 20.8-4.1 35.2-8.3 47-14.4 12.5-6.5 28.8-12.4 50.5-18.9 2.9-.9 15.8-4.6 28.9-8.3v-64.6c-8.3 8.1-17.6 14.9-26.2 17.9-5.2 1.8-11.1 4-18.7 6.9-4.3 1.7-8.6 3.3-12.9 5l-2.6 1c-3.3 1.3-6.7 2.6-10 3.9-15.6 6-26.6 10-36.3 13.2-6.4 2.1-8 2.8-16.6 7.1-12 6.1-24.2 8.6-60.1 11-23.3 1.5-41.3 4.9-63.4 11.1-3.4.9-15 4.3-14.4 4.1-5.6 1.6-9.7 2.7-13.7 3.7-11.6 2.8-21.6 4.2-32.4 4.2-35.3 0-85.5 11.5-106.5 22.8-24.9 13.4-64.8 27.7-93.4 31.2-15.3 1.9-24.5 7-29 14.7-2.6 4.4-3.3 8.3-3.3 13.8 0 .8 0 1 .5 3.6.9 5.2.7 8.7-1.6 13.3-3.2 6.2-10.1 12.6-21.9 19.4-28.6 16.6-47.2 46.6-47.2 71.7 0 2.4 0 4.3.1 8.8.2 10.8.2 15.8-.5 22-1.2 11.2-4.3 20.7-10.3 29.3h-2.2c6.1-8.6 9.3-18.1 10.4-29.3.6-6.1.7-11.1.5-21.9-.1-4.5-.1-6.4-.1-8.8 0-25.3 18.7-55.5 47.7-72.3 11.6-6.7 18.3-13 21.4-19 2.2-4.4 2.4-7.9 1.5-12.9-.5-2.7-.5-2.9-.5-3.7 0-5.6.7-9.6 3.3-14.1 4.7-8 14.4-13.4 30.5-15.4 28.1-3.4 67.7-17.6 92.3-30.8 21.4-11.5 72.1-23.2 108.1-23.2 10.5 0 20.2-1.3 31.5-4.1 4-1 8-2 13.6-3.6-.6.2 11-3.2 14.4-4.1 22.3-6.2 40.6-9.7 64.2-11.2 35.6-2.3 47.3-4.8 58.9-10.6 8.8-4.4 10.4-5.2 17-7.3 9.7-3.1 20.7-7.1 36.2-13.1 3.3-1.3 6.7-2.6 10-3.9l2.6-1c4.3-1.7 8.6-3.3 12.9-5 7.6-2.9 13.5-5.1 18.7-7 9-3.2 18.9-10.6 27.4-19.4zm0-116.2c-1.3 0-2.6.1-4 .1-12.6.6-28.5 3.4-45 7.4-7.5 1.8-17.5 2.7-29.2 2.7-9.7 0-20.1-.5-30.4-1.3-3.5-.3-6.7-.6-9.6-.9-2.4-.3-4.9-.4-7.3-.6-11.4-.5-22.9-.8-34.4-.9-21.5-.2-35.5.7-37.1 2.7-.8 1 1.2 2.6 6.3 4.9 2.1 1 4.6 2 8.3 3.6 3.3 1.3 6.6 2.7 9.9 4 2.9 1.2 6.4 1.9 11.3 2.5 1.4.2 1.8.2 5.4.5 7.3.7 10.4 1.2 12.7 2.6 2.9 1.8 2.9 4.5-.3 8.9-5 6.8-11.8 10.1-21 10.3-7.5.2-15.7-1.3-30-5.1-9.3-2.5-14.1-7.3-17.2-15.3-.4-.9-.7-1.8-1-2.9l-.9-2.8c-2.2-6.6-3.9-9.2-7.7-10.1-1.7-.4-3.3-.7-4.9-1-4.7-.8-9.5-1-16.7-.9-4.7.1-30.3 1-28.4.9-42.4 1.4-59.4 5.1-76.5 15-3 1.8-5.9 3.6-8.8 5.4l-4.7 3.1-5.2 3.3c-8.5 5.4-14.6 8.5-21.4 11.1-1.3.5-2.7 1-4.4 1.6l-8.5 2.9c-3.6 1.3-7.2 2.6-10.6 4-9.4 3.7-20.1 8.6-33.5 15.4-17 8.6-24.3 13.5-24.1 16 .1 1.6 3.4 2.1 14 2.4 3.3.1 4.4.1 6.1.2 6.1.2 10.5.7 14.1 1.7 15.4 4.1 24 7.3 28.8 11.6 6.8 6.1 1.7 12.9-18.3 20.3-17.1 6.3-22.9 10.4-23.3 15-.1 1.2 0 1.9.5 4.4 1.4 6.5.5 10.6-5.8 17.4-2.3 2.6-5.2 5.2-8.6 7.5-5.8 4-11.3 5.7-21.9 7.7-.9.2-6.9 1.2-8.8 1.6-3.7.7-7 1.4-10.3 2.1-8.6 2-17.3 4.6-27 8.2-17.4 6.5-27.3 14.6-33 25.1-2.3 4.2-3.2 6.8-5.8 15.2-2.6 8.6-4.5 12.6-8.4 16.5-4.3 4.3-24.6 26.6-26.8 28.9-4.2 4.5-8.6 9-13.1 13.4-8.4 8.1-15.7 14.1-22.1 17.8-11.1 6.5-18.5 14.4-28.4 28.4-1.3 1.9-2.6 3.7-3.9 5.6-3.7 5.3-6.1 8.6-8.8 11.8-12.6 15.3-52.5 26.3-95.9 26.3-23.1 0-42.5-2.7-64-8.5-11.6-3.1-9.4-2.4-45.9-14.5-29.6-9.8-36.5-10.7-42.2-6.9-.8.5-3.7 2.7-3.8 2.8-3.1 2.1-6.5 4.1-10.2 5.9-1.5.8-11.4 5.9-14.4 7.5-4.9 2.6-8.9 4.8-12.3 6.9-4 2.4-7.5 4.9-10.5 7.7-2.7 2.6-3.9 5.2-5.5 10.6-.3 1.1-.6 2.1-.9 3.2h-2.1l1-3.3c1.6-5.5 2.9-8.2 5.7-10.9 3-2.8 6.6-5.4 10.7-7.8 3.5-2.1 7.5-4.4 12.4-7 3-1.6 12.9-6.7 14.4-7.5 3.6-1.8 7-3.7 10-5.8 0 0 3-2.3 3.8-2.8 6.7-4.5 14.6-3.4 45.1 6.7 36.5 12.1 34.3 11.4 45.8 14.5 21.3 5.7 40.2 8.4 63 8.4 42.6 0 81.6-10.8 94-25.7 3.1-3.9 6.1-7.8 8.7-11.8 1.3-1.9 2.6-3.7 3.9-5.6 10-14.2 17.5-22.1 28.8-28.7 6.3-3.7 13.5-9.6 21.9-17.6 4.1-3.9 8.3-8.3 13.1-13.4 2.1-2.3 22.4-24.6 26.8-28.9 3.8-3.8 5.7-7.8 8.3-16.2s3.5-11.1 5.8-15.3c5.8-10.7 15.9-18.9 33.7-25.6 8.5-3.3 17.7-6.1 27.4-8.4 3.4-.8 6.7-1.5 10.5-2.2 1.9-.4 8-1.4 8.8-1.6 10.2-1.9 15.4-3.5 20.9-7.3 2.8-1.9 5.5-4.3 8.4-7.4 6.1-6.6 7-10.6 5.6-16.9-.5-1.5-.6-3-.6-4.6.5-4.9 6.6-9.2 24.1-15.7 19.3-7.1 24.1-13.3 17.8-19-4.5-4.1-12.9-7.1-28-11.2-3.2-.9-7.4-1.3-13.2-1.6-1.7-.1-2.8-.1-6.1-.2-11.9-.3-15.7-.9-15.9-3.3-.2-2.8 7.2-7.9 24.7-16.7 13.5-6.8 24.2-11.7 33.7-15.5 3.7-1.5 7.1-2.7 10.7-4l8.5-2.9c1.6-.6 3-1.1 4.3-1.6 6.7-2.6 12.7-5.6 21.1-10.9 1.7-1.1 3.5-2.2 5.2-3.3l4.8-3.1c3.7-2.4 6.3-4 8.9-5.5 17.5-10.2 35-14 76.9-15.3-.9 0 24.8-.9 29.5-1 7.5-.1 12.5.2 17.5 1 1.7.3 3.3.6 5.1 1 4.7 1.1 6.5 3.9 8.8 10.9l.9 2.8c.4 1.1.7 2 1 2.8 3 7.7 7.5 12.3 16.1 14.6 13.9 3.7 21.9 5.1 28.9 4.9 8.3-.2 14.4-3.2 19.2-9.7 3-4 3-6.5.7-7.9-1.9-1.1-4.7-1.6-11.5-2.3-1.8-.2-3.7-.3-5.5-.6-5.2-.6-9.1-1.4-12.2-2.7-3.3-1.4-6.5-2.7-9.9-4-2.9-1.2-5.7-2.4-8.4-3.6-5.6-2.6-8-4.4-6.8-5.9 2.1-2.6 16.1-3.5 39.1-3.4 11.5.1 23 .4 34.5.9 5.7.4 6.6.5 7.6.6 2.9.3 6.1.6 9.5.9 9.9.9 20 1.3 30 1.3 11.5 0 21.1-.9 28.3-2.6 16.7-4.1 32.8-6.9 45.7-7.6 1.4-.1 2.9-.1 4.2-.1zm0-101v1.5c-17.8 16.1-35.6 29.6-48.8 35.9-6.6 3.2-15.7 4.9-27.9 5.6-9.2.5-17.1.4-39.6-.2-20.4-.6-31.6-.4-42.3.8-10.2 1.2-20.5 1.9-31 2.1l-4.6.1c-25.8.8-40 1.8-67.5 5.7-9.3 1.3-19.1 2.5-29.5 3.5-22.2 2-44.7 3.4-67.3 4-15.6.4-27.3.6-41.8.6-11.1 0-24.6 1.6-37.1 5.2-17.1 4.9-31.1 12.9-40.3 24.5-2.6 3.4-5.7 6.7-9.4 9.8-7.4 6.2-14.3 9-27.6 12.2l-8.3 2c-11.4 2.7-21.9 6.1-31.3 10.2-16.9 7.3-28.3 16.6-46.5 35.6l-4.3 4.5c-15.1 15.7-23.7 23.3-35.8 29.9-15.9 8.7-41.8 14.4-83.2 20.1-9 1.2-39.3 5.1-39.7 5.1-14.3 1.9-24.1 3.3-32.2 4.9-21.8 4.2-38.6 10.5-75.1 26.5l-3.5 1.5c-17.7 7.8-27.7 11.9-38.8 15.9-8.2 2.9-16.5 5.7-26.8 8.9-4.3 1.3-21.3 6.6-25.4 7.9-23.8 7.5-38.2 13-50.8 20.1-5 2.8-9.4 5.7-13.3 8.9-8.5 6.9-12.9 13.1-19 25.1l-3.2 6.3c-1.2 2.5-2.4 4.5-3.5 6.6-6.1 10.7-14.2 17.4-30.5 26.9l-8.5 5c-3 1.7-5.8 3.5-8.6 5.3-3 1.9-5.4 4-7.1 6.3-2.4 3.2-3.1 5.9-3.9 11.9-1.2 10-2.9 15-9.6 22.7-3.2 3.7-11.7 14-13.2 15.8-2.2 2.5-4.6 5-7.4 7.4-5.9 5.1-13.8 10.1-27.1 17-12.3 6.4-18.3 10.9-21.9 16-1.1 1.6-2 3.2-2.8 4.8l-.9 1.8h-2.1l1.1-2.1c1.1-2.1 1.9-3.5 2.9-4.9 3.7-5.2 9.9-9.9 22.4-16.4 13.1-6.8 20.9-11.7 26.8-16.8 2.7-2.4 5.1-4.8 7.3-7.3 1.5-1.8 10-12.1 13.2-15.8 6.5-7.5 8.2-12.4 9.4-22.3.7-6.1 1.5-8.9 4-12.2 1.8-2.3 4.3-4.6 7.4-6.5 2.6-1.7 5.4-3.4 8.7-5.3l8.5-5c16.1-9.5 24.1-16 30.1-26.5 1.2-2 2.3-4.1 3.5-6.6l3.2-6.3c6.1-12 10.6-18.4 19.2-25.4 3.8-3.1 8.3-6 13.5-9 12.7-7.1 27.3-12.7 51.2-20.3 4.2-1.3 21.2-6.6 25.4-7.9 10.2-3.2 18.6-6 26.7-8.9 11.1-4 21-8.1 38.7-15.8l3.5-1.5c36.6-16.1 53.6-22.4 75.7-26.7 8.3-1.6 18.2-3.1 32.5-5 .4-.1 30.7-3.9 39.7-5.1 41.1-5.6 66.7-11.3 82.2-19.8 11.9-6.5 20.5-14 35.4-29.6l4.3-4.5c18.3-19.1 29.8-28.5 47-35.9 9.5-4.2 20.2-7.7 31.7-10.4l8.3-2c13-3.1 19.5-5.8 26.7-11.8 3.6-3.1 6.7-6.3 9.2-9.7 9.4-11.8 23.7-20 41.2-25 12.9-3.7 26.7-5.3 38.2-5.3 14.5 0 26.1-.1 41.6-.6 22.5-.6 44.9-1.9 67-4 10.3-1 20.1-2.1 29.3-3.4 27.7-4 42.1-5 68-5.8l4.6-.1c11.9-.4 20.2-.9 30.6-2.1 11-1.2 22.3-1.4 46.6-.7 18.7.5 26.5.6 35.5.1 11.8-.6 20.5-2.3 26.7-5.3 13.4-6.4 31.7-20.3 50.3-36.7zm0 450.2c-2.6-4.6-4.5-10.5-6.9-20.2l-.5-2-.5-2c-3.8-15.7-6.3-22-11.5-24.5-5.1-2.5-6.3-5-5.2-8.6.2-.6.4-1.1.8-2.1 1.4-3.5 1.6-5 .2-6.8-1.9-2.4-6.8-4.4-16.1-6.3-10.5-2.1-13.5-4.8-10.1-8.4 1.4-1.5 3.7-3 7.3-5 2.1-1.2 11.3-6 10.5-5.5 12.7-6.7 18.5-11.3 18.5-16.5-.3-5.1 4.7-10 13.4-12.9v1.3c-7.4 2.8-11.6 7.1-11.3 11.6 0 5.5-6 10.3-19.1 17.2.8-.4-8.3 4.3-10.5 5.5-3.4 1.9-5.7 3.4-6.9 4.8-2.8 3-.5 5.2 9 7.1 9.7 2 15.1 4.2 17.2 6.8 1.6 2 1.4 3.7-.1 7.4-.4 1-.6 1.5-.8 2.1-1 3.3.1 5.6 4.6 7.8 5.7 2.7 8.2 9 12 25.1l.5 2 .5 2c1.7 7 3.2 12.1 4.8 16zm0-62.1c-2.9-3.1-9.1-9.9-10.2-11.2-2.1-2.5-2.6-3.8-1.9-5.2.4-.8 4.2-4.7 4.8-5.3 3.1-3.6 5.5-7.4 7.3-11.2v4c-1.5 2.6-3.3 5.1-5.4 7.6-.6.8-4.3 4.5-4.7 5.2-.6 1.1-.2 2.2 1.8 4.6.8 1 5.2 5.7 8.3 9.1zm0-85.1c-3.4 1.7-7.6 2.9-13.2 4.1-.5.1-28.8 5.5-42.1 8.4-19.3 4.3-34.5 5.9-47.5 5.2-10.5-.5-18.6-2.2-30.5-5.9l-6.6-2.1c-3.6-1.2-7.4-2.3-11.2-3.3-8.4-2.2-6.7-5.8 3-10.5 7.7-3.7 19.8-7.9 38.6-13.8l9.2-2.8c37-11.3 37.6-11.5 46-14.7 23.2-9 40.6-14 54.3-15.1v1c-13.1 1.1-30.2 6-53 14.9-8.5 3.3-9 3.4-46.1 14.8-3.1.9-6.1 1.9-9.2 2.8-18.7 5.8-30.8 10-38.3 13.7-8.9 4.3-10.2 7.1-3.5 8.9 3.5.9 6.8 1.9 11.3 3.3l6.6 2.1c11.6 3.6 19.5 5.2 29.6 5.8 12.6.6 27.5-.9 46.5-5.1 13.3-3 41.6-8.4 42.1-8.4 6.3-1.4 10.5-2.7 14.1-4.7zm0-41.4v1c-13.5.3-25 3.1-40.7 9.1l-9.6 3.7c-2.9 1.1-5.9 2.2-9.1 3.1-1.7.5-11.4 3.3-12.8 3.8-6.8 2-12.7 3.8-18.3 5.6-5.8 1.9-11.4 3.8-16.8 5.9-9.5 3.7-15.3 6.9-16.4 9.4-1.3 2.7 3.1 4.5 14.5 5.5 22.1 1.8 43.2 0 62.8-4.6 13.1-3.1 25-7.2 35.3-12.2 4.2-2.3 7.9-4.8 11.1-7.4v1.9c-2.8 2.2-6 4.3-9.6 6.2-10.4 5.1-22.5 9.3-35.9 12.4-20 4.7-41.5 6.5-64.1 4.7-12.5-1-17.8-3.3-16.2-6.7 1.3-2.7 7.3-6 17.1-9.9 4.8-1.9 10.5-3.9 17-6 5.6-1.8 11.5-3.6 18.4-5.6 1.5-.4 11.1-3.2 12.8-3.8 2.6-.8 5.4-1.8 8.9-3.1 1.7-.6 8-3.1 9.6-3.7 16.1-6.1 27.9-9 42-9.3zm0-154.6v1c-3.6-.2-8.9.2-16.1 1.6-20.7 3.8-28.5 5.1-39.5 6.8-3.7.6-5.4.8-8 1.2-3.1.5-6.5.8-13.9 1.2-1.8.1-3.6.2-5.4.3-16.1.9-23.3 2.5-23.3 6.1 0 4.4 6 13.2 16.4 25.8 2 2.5 3.6 5 4.8 7.6.6 1.2 1.2 2.3 1.7 3.5 3.8 7.6 6.5 10.7 11.5 11.7 4.6.9 9.7.6 15.4-.7 7.2-1.7 14.9-4.9 23.1-9.5 3.1-1.7 6.1-3.5 9.5-5.6l6.5-4.1c5.3-3.2 12.5-12.2 17.3-20.2v3.4c-4.7 7.2-10.9 14.5-15.7 17.4-.9.5-5.5 3.5-6.5 4.1-3.4 2.1-6.4 3.9-9.5 5.6-8.4 4.6-16.3 7.9-23.8 9.7-6.2 1.4-11.9 1.8-17.1.7-5.9-1.1-8.7-4.3-12.7-12.4-.6-1.2-1.2-2.3-1.7-3.5-1.7-3.2-3-5.5-4.7-7.5-10.6-12.8-16.6-21.6-16.6-26.2 0-4.4 7.9-6.1 25.1-7.1 1.8-.1 3.6-.2 5.5-.3 7.2-.4 10.6-.6 13.5-1.1 2.6-.4 4.3-.7 8-1.3 11-1.7 18.8-3 39.4-6.7 7.2-1.2 12.8-1.7 16.8-1.5zm-1238 77.1c20.9-11.3 37.4-23.2 47.6-35.4 6.8-8.1 12.6-16.1 22.3-30.6l3.3-4.8c13.5-19.9 20.9-29.8 30.5-39.6 12.5-12.7 25.9-21.2 41.8-25.5 13.7-3.8 21-7.9 25.2-13.1 1.6-2.1 2.9-4.3 3.8-6.6 2.5-5.2 4.2-7.6 8.1-10.4 5.1-3.6 12.9-6.5 25-9 32.6-6.6 34.5-7 37.2-9 1.3-1 1.7-2.2 1.5-4.5-.1-.7-.5-3.8-.5-4-.2-1.8-.3-3.7-.4-5.5 0-10 .4-11.4 4.9-13.2 1.1-.4 2.3-.8 4.3-1.3.6-.1 4.5-1.1 5.9-1.5 6.6-1.7 12.9-3.7 18.8-5.9 4.3-1.5 5.4-2.1 16.5-7.9 7.8-4.1 12.8-6.4 18.5-8.1 7.5-2.3 14.9-3.1 22.5-2.1 9.1 1.2 22.3 2 38.7 2.5 14.2.4 26.6.5 45.3.5 10 0 18.5.5 31.8 1.6 16 1.3 19.2 1.5 25.5 1.5 8.4 0 15.3-.9 22-3 10.4-3.2 16.7-4.7 23.1-5.2 7.5-.6 9.8-.5 34.1 2.1 35.6 3.7 63.7 1.4 84.7-9.7 10.5-5.5 11.3-8.9 7.2-14.8-1.7-2.4-2.1-3.1-2.4-4.3-.6-2.5 1-4.7 5.6-6.9 5.5-2.6 9.7-9.2 12.8-18.3h4.2c-3.2 9.7-7.8 16.6-14.1 19.7-3.7 1.8-4.9 3.4-4.4 5.3.2 1 .6 1.6 2.2 3.9 4.6 6.5 3.6 10.7-8 16.8-22.2 11.7-51.7 14.1-88.6 10.3-23.6-2.5-25.9-2.6-32.6-2.1-5.7.5-11.6 1.8-21.6 4.9-7.2 2.2-15.7 3.4-24.3 3.3-6.7 0-9.9-.2-26.3-1.6-13-1.1-21.3-1.5-31.1-1.5-18.8 0-31.2-.1-45.5-.5-16.7-.5-30.2-1.3-39.6-2.5-11.6-1.5-21 1.4-36.8 9.7-11.3 5.9-12.5 6.5-17.1 8.2-6.1 2.3-12.6 4.3-19.4 6-1.4.4-5.3 1.3-5.9 1.5-1.7.4-2.8.8-3.6 1.1-3 1.2-3.4 2.4-3.4 11.6 0 1.8.1 3.5.4 5.4 0 .2.4 3.3.5 4 .2 2.8-.3 4.3-2.2 5.7-3.4 2.5-4.7 2.8-39.1 9.7-11.3 2.3-18.5 5-23.1 8.2-3.5 2.5-5.1 4.7-7.5 9.7-1.7 3.5-2.5 4.9-4 6.8-4.5 5.7-12.5 10.2-27 14.2-15.1 4.1-28 12.3-40.2 24.7-9.5 9.6-16.9 19.5-30.3 39.3l-3.3 4.8c-9.8 14.5-15.6 22.5-22.4 30.7-10.6 13.1-28.4 25.7-51.1 37.7zm0 78v-.5h2.1c13 0 15.4 5.2 9.5 13.4-3 4-6.9 7.7-11.6 11.3v-1.9c3.8-3.1 7-6.3 9.6-9.7 5.6-7.6 3.5-12-7.5-12-.7 0-1.4 0-2.1 0v-46.6c9.6-2.7 19-5.5 28.3-8.3 28.2-9.5 61.5-37.6 61.5-53.6 0-18.1 44.5-72.6 66.5-79.4 26.2-8.1 66.5-28 73.9-37.8 4-5.3 11.3-7.3 29.8-9.4 12.7-1.4 17.8-2.4 22-4.8 3.1-1.7 5.6-4.8 8.9-10.3.5-.8 3.9-6.7 5-8.5 7.5-12.1 15.1-18.5 27.8-20.4 5.2-.8 6.3-1 20.1-3.7 15.5-3 24.7-4.4 35.3-4.9 13.9-.7 27.1.8 40.3 4.7 11.2 3.3 25.2 4.7 41.6 4.6 12.4-.1 25.2-1.1 40.9-2.8 3.8-.4 15.2-1.7 17-1.9 5.6-.6 9-.9 11.3-.9 10.3 0 18.4-.1 29.3-.3 16.3-.3 32.1-.9 46.9-1.9 17.5-1.1 32.8-2.7 45.1-4.8 39-6.6 67.3-18.3 69.5-27.6.6-2.6.8-3 5.8-11.1 4.8-8 6.6-12.9 5.6-18.2-.4-2.2-1.4-4.4-3.1-6.4-3.1-3.9-5.4-9.4-7.1-16.2h1.9c1.6 6.5 3.9 11.7 7.2 15.8 1.7 2.1 2.8 4.4 3.2 6.7 1 5.5-.8 10.5-5.7 18.6s-5.1 8.5-5.7 11c-2.2 9.8-31.2 21.7-70.8 28.4-12.5 2.1-27.9 3.7-45.6 4.9-14.9 1-30.8 1.6-47.1 1.9-10.9.2-19.1.3-29.4.3-2.1 0-5.4.3-10.9.9-1.8.2-13.3 1.5-17 1.9-15.8 1.7-28.7 2.7-41.3 2.8-16.8.2-31.2-1.3-42.7-4.7-12.9-3.8-25.6-5.2-39.1-4.5-10.4.5-19.5 1.9-34.7 4.9-13.9 2.7-15 2.9-20.3 3.7-11.8 1.8-19.1 8-26.4 19.7-1.1 1.8-4.5 7.7-5 8.5-3.4 5.7-6 8.8-9.3 10.7-4.6 2.6-10 3.6-24.8 5.3-16.1 1.8-23 3.7-26.6 8.5-7.5 10-48.1 30.1-74.7 38.2-21.3 6.6-65.6 60.8-65.6 78.6 0 16.3-33.6 44.8-62.4 54.4-4.4 1.5-17 5.1-29.5 8.7v-1.2zm0-173.7v-1.1c15.3-3.8 30-10.2 45.1-19 7.8-4.6 29.3-18.8 32.6-20.6 3.7-2 8.4-4 15.3-6.4 2.2-.8 10.2-3.6 11.3-4 19.3-6.9 28.9-12 33-19.4 1.7-3 3.2-6.8 5.1-12.3.5-1.4 4.1-12.5 5.3-15.8 5.9-16.8 11.8-26.8 20.8-32.1 22.4-13.2 41-27.5 41-32.7 0-2.5.7-3.4 12.5-15.7 1.4-1.5 2.6-2.7 3.7-3.9 5.2-5.8 8-10 8.5-13.4h2.1c-.5 3.5-3.4 7.9-8.7 13.8-1.1 1.2-2.2 2.4-3.7 3.9-11.4 12-12.3 13-12.3 15.3 0 5.5-18.8 19.8-41.5 33.3-8.7 5.1-14.5 15.1-20.3 31.6-1.2 3.3-4.8 14.3-5.3 15.8-1.9 5.6-3.4 9.4-5.1 12.4-4.2 7.7-14.1 12.9-33.7 19.9l-11.3 4c-6.8 2.4-11.4 4.3-15 6.3-3.2 1.7-24.6 15.9-32.5 20.5-15.8 9.2-31 15.8-46.9 19.6zm0 361.8v-4.3c1 2.4 2.1 4.3 3.3 6.2 4.1 6 9.5 8.3 16.9 6.6 39.1-8.9 69.6-24.1 69.6-39.5 0-16.2 13.1-32 35.3-46.3 3.9-2.5 7.6-4.4 11.4-6 1.5-.6 3-1.2 4.7-1.8l4.1-1.4c7.6-2.7 11-5.3 14.6-12.6 1.5-3.1 2.8-5 8.7-13.3l1.3-1.9c6.7-9.6 9.4-15 8.6-18.6-1-4.4-7.8-5.2-23.3-1.6-6.1 1.4-12.4 2.7-18.9 3.7-28.7 4.7-55.6 5.8-88 5.4h-4-3c-10.6 0-21.2 1-31.1 3-3.7.7-7.1 1.7-10.2 2.9v-1.3c2.9-1 6.1-1.9 9.4-2.6 11.1-2.2 23-3.2 34.9-3h4c32.2.4 58.9-.8 87.3-5.4 6.4-1 12.6-2.3 18.7-3.6 16.6-3.8 25.1-2.9 26.2 2.4.9 3.9-1.9 9.3-8.7 19.1l-1.3 1.9c-5.8 8.2-7.1 10.1-8.6 13.2-3.8 7.5-7.4 10.3-15.4 13.2l-4.1 1.4c-1.7.6-3.2 1.1-4.6 1.8-4.1 1.7-7.8 3.7-11.1 5.8-21.9 13.9-34.9 29.5-34.9 45.5 0 15.9-31 31.5-70.8 40.5-8.9 2-15.2-.7-19.7-7.2-.4-.7-.9-1.4-1.3-2.2zm0-62.1v-2.5l3 3.3c4.3 4.8 7.1 10.3 8.8 16.8 1.4 5.3 1.7 9.3 2.1 18.5.4 9.3 1 12.8 3.4 15 2.6 2.6 7.6 2.3 17.1-1.5 35.4-14.3 45-22.9 45-38.6 0-7.2 2.3-12.4 7.6-17.7 4.7-4.7 7.5-6.6 27.6-19.6 4.7-3.1 10-6.1 15.7-8.8 2.3-1.1 4.8-2.1 7.3-3.1.8-.3 1.3-.5 1.8-.7 2.3-.9 4.1-2 5.4-3.3 1.9-1.9 3.5-3.9 4.7-5.9l.8-1.2.7-1.1c.6-.9 1-1.5 1.4-2.2.9-1.5 1.5-2.7 1.9-3.7.8-2.2.2-3.5-1.8-4.1-4.8-1.6-19.1-.2-49.1 4.9-19.7 3.4-33.3 4.2-57.5 4.3-15.9.1-21.5.4-27.3 2.1-7.2 2.1-12 6.4-15.6 14.3-1 2.2-2 4.2-3.1 6v-4l1.1-2.2c3.7-8.1 8.8-12.6 16.6-14.9 6.3-1.9 12.1-2.2 28.4-2.3 24-.1 37.3-.8 56.8-4.2 30.8-5.3 45.3-6.7 51-4.8 2.8.9 3.5 2.6 2.6 5.1-.5 1.3-1.1 2.5-1.9 3.8l-1.4 2.2-.7 1.1-.8 1.2c-1.2 2.1-2.8 4.1-4.8 6.1-1.7 1.5-3.3 2.5-5.9 3.6l-1.9.8-2.1.8c-1.9.7-3.4 1.4-5.1 2.2-5.6 2.7-10.8 5.6-15.4 8.7-20 12.9-22.8 14.9-27.5 19.5-5.2 5.1-7.4 10.2-7.4 17.2 0 16-9.9 24.9-45.8 39.4-10.4 4.2-16.9 4.5-20.3 1.2-2.5-2.5-3.1-5.9-3.6-15.5-.4-9.2-.8-13.2-2.1-18.4-1.6-6.3-4.4-11.8-8.6-16.5zm782.6-496h2.1l3.1 5.3c6.8 11.6 10.1 19.3 10.9 27.8 1 11-3.1 21.3-13.7 31.2-16.1 15.1-42.2 26.5-74.7 34.1-25.5 6-53.9 9.2-74.7 9.2-14.1 0-35.6 1.4-76.9 4.6l-4.7.4c-50.6 4-65.3 5-77.3 5-7.2 0-8.4-.1-40.3-2.8-7.3-.6-13-1.1-18.6-1.5-41.7-3-64-1.2-65.9 7.9-.2.8-.4 1.7-.6 2.8l-.6 2.7c-2.3 10.9-4.2 15.7-8.9 20-6 5.3-16 7.9-32.2 7.9-21 0-26.7.6-32 3.2 1.1-.5-10.4 5.9-16.8 8.7-5.7 2.5-29.5 12.6-32.5 13.8-4.6 1.9-9 3.9-13.5 5.9-14.4 6.5-24.4 11.8-30.1 16.1-12.2 9.3-21.6 18-24.1 24.1-3.4 8.3 7.6 9.5 39.2 1.2 30-7.9 60.7-15.2 91.9-21.9 7.2-1.6 29-6.2 32.4-6.9 10.4-2.2 17.1-3.8 22.2-5.1l4-1.1 4.5-1.2c3.6-.9 7-1.8 10.3-2.6 37.3-8.7 71.1-10.5 103.8-1.2 47.2 13.3 79 37 79 56.4 0 19.1-1.5 25.1-10.7 33.2-2.9 2.5-6.3 4.9-10.2 7.1-13.3 7.8-24.4 16.2-26.3 21.3-2.5 6.3 9.7 7 41.6 0 27.5-6.1 46.2-15 58.8-26.3 5.2-4.8 9.5-9.9 12.6-15.1 1.9-3 6.5-11.6 7-12.5.9-1.7 2.1-3.3 3.6-4.8 15.4-14.9 43.5-30.5 74.8-37.2 15.7-3.4 26.8-9.6 40-20.8 1.7-1.5 8.8-7.6 10.6-9.2 7.3-6.1 12.8-9.7 19.3-12 20.9-7.4 59.2-11.1 103.8-11.1 15.5 0 34.1-1.2 56.8-3.6 10.3-1.1 20.6-2.3 30.9-3.5-2.7.3 32.1-4 40.1-4.9 29.2-3.3 84.7-5 132.3-5 35.8 0 57.4-9.2 79.5-38.7 13.7-18.2 13.7-26.4 5.6-34.3l-2.4-2.4c-2-1.9-3.1-4-3.2-6.1 0-4 0-4 5.2-24.6.9-3.7 1.7-6.7 2.3-9.6 1.9-8.4 2.8-15.2 2.8-20.8 0-.9 0-1.9-.1-3h2.1c.1 1.1.1 2.1.1 3 0 5.6-1 12.4-2.9 20.9-.6 2.9-1.4 5.9-2.3 9.7-5.2 20.5-5.2 20.5-5.2 24.4 0 2 .9 3.6 3 5.7.5.5 2.4 2.3 2.4 2.4 8.4 8.2 8.4 16.7-5.5 35.1-22.4 29.8-44.6 39.3-81.4 39.3-47.4 0-102.8 1.7-131.8 5-8 .9-42.7 5.2-40 4.9-10.3 1.3-20.6 2.4-30.9 3.5-22.8 2.4-41.5 3.6-57.2 3.6-44.2 0-82 3.7-102.5 10.9-6.2 2.2-11.6 5.7-18.8 11.7-1.8 1.5-8.9 7.7-10.6 9.2-13.4 11.3-24.8 17.7-41 21.2-30.7 6.6-58.6 22-73.8 36.8-1.4 1.5-2.6 3.1-3.5 4.7-.5.8-5.2 9.5-7 12.5-3.2 5.3-7.5 10.4-12.8 15.3-12.8 11.6-31.9 20.6-59.8 26.8-33.2 7.4-47.5 6.5-44.5-1 2.1-5.3 13.2-13.8 26.8-21.7 3.8-2.2 7.1-4.5 9.9-7 9-7.9 10.4-13.8 10.4-32.7 0-19-31.3-42.4-77.8-55.6-32.1-9.1-65.2-7.4-102 1.2-5 1.2-9.9 2.4-14.7 3.7l-4 1.1c-7.3 1.9-14.8 3.6-22.4 5.2-3.4.7-25.1 5.4-32.4 6.9-31.2 6.7-61.8 14-91.7 21.9-32.9 8.7-46.2 7.2-42.3-2.3 2.6-6.2 12-15 24.4-24.4 5.9-4.5 16-9.8 30.5-16.3 4.1-1.9 8.5-3.8 13.5-5.9 3-1.3 26.9-11.3 32.5-13.8 6.4-2.8 17.7-9.1 16.8-8.7 5.8-2.8 11.9-3.5 33.4-3.5 15.5 0 24.8-2.4 30.4-7.4 4.5-4.1 6.4-8.8 8.7-19.6l.5-2.7.6-2.8c1.2-5.4 9.2-8.5 23.2-9.6 11.2-.9 25.8-.5 45.1.9 5.6.4 11.3.9 18.7 1.5 31.6 2.7 32.9 2.8 39.9 2.8 11.8 0 26.6-1 77-5l4.7-.4c41.5-3.3 63-4.6 77.2-4.6 20.5 0 48.6-3.2 73.8-9.1 32.1-7.5 58-18.7 73.8-33.7 10.4-9.8 14.4-19.8 13.4-30.7-.8-8.4-4-16.1-10.8-27.6zm28.2 0h2.1c1.6 3.9 4 8.7 7.2 14.9 7.5 14.1 6.3 27-1.5 38.8-5 7.6-12.9 14.6-23.4 20.7-12 6.9-25.3 13.2-39.9 18.8-23.4 9-48.2 15.5-74.2 18.4-15.4 1.7-30.9 3-46.6 4.1-6.5.4-13.1.8-21.3 1.3l-19.4 1.1c-23.8 1.4-36 2.6-44.7 4.5-19.1 4.2-58.5 6-101.5 6-2.8 0-5.8-.1-8.9-.4-5.4-.4-10.3-1-18.9-2.3-15.1-2.2-19.9-2.8-26.1-2.6-8 .2-13.7 2.3-17.5 6.9-3.8 4.7-5 7.5-6.9 15-2.3 9-5.9 12.1-20.6 14.3-4.8.7-9.5 1.6-14 2.7-1.3.3-2.4.6-3.6 1l-2.8.9c-3.9 1.1-8 1.5-19.1 1.5-6.6 0-18.2-.6-19.6-.4-2.5.3-1.5-.1-14.7 6.2-3.1 1.5-7.2 3.2-13 5.4-3.1 1.2-14.8 5.4-16.4 6-10.2 3.8-17.2 6.6-22.8 9.4-10.1 5-14.1 9.1-11.5 12.7 2.8 3.7 8.4 4.4 18.4 2.8 5.5-1 10.9-2.1 16-3.5 3.1-.8 16.1-4.1 19.3-5 8.2-2.1 16.7-4 25.4-5.7 7.7-1.5 15.3-3.1 22.8-4.8 4.2-1 22.2-5.2 26.8-6.2 9.1-2.1 16.7-3.8 24-5.3 35.4-7.3 60.5-9.9 77.7-6.6l11.2 2.1c4.7.9 8.6 1.6 12.4 2.4 9.2 1.8 18.2 3.8 27 6 37.8 9.6 62.6 22.1 71.8 39.9 14.4 27.9 7.4 45.5-16.7 62.4-8.2 5.8-7.3 9.2.1 9 8.5-.3 21.1-5 31.2-12.5 6.4-4.8 10.5-10.5 16.6-21.5l3.5-6.4c1.4-2.5 2.6-4.5 3.8-6.5 10.2-16.6 22.7-27.3 44.5-34.8 14.8-5.1 49-15.5 52.6-16.8 13.9-4.8 21.7-9.4 29.6-18 16-17.4 43.5-24.3 91.8-24.3 19.3 0 37-1.1 60.9-3.5 4.3-.4 8.5-.8 12.8-1.3 5-.5 8.4-.8 11.7-1.1 8.3-.7 14.5-1.1 19.8-1.1 9.2 0 19.4-1 64.8-6l6.1-.7c33.7-3.7 52.9-5.4 65.3-5.4 3.2 0 5 0 13.2.1 16.1.1 25.3.1 35.8-.2 33.9-1.1 55.2-5.4 61.5-14.6 2.1-3 4.6-6 7.3-8.8-.3.3 4.7-5 6-6.4 11.1-12.3 11.5-21.9-3-39.4-5.4-6.7-9-13.6-10.9-20.7-3.3-12-2.8-23.1.2-40.3l.4-2.1h2.1l-.4 2.2c-3.1 17.1-3.5 28.2-.2 40.1 1.8 7 5.4 13.9 10.7 20.5 14.6 17.8 14.3 27.7 3 40.2-1.3 1.4-6.3 6.7-6 6.4-2.7 2.8-5.2 5.8-7.3 8.7-6.7 9.7-28.7 14.1-63.3 15.2-10.5.3-19.8.4-35.9.2-8.2-.1-10-.1-13.1-.1-12.2 0-31.3 1.7-64.9 5.3l-6.1.7c-45.7 5-55.8 6-65.2 6-5.2 0-11.2.4-19.5 1.1-3.3.3-6.7.6-11.6 1.1-4.3.4-8.5.9-12.8 1.3-24.1 2.4-41.9 3.5-61.3 3.5-47.5 0-74.3 6.7-89.8 23.7-8 8.8-16.1 13.6-30.3 18.5-3.7 1.3-37.9 11.7-52.6 16.8-21.3 7.3-33.6 17.9-43.7 34.2-1.2 2-2.4 4-3.8 6.5l-3.5 6.4c-6.1 11.2-10.3 16.9-16.9 21.8-10.4 7.8-23.5 12.7-32.8 13-9.7.3-10.9-4.2-1.9-10.5 23.8-16.6 30.6-34 16.3-61.6-9-17.4-33.3-29.7-70.7-39.2-8.3-2.1-16.9-4-26.8-6-3.8-.8-7.6-1.5-12.4-2.4l-11.2-2.1c-16.6-3.1-41.3-.6-76.2 6.6-7.3 1.5-14.9 3.2-24 5.3l-26.8 6.2c-9.7 2.2-16.8 3.8-22.9 4.9-8.6 1.6-17 3.5-25.2 5.6-3.3.8-16.2 4.2-19.3 5-5.2 1.4-10.7 2.6-16.3 3.5-10.9 1.8-17.8.9-21-3.4-3-4 1.4-8.5 12-13.7 5.7-2.8 12.7-5.7 23-9.5 1.6-.6 13.3-4.9 16.4-6 4.5-1.6 8.8-3.4 12.9-5.3 13.9-6.7 12.6-6.2 15.7-6.5 1.8-.2 13.8.4 20.1.4 10.8 0 14.5-.3 18-1.4l2.7-.8c1.3-.4 2.4-.7 3.8-1.1 4.6-1.1 9.4-2 14.4-2.7 13.7-2 17-4.8 19.1-13.5 1.9-7.5 3.1-10.5 7-15.2 4.1-4.9 10.4-7.3 19.3-7.5 6.5-.2 11.3.3 26.8 2.6 6.1 1 12.3 1.7 18.6 2.3 3 .2 5.8.3 8.5.3 42.7 0 81.9-1.8 100.7-6 8.9-2 21.2-3.1 45.2-4.5l19.4-1.1c8.1-.5 14.7-.9 21.2-1.3 16.8-1.1 31.8-2.4 46.4-4.1 25.6-2.9 50.2-9.3 73.4-18.2 14.4-5.6 27.7-11.8 39.6-18.6 10.3-6 18.1-12.9 23-20.3 7.8-11.6 8.9-24.4 1.5-38.2-2.6-5.3-5-10.3-7.2-15.4zm234.7 0h2.6c-1 .7-1.9 1.2-2.4 1.5-8.2 5-14.2 7.9-20.3 9.6-3.1.9-6.6 1.4-10.3 1.4-4.9 0-8.7.7-13.8 2.2l-5.5 1.7c-9 2.8-16.5 4.1-28.1 4.1s-20.6-1.3-33.2-4c-1.6-.3-3.2-.7-4.7-1.1l-4.5-1c-3.3-.7-6-1.2-8.6-1.5-2.2-.3-4.5-.4-6.7-.4-4.7 0-8.9-.7-22.7-3.4l-3.3-.6c-10.3-2-16.7-2.8-21.7-2.7-6 .2-9.1 2-9.1 6.1 0 20.8-10.8 50.4-25.1 57.3-15.6 7.6-54.8 23.7-70.3 29.1-27.2 9.4-64.3 20.2-91 25.1-9 1.6-18.2 3-27.5 4-6.8.8-13.6 1.4-23.2 2.2-1.1.1-18.2 1.5-23.7 2-10 .9-19.2 1.7-28.9 2.8-42.5 4.5-51.7 5-78.6 5-5.1 0-6-.1-29-2-5-.4-8.9-.7-12.7-1-16.7-1.2-28.5-1.4-36.4-.2-9.4 1.4-12.2 4.6-7.6 10.5 4.2 5.3 10 8.6 18.2 10.7 6.7 1.7 13.9 2.6 28.5 3.7 19.4 1.5 22.6 1.8 32 2.9 13.4 1.6 26.3 4.1 38.4 7.4 17.1 4.6 30.1 11.5 41.2 20.9 5.6 4.7 19.5 19.3 21.7 21.2 7 5.9 12.9 6.6 22.5 2 10.2-4.9 21.4-8.4 43.6-14.1 1-.2 4.3-1.1 4.4-1.1 16.5-4.2 24.6-6.5 32.7-9.5 10.5-3.9 17.9-8.1 22.2-13.1 17.6-20.2 42.8-33.3 67-33.3h11.3c21.7.1 35.8 0 51.4-.3 28.2-.6 49.1-2.1 60.6-4.7 12.1-2.7 27.7-5.5 49.9-9 7.1-1.1 13-2.1 26.2-4.1 15.9-2.4 22.9-3.5 31.3-4.9 7.8-1.3 15.6-2.5 23.4-3.7 7.6-1.2 12.3-2 16.6-2.8 4.7-.8 9.3-1.8 13.7-2.9 3.9-1 7.8-2.1 12.1-3.5 7.2-2.3 12.7-3.1 24.8-4.1l2.4-.2c11.8-1 18.6-2.3 26.3-5.6 16.1-7 17.7-23.2 7.9-44.5-3.5-7.7-4.3-19.3-3.2-35.5.4-6.2 1-12.4 1.7-18.6h2.1l-.3 3.1c-.7 6.4-1.1 11-1.4 15.6-1.1 16.1-.2 27.7 3.2 35.2 9.9 21.7 8.3 38.2-8.6 45.5-8.1 3.5-15.2 4.8-27.3 5.9l-2.4.2c-11.9 1-17.2 1.8-24 4-4 1.3-8.1 2.5-12.3 3.6-4.5 1.1-9.2 2.1-14 3-4.3.8-9.1 1.6-16.7 2.8-7.8 1.2-15.6 2.5-23.4 3.7-8.5 1.4-15.4 2.5-31.3 4.9-13.2 2-19.1 3-26.2 4.1-22.1 3.5-37.7 6.3-49.7 9-11.9 2.7-33 4.1-61.4 4.8-15.6.3-29.7.4-51.5.3h-11.3c-23.1 0-47.8 12.8-65.1 32.7-4.5 5.2-12 9.5-22.9 13.5-8.3 3.1-16.5 5.4-33 9.6l-4.4 1.1c-22.1 5.6-33.1 9-43.1 13.9-10.6 5.1-18.1 4.1-25.7-2.2-2.3-1.9-16.2-16.5-21.7-21.2-11-9.2-23.7-16-40.4-20.5-12-3.2-24.7-5.7-38-7.3-9.3-1.2-12.4-1.4-31.8-2.9-14.8-1.1-22.2-2-29.2-3.8-8.7-2.2-14.9-5.8-19.2-11.3-5-6.4-1.6-10.3 9-11.8 8.3-1.2 20.3-1.1 37.3.2 3.8.3 7.7.6 12.7 1 22.7 1.9 23.7 2 28.6 2 26.7 0 35.8-.5 78.2-5 9.7-1 18.9-1.9 28.9-2.8 5.6-.5 22.7-1.9 23.7-2 9.6-.8 16.4-1.5 23.1-2.2 9.4-1.1 18.1-2.3 27.2-4 26.5-4.8 63.5-15.6 90.5-24.9 15.4-5.3 54.5-21.4 70-28.9 13.7-6.7 24.5-36.2 24.5-56.6 0-4.6 3.8-6.9 11-7.2 5.4-.2 12 .7 22.6 2.7l3.2.6c13.5 2.6 17.6 3.3 21.9 3.3 2.4 0 4.7.2 7.2.5 2.7.3 5.5.8 9 1.5 2.3.5 4.6 1 6.9 1.5l2.4.5c12.3 2.7 21.1 3.9 32.3 3.9s18.3-1.2 27-3.9c.4-.1 4.3-1.4 5.5-1.7 5.4-1.6 9.6-2.4 14.9-2.4 3 0 6.1-.4 9.2-1.3 5.7-1.6 11.7-4.4 19.7-9.3zm-375.9 600h-4.2c1-3 1.9-6.2 2.6-9.7.9-4.1 1.6-8.2 2-12.2.2-1.4.3-2.7-.7-7.3-1-1.9-1.9-4.1-2.8-6.5-4.1-11.3-5.5-22.9-2.4-33.8 1.6-6.2 5.2-12.3 10.7-18 6.6-6.7 15.4-12.8 26-18.2 7-3.6 11.4-5.5 24.4-10.8 9.3-3.8 13.1-5.6 15.5-7.5 1.3-1.1 2-2.1 2-3.1 0-1.8 0-1.7-1.5-9.2-.7-3.7-1.2-6.3-1.4-9-1-12.1 3.3-19.6 16.7-21.8 32.8-5.3 53.4-12.1 69-25.5 19.5-16.9 53.1-31.5 74-31.5 25.5 0 41.3-2 60.7-8.8 13.9-4.9 19.6-6.6 25.7-7.5 4.6-.6 7.8-.7 18.8-.7 3.8 0 7.3-.8 11.5-2.6 2.2-1 10.5-5.1 11.6-5.6 12.5-5.9 24.7-8.8 43-8.8 5.1 0 9.4 0 15.1.1 15.5.2 18.3.2 23.3-.7 6.3-1.1 11.4-3 30.4-11.2 16.5-7.1 22.1-8.9 47.2-16.5 3-.9 5.3-1.6 7.6-2.4 6.9-2.2 13.5-4.7 19.5-7.5 8.5-3.9 16.5-7.9 24-11.9v3c-6.8 3.6-13.9 7-21.2 10.4-6.6 3-12.8 5.4-20.1 7.7-2.3.8-4.7 1.5-7.7 2.4-24.9 7.5-30.4 9.3-46.6 16.3-19.5 8.4-24.8 10.3-31.8 11.5-5.7 1-8.6 1.1-24.8.8-5.7-.1-10-.1-15-.1-17.1 0-28.4 2.7-40.1 8.2-.9.4-9.3 4.6-11.7 5.7-4.9 2.1-9.2 3.1-14.2 3.1-10.5 0-13.6.1-17.7.7-5.5.8-10.9 2.4-24.5 7.1-20.2 7.1-36.8 9.2-63.1 9.2-19 0-51.5 14.2-70.4 30.5-16.2 13.9-37.6 21-71.3 26.5-11 1.8-14.9 8.5-13.9 19.8.2 2.6.6 5.2 1.4 8.8 1.5 7.6 1.5 7.6 1.5 9.4 0 1.4-.9 2.7-2.6 4.1-2.7 2.2-6.7 4.1-16.4 8-12.9 5.2-17.2 7.1-24.1 10.6-10.3 5.2-18.8 11.2-25.3 17.7-5.3 5.5-8.7 11.4-10.3 17.4-3.1 10.7-1.8 22.1 2.3 33.2.9 2.4 1.8 4.5 2.7 6.4.3.7.6 1.2 1.2 4.1-.4 5.4-1.3 10.8-2.4 16.1-.3 3.5-1.2 6.7-2.2 9.6zm-27.6 0h-2.2l.2-.3c6.3-7.2 8.9-11.8 8.9-18.7 0-3.6-.1-4.9-1.6-15.7-1.6-12-2.1-19.6-1.1-28.3 1.2-11.5 5-22.1 12-32.2 2.7-3.8 5.8-7.5 9.4-11.1 7.1-7.1 14.1-12.4 21.5-16.6 2.8-1.6 5.8-3.1 9-4.6.9-.4 6.2-2.8 7.6-3.5 11.8-5.6 15.5-11.5 15.5-29.2 0-18.8 6-23.8 32.6-28.2 2.2-.4 4-.7 5.7-1 4.3-.8 8.5-1.7 12.6-2.7 10.2-2.6 19.9-6.2 29.8-11.4 52.6-27.6 76.7-35.2 116.3-35.2 17.1 0 30-2 45.4-6.3 3.7-1 28.5-8.8 37.5-11.3 5.8-1.6 11.7-3 17.8-4.4 16.3-3.6 28.8-4.5 54.9-4.8 15.5-.2 22.1-.5 29.4-1.6 9.4-1.4 16.6-4 22.6-8.4 4.5-3.4 14.1-7.1 30.2-12.1 3.3-1 6.7-2 11.7-3.5 19.7-5.9 23.9-7.1 30.6-9.6 11-4 19.2-8.4 28.2-14.8 4-2.9 7.9-5.8 11.6-8.8v1.9c-4.1 3.2-7 5.4-9.9 7.4-9.1 6.5-17.5 10.9-28.7 15-6.8 2.5-11 3.8-30.7 9.6-3.9 1.2-7.8 2.3-11.6 3.5-15.9 4.9-25.3 8.5-29.6 11.8-6.2 4.6-13.8 7.4-23.7 8.9-7.6 1.1-14.2 1.4-30 1.6-25.8.3-38 1.2-54.1 4.7-6 1.3-11.9 2.8-17.7 4.4-8.9 2.4-33.7 10.2-37.4 11.3-15.7 4.4-28.9 6.4-46.4 6.4-38.9 0-62.5 7.4-114.8 34.8-10.1 5.3-20 9-30.3 11.6-4.1 1-8.3 1.9-12.9 2.8-1.8.3-3.5.6-11.1 1.9-10.5 1.8-15.4 3.2-19.1 6.4-4.6 3.8-6.8 9.9-6.8 20 0 17.9-3.9 24.1-16.1 29.9-1.4.7-6.7 3.1-7.6 3.5-3.1 1.4-6.1 2.9-8.8 4.5-7.3 4.1-14.2 9.3-21.2 16.4-3.6 3.6-6.7 7.2-9.3 11-7 10-10.7 20.5-11.9 31.9-.9 8.6-.5 16.2 1.1 28.2 1.4 10.8 1.6 12.1 1.6 15.7-.1 6.5-2.2 11.1-9.1 19.2zm51.7 0h-2.1c-.1-4.7.1-9.4.6-15 .5-6.4-.8-11.8-5.2-24.4l-.6-1.9c-4.4-12.5-5.7-19.3-4.1-26.5 2.1-9.2 9.8-16.7 24.8-22.7 45.5-18.2 61.5-30.2 61.5-44.6 0-2.6-.6-4.8-2-8.2-2-4.8-2.3-5.7-2-7.6.4-2.6 2.6-4.7 7.3-6.7 5.5-2.4 14.5-4.6 28.3-7 20.1-3.5 32-9.2 50.1-21.6l3.7-2.5c9.2-6.3 14.6-9.6 21.5-12.8 8.9-4.1 18.5-6.8 30-8.2 27.4-3.3 42-5.5 52.3-7.6 3.7-.8 7.4-1.7 10.9-2.7 2.3-.6 3.6-1 8.7-2.6 5.6-1.7 10.8-2.1 23.5-2.3 11.2-.2 16.3-.4 22.6-1.4 7.6-1.2 14.4-3.3 19.7-6.2 10-5.3 20.7-7.6 36.7-8.9 2.2-.2 3.9-.3 8-.6 14.2-1 20.5-1.7 27.8-3.6 9.3-2.5 14-4.4 48.4-19.7l6.5-2.9c19.9-8.7 33.3-13.8 44.2-16.5 8.8-2.1 15.7-4.7 23.2-8.6v1.5c-7.1 3.6-13.8 6-22.2 8-10.7 2.6-24 7.7-43.7 16.3l-6.4 2.9c-34.7 15.4-39.3 17.3-48.8 19.8-7.6 2-14 2.8-28.5 3.7-4.1.3-5.7.4-7.9.6-15.6 1.3-25.8 3.5-35.5 8.6-5.5 3-12.6 5.3-20.6 6.5-6.6 1-11.8 1.3-23.2 1.5-12.3.2-17.3.6-22.5 2.1-2.9.9-5.8 1.8-8.8 2.6-3.6 1-7.3 1.9-11.1 2.8-10.4 2.2-25.1 4.4-52.6 7.7-20.1 2.4-31.5 7.6-50.3 20.6l-3.7 2.5c-18.4 12.5-30.6 18.3-51.1 21.9-13.6 2.4-22.4 4.6-27.6 6.8-4.3 1.9-6.3 3.7-6.6 6-.3 1.8 0 2.6 2 7.3 1.4 3.4 2.1 5.7 2.1 8.4 0 14.8-16.4 27-62.3 45.4-14.5 5.8-22 13-24 22-1.6 7-.3 13.7 4 26.2l.7 1.8c4.4 12.7 5.8 18.1 5.2 24.6-.7 5.8-.9 10.4-.9 15.2zm-495.8 0h-4.2c1.4-3.8 2.4-8.8 3.3-16 .4-3.1.6-4.1.8-5.6 2.7-17.5 8.3-27.1 23.7-33.2 9.6-3.8 14.9-8.9 17.9-16 1.1-2.5 1.4-3.9 2.7-9.2 1.4-5.5 2.4-8.1 4.6-10.4 3-3.1 7.9-4.7 15.2-4.7 29.5 0 79.4 9.1 110.6 20.2 17.9 6.3 43.9 13.3 65.5 17.1 26.9 4.7 45.2 4.4 51.1-1.7 3.5-3.6 4-4.1 5.5-5.8 6-6.7 9.7-12.2 10.8-17.5.5-2.2.5-4.2 0-6.2-.7-2.8-2.9-4.5-8.4-7.4l-2.7-1.4c-1.8-.9-3.4-1.8-5-2.8-1.9-1.3-3.7-2.6-5.2-4.1l-2.3-2.1c-3.3-3.1-5.5-4.6-8.5-5.6-10.9-3.5-30.5-5.5-58.9-6.8-6.2-.3-12.4-.5-18.7-.7l-4.5-.2c-19.7-.7-31.2-1.6-39.3-3.2-29-5.9-71.4-26.4-71.4-36.9 0-5.3 3.6-9.5 11.3-14.1 4.1-2.4 22.9-11.7 26.4-13.5 9.3-5 21-9.5 36.5-14.7 5.8-1.9 30.5-9.6 36.1-11.5 4.7-1.6 9-3.4 13.1-5.4 3.2-1.5 14.4-7.1 14.7-7.3 14.8-7.3 26.2-11.6 40.7-14.4 6.9-1.3 16.8-2.8 36-5.4 8.1-1.1 16.2-2.2 24.3-3.3 8.7-1.2 17.5-2.4 26.1-3.7 42.1-6.2 70.2-12.1 84.2-18.4 18-8.2 24.3-13.8 32.5-26 4.2-6.2 6.4-9 10.5-12.7 19.7-17.7 59.2-39.4 89.8-45.4 29.2-5.8 40-11.7 40-18.1 0-2.9 5.6-8.4 14.1-13.7 9.8-6.2 22-11.4 34.6-14.2 25.8-5.8 69.1-10.1 97.8-10.1 11 0 20.3-1.5 33.9-4.9 19-4.7 20.8-5.1 28-5.1 21.5 0 66.2-2.6 94.4-6l8-1 7.2-.9c5.4-.7 8.9-1.1 12.2-1.4 8-.9 13.9-1.2 19.8-1.2 5.7.1 11.3.5 17.9 1.5 9.4 1.4 28.3-.9 47.2-5.7 7.1-1.8 13.9-3.9 20.3-6.2v2.4c-22.9 8.1-53.2 13.7-68.7 11.4-5.4-.8-11.1-1.3-16.8-1.4-5.4-.1-11.1.3-18.8 1.1-6.4.7-12.9 1.5-19.3 2.3l-8 1c-28.6 3.5-73.6 6-95.4 6-6.2 0-8.1.4-26.1 4.9-14.1 3.5-24 5.1-35.8 5.1-28.2 0-70.9 4.3-96.1 9.9-11.9 2.7-23.6 7.6-33 13.6-7.9 5-13.2 10.2-13.2 12.5 0 7.3-12 13.8-42.5 19.9-29.4 5.9-68.4 27.2-87.7 44.6-3.9 3.5-6.1 6.3-10.2 12.4-8.4 12.5-14.9 18.4-33.6 26.9-14.6 6.6-43.1 12.6-85.8 18.9-8.7 1.3-17.4 2.5-26.2 3.7-8.1 1.1-16.2 2.2-24.3 3.3-19.1 2.6-28.8 4-35.6 5.3-13.9 2.7-24.9 6.8-39.3 13.9-.3.1-11.6 5.8-14.8 7.3-4.2 2.1-8.8 4-13.6 5.6-5.7 1.9-30.4 9.6-36.1 11.5-15.3 5-26.7 9.5-35.8 14.4-3.5 1.9-22.3 11.1-26.2 13.5-7.2 4.3-10.4 8-10.4 12.9 0 9.5 41.3 29.5 68.9 35.1 7.6 1.5 18.8 2.3 38.1 3 3 .1 6 .2 9 .3 6.7.2 10.5.4 14.3.5 29.1 1.4 49.1 3.4 60.8 7.2 3.8 1.2 6.2 2.9 9.9 6.3l2.3 2.1c1.4 1.3 3 2.6 4.8 3.8 1.3.8 2.7 1.6 4.7 2.6.5.2 2.3 1.2 2.7 1.4 6 3.1 8.7 5.2 9.5 8.5.5 2.1.5 4.3 0 6.6-1.2 5.5-5 11.2-11.2 18.1-1.5 1.7-2 2.2-5.5 5.8-7.2 7.5-27.5 7.8-56.2 2.8-22-3.9-48.3-10.9-66.5-17.4-30.7-10.6-79.8-19.6-108.4-19.6-10.3 0-13.2 3-15.8 13.3-.6 3.1-1.6 6.2-2.8 9.3-3.2 7.5-8.9 13-19.3 17.2-14.2 5.6-19.6 14.8-22.2 31.8-.2 1.5-.4 2.5-.8 5.6-.9 7-1.8 11.9-3.2 15.8zm16.6 0h-2.1c.6-1.4 1.2-2.9 1.9-4.6l2.2-5.6c5.2-13.3 8.7-19.9 13.8-24 3.5-2.8 7.6-5.5 16.6-11 16.9-10.4 22.4-14.5 22.4-18.7v-1.7c0-1.8 0-2.7 0-3.8.4-5 3-8.2 9.6-9.4 8.1-1.5 21.4.4 41.5 6.4 19.7 5.9 36.2 10.7 53.5 15.7 2.7.8 29.4 8.4 36.5 10.5 4.4 1.3 8.8 2.6 13.2 3.9 28.5 8.5 80.3 5 95.5-7.8 7.4-6.3 9.4-8.5 16.1-17.3.8-1 1.6-2.1 2.4-3.1 2.2-2.7 5.1-5.2 8.4-7.6 19.3-14 30.8-26.1 30.8-36.7 0-3.7 1.5-6.6 6.9-14.9 1.1-1.6 1.7-2.7 2.4-3.7 7.5-12.2 6.3-19.1-8.9-24-6.2-2-13.2-3.3-20.6-3.8-14.9-.9-29.9 1.2-49.3 5.9-3.2.8-13.7 3.4-15.7 3.9-2.9.7-5.8 1.5-8.5 2.3l-9.1 2.7c-24 6.9-42.1 9.2-67.7 6.1-6.9-.8-12.9-1.4-27-2.6-27.3-2.4-38.6-3.8-48.1-6.5-12.9-3.7-15.4-9-5.9-16.6 8.3-6.7 18.3-12.8 29.8-18.3 5.5-2.7 11.3-5.2 17.2-7.7-.1 0 12.7-5.3 16.1-6.8 4.7-2 9.2-4.1 13.4-6.3 15.9-8.5 26.4-13.4 41.4-18.6 20.5-7.1 44.2-12.4 72.6-15.6 76.4-8.6 105.2-12.7 121.4-17.9 17.7-5.7 43.9-24.8 76-54.8 10.8-10.1 25.3-18.4 43.6-25.7 10.6-4.2 19.7-7.2 36.2-12.2 15.3-4.6 19.8-6.1 23.5-8.2 2.5-1.5 4.5-3.1 6.1-4.9 1.3-1.3 5.9-6.5 6.2-6.8 2.8-3 5.3-5.4 8.2-7.7 13.5-11 33.1-18 64.8-20.8 26.3-2.3 41-2.7 61.2-2.3 6.7.1 8.5.2 11.6.1 10.6-.1 20-1 34.3-3.8 42.8-8.3 80-12 122.1-12 6.3 0 12.4.1 21.6.5l4.3.2c25.7 1 37.3 1 52.3-.6 10.2-1.1 20-2.9 29.1-5.4v1.1c-9 2.4-18.6 4.2-28.6 5.3-15.2 1.6-27 1.6-52.9.6l-4.3-.2c-9.1-.3-15.2-.5-21.5-.5-41.9 0-78.8 3.7-121.3 12-14.5 2.8-24.1 3.8-35 3.9-3.1 0-4.9 0-11.7-.1-20.1-.4-34.7 0-60.8 2.3-31.1 2.7-50.2 9.6-63.4 20.3-3 2.5-5.7 5-8 7.6-.2.3-4.9 5.5-6.2 6.8-1.6 1.8-3.8 3.5-6.4 5.1-3.8 2.1-8.4 3.7-23.9 8.4-16.4 5-25.5 7.9-36 12.2-18.1 7.2-32.5 15.4-43.1 25.4-32.2 30.2-58.5 49.3-76.7 55.2-16.5 5.3-45.3 9.4-122.1 18.1-28.2 3.2-51.5 8.4-71.8 15.4-14.9 5.2-25.3 10-41.1 18.4-4.3 2.2-8.8 4.4-13.6 6.4-3.4 1.5-16.3 6.8-16.2 6.8-6.7 2.8-12 5.2-17 7.6-11.3 5.4-21.2 11.5-29.4 18.1-8.9 7.2-6.6 11.9 5.2 15.3 9.2 2.6 20.4 4 48 6.4 8.9.7 17.8 1.6 26.7 2.6 25 3 42.6.8 66.2-6l9.1-2.6c3.4-1 6.1-1.7 8.7-2.4 2-.5 12.5-3.1 15.7-3.9 19.8-4.8 35.2-6.9 50.5-6 7.7.5 15 1.8 21.5 3.9 16.1 5.2 17.4 12.5 9.7 25.1-.7 1.1-1.3 2.1-2.4 3.7-5.3 8.1-6.8 11-6.8 14.5 0 10.9-11.7 23.1-31.1 37.3-3.2 2.3-6 4.8-8.2 7.5-.8.9-1.5 1.8-2.4 3-6.7 8.8-8.7 11.1-16.2 17.5-15.8 13.4-69 17-98.4 8.2-4.4-1.3-8.8-2.6-13.2-3.9-7-2-33.8-9.7-36.5-10.5-17.3-5-33.8-9.8-53.5-15.7-19.6-5.8-32.4-7.7-39.7-6.4-5.5 1-7.8 3.8-8.3 8.5-.1 1.2-.1 2.5 0 3.7v1.7c0 4.5-5.6 8.7-23.8 19.9-8.1 5-12.1 7.6-15.6 10.4-4.9 4-8.4 10.6-13.5 23.7l-2.2 5.6zm21.6 0h-2.1c.1-.3.1-.7.1-1 0-12.4 17.5-33.6 39.5-43.4 2.8-1.3 5.4-2.7 7.6-4.2 2.2-1.6 4.2-3.2 5.9-4.9.7-.7 3.6-3.7 4.3-4.4 6.6-6.3 14.1-6.5 35 .4 2.8.9 12.5 4.2 13.2 4.4 5.4 1.8 9.6 3.2 13.8 4.6 10.4 3.4 19.3 6.2 27.9 8.7 29.6 8.7 52.6 13.3 70.4 13.3 34.8 0 67.5-6 81.7-14.8 3.3-2 6.6-5.2 10.4-9.6 1.7-1.9 3.4-4.1 5.5-6.8l5.7-7.3c9.6-12.4 16-19.1 23.9-23.3 16.3-8.8 30.7-36 30.7-52.7 0-1.9.4-3.1 2.1-8.3.8-2.2 1.2-3.6 1.5-5.1 1.3-5.5.4-9.5-3.5-12.4-9.5-7.1-40.6-9.2-79.4-4.8-13.4 1.5-26.5 3.6-39.1 6.3-10.7 2.4-35.3 9.7-34 9.4-13.9 3.6-26.8 4.1-51.2 1.3-61-7.1-62.8-8.6-31.5-26.8 36-20.9 97.2-46.2 116.3-46.2 20.5 0 111.1-12 135.7-18 19.5-4.7 50.2-21.2 76-37.9 1.5-1 27.9-21.6 39.6-29.6 19.3-13.1 37.6-22.5 55.6-27.5 15-4.2 27.2-10.3 38.8-18.7 4-2.9 21.7-17.6 26.3-20.4 3.2-1.9 6.2-3.2 9.3-3.9 29-6.2 50-9 80.9-9h59.8c8.4 0 15.2-.4 47.3-2.5l8.9-.6c20.5-1.3 34.2-1.9 44.9-1.9h12.4c38.4.2 58.9-.5 92.6-4 6.4-.7 12.6-1.8 18.8-3.3v1.1c-5.8 1.4-12 2.5-18.4 3.2-33.8 3.6-54.5 4.2-93 4.1-6.4 0-9 0-12.4 0-10.6 0-24.3.6-44.7 1.9l-8.9.6c-32.3 2.1-39.1 2.5-47.6 2.5h-59.8c-30.6 0-51.3 2.8-80.1 9-2.8.6-5.6 1.8-8.5 3.6-4.5 2.7-22.1 17.4-26.2 20.3-11.8 8.6-24.1 14.8-39.5 19-17.7 4.9-35.8 14.2-54.9 27.2-11.7 8-38.1 28.6-39.7 29.6-26 16.8-56.8 33.3-76.7 38.1-24.9 6-115.8 18-136.6 18-18.2 0-79.2 25.1-114.8 45.8-30.1 17.5-29.3 18.2 30.4 25.2 23.9 2.8 36.3 2.3 49.7-1.2-1.4.4 23.3-7 34.2-9.4 11.2-2.5 23.9-4.6 39.4-6.4 39.5-4.5 71.5-2.4 81.6 5.2 4.2 3.2 5.1 7.3 3.8 13-.4 1.7-.9 3.4-1.5 5.1-1.7 5.1-2.1 6.3-2.1 8.1 0 16.9-14.5 44.3-31.2 53.3-7.6 4.1-13.9 10.7-23.5 23-.7.9-4.5 5.9-5.6 7.3-2.1 2.8-3.9 4.9-5.5 6.8-3.9 4.5-7.3 7.7-10.7 9.8-14.6 9.1-48 15.2-83.3 15.2-18.3 0-41.6-4.7-71.5-13.4-8.6-2.5-17.5-5.3-28-8.7-4.6-1.5-9.2-3-13.8-4.6l-13.2-4.4c-20-6.6-26-6.4-32-.8-.7.7-3.6 3.6-4.3 4.3-1.8 1.8-3.8 3.4-6.1 5s-4.9 3-7.9 4.3c-21.6 9.6-38.9 30.5-38.9 42.6zm-61.1 0h-2.3c2.4-2.5 3.7-5.2 3.7-8 0-20 10-42 25.1-49.3 10.7-5.2 16-8.4 20.4-12.7 5.4-5.4 8.2-12 8.2-20.9 0-6.8 2.4-11.6 7-15.1 3.6-2.7 7.4-4.2 18.4-7.5 2.8-.8 5.5-1.8 8-2.8 9.5-4 13.6-6.2 15.9-9.4 3-4 1.9-9-3.8-16-2.4-2.8-5.1-5.5-8.2-8.1l-1.9-1.7c-1.9-1.6-3.8-3.3-5.4-5-10.6-10.7-7.8-18.9 15.8-29.8 17.2-7.9 35.7-15.1 55.3-21.5 8.2-2.7 34.7-10.8 39.7-12.5 4.1-1.4 8.9-3.3 16-6.3 0 0 14.9-6.4 19.5-8.3 10.3-4.3 18.8-7.5 26.9-10.1 9.7-3.1 18.5-5.3 26.6-6.3 26.4-3.4 32.2-4.2 44.9-6 25.9-3.6 45.3-6.9 58.1-10 5-1.1 10.1-2.1 15.4-2.8 17.9-2.7 24.8-4.1 35-8.1 14-5.5 27-14.2 39.9-27.9 33-34.8 39.4-39.4 66.3-49.2 6.5-2.4 13.1-4.1 23.6-6.4l4.8-1c24.6-5.4 34.8-8.9 43.5-17.4 3.9-3.8 5.1-6.3 7-12.3 1.6-5.2 3.1-7.6 7.3-10.2 5.3-3.4 14.5-6.3 29.6-9 7-1.3 15.2-2.5 24.9-3.7 33.7-4.3 52.2-5.4 81.7-5.8 14.2-.2 19.6-.6 26.1-2 2.5-.5 4.9-1.2 7.4-2.1 7.6-2.7 16.8-4.5 27.3-5.7 11.8-1.3 22.1-1.5 38.6-1.4h4.8c5.8 0 14-1 40.6-4.7 22.3-3.1 32.9-4.3 39.8-4.3 1.7 0 3.9.1 7.3.4l10.3.9c20.3 1.7 36 1.9 51.9-.2 16.5-2.2 30.5-6.8 41.9-14.2v1.6c-11.3 7-25.2 11.4-41.3 13.6-16.3 2.1-32.2 1.9-52.8.2l-10.3-.9c-3.3-.3-5.4-.4-7-.4-6.6 0-17.2 1.2-40.7 4.5-25.5 3.5-33.6 4.5-39.7 4.5h-4.9c-16.4-.1-26.5.2-38.1 1.4-10.3 1.1-19.2 2.9-26.6 5.5-2.4.9-5 1.6-7.7 2.2-6.9 1.5-12.4 1.9-26.9 2.1-29.4.4-47.7 1.5-81.2 5.8-8.3 1-16.6 2.3-24.7 3.7-14.8 2.7-23.7 5.5-28.7 8.7-3.9 2.5-5.3 4.8-6.9 9.8-1.9 6.1-3.2 8.7-7.2 12.6-4.6 4.6-11.4 8.5-19.9 11.4-6.4 2.3-12.3 3.7-24.6 6.4l-4.8 1c-10.3 2.3-16.9 4-23.2 6.3-26.6 9.7-32.9 14.2-65.7 48.8-13 13.8-26.2 22.7-40.4 28.2-10.5 4.1-17.6 5.6-35.7 8.3-5.2.7-10.3 1.6-15.1 2.7-12.9 3.1-32.4 6.4-58.4 10.1-14.9 2.1-29.9 4.1-45 6-7.8 1-16.4 3.1-25.9 6.2-9.3 3.1-18.2 6.5-26.7 10.1-4.6 1.9-19.6 8.3-19.6 8.3-5.2 2.3-10.6 4.4-16.2 6.4-5.1 1.7-31.6 9.8-39.7 12.5-19.6 6.4-38 13.6-55.1 21.5-23 10.6-25.6 18.3-15.4 28.6 1.7 1.7 3.5 3.3 5.4 5l1.9 1.7c3.1 2.6 5.9 5.4 8.3 8.2 5.9 7.2 7 12.5 3.9 16.7-2.5 3.4-6.8 5.8-16.5 9.8-2.4 1-4.8 1.8-10.9 3.7-8.1 2.5-11.7 3.9-15.1 6.4-4.4 3.3-6.6 7.9-6.6 14.5 0 9-2.8 15.8-8.4 21.3-4.5 4.5-10 7.8-20.8 13-14.6 7.1-24.5 28.9-24.5 48.7 0 2.5-1.2 5.2-3.5 7.7zm582.9 0h-2.1l-2.3-5.8c-6.4-16.3-8.4-26.2-5.7-37.3 1.4-5.8 1.6-9.7 1.1-15.3-.4-4.5-.4-5.7.4-7.6 1.6-4.3 7.1-8.5 21.4-16.3 18.7-10.2 25.3-15.4 40.9-30.1 2.8-2.6 4.8-4.5 7-6.3 1.9-1.6 3.8-3.1 5.7-4.5 6.5-4.7 14.5-8.4 34.7-16.8 23.2-9.6 32-13.9 37.4-19.1 1.4-1.4 2.7-2.8 4-4.4 1.1-1.3 2.1-2.7 3.1-4 7.5-9.9 16.5-13.9 47.3-17.8 10.3-1.3 42.4-5.1 44.1-5.3 33.4-4.1 52.3-7.4 69.1-12.6 12.1-3.8 12-3.8 57.1-16.5l5.4-1.5c21.1-6 35.3-10.2 46.9-14 6.2-2 12.3-4.1 18.2-6.3 4.4-1.7 8.8-3.4 13.1-5.1 10.3-4 21.4-7.4 33.3-10.3v1.1c-11.4 2.7-22.1 6.1-32 9.9.4-.1-9.8 3.8-13.2 5.1-5.9 2.2-12 4.3-18.3 6.4-11.7 3.8-25.9 8-47 14l-5.4 1.5c-45 12.8-44.9 12.7-57 16.5-17.1 5.3-36.1 8.6-69.7 12.7-1.7.2-33.8 4-44.1 5.3-16.6 2.1-27.1 4.5-33.9 7.5-5.5 2.4-8.3 4.9-11.9 9.7l-3.1 4.1c-1.2 1.5-2.5 3-4 4.5-5.6 5.5-14.5 9.8-37.9 19.5-20.1 8.3-28.1 12-34.4 16.6-2 1.5-3.9 2.9-5.7 4.5-2.2 1.8-4.1 3.6-6.9 6.2-15.6 14.8-22.3 20.1-41.2 30.4-14.1 7.7-19.4 11.8-20.9 15.9-.7 1.8-.7 3-.4 7.4.5 5.7.3 9.6-1.1 15.5-2.7 10.9-.7 20.8 5.6 37zm-158 0h-4.3l2.9-4.3c2.1-3.3 4-6.8 5.5-10.4 5.5-12.7 6.7-23.6 6.7-41.3 0-5.7-3.8-9.8-8.5-9.8-6.1 0-14.4 5.6-22.6 17.1-20.1 28.4-46.6 41.7-88.5 41.7-46.3 0-60.4-1.3-99.9-10.1-6.7-1.5-13.2-3.2-19.4-5-6.1-1.8-26.4-8.6-30.6-9.7-8.7-2.4-14.4-2.7-20.1-1-1.3.4-2.6.9-3.9 1.5-2.8 1.4-5.8 2.6-8.9 3.9-2.1.8-4.2 1.6-6.3 2.4l-2.1.8c-17.2 6.6-23.4 11.4-23.4 21.2 0 1 0 2-.1 3h-4.1c.1-1 .1-2 .1-3 0-10.5 6.9-15.8 24.9-22.8 1.4-.5 2.7-1.1 4.1-1.6 1.7-.6 3-1.1 4.2-1.6 3-1.2 5.9-2.4 8.6-3.7 1.5-.7 3.1-1.3 4.6-1.8 7.2-2.2 14.4-1.8 24.3.9 4.4 1.2 24.8 8 30.7 9.8 6.1 1.8 12.5 3.5 19 4.9 38.9 8.6 52.5 9.9 98.2 9.9 39.7 0 65-12.7 84.7-40.3 8.7-12.2 17.9-18.4 26.4-18.4 7.8 0 12.6 5.1 12.6 11.8 0 17.8-1.3 28.8-6.8 41.7-1.6 3.7-3.5 7.2-5.7 10.6-.6 1.2-1.5 2.4-2.3 3.6zm-307.9 0 1-.9c4.9-4.3 9.4-8.7 13.5-13.3 5.6-6.3 11.9-9.6 19.1-10.5 7.7-1 14.8.7 25.9 5.1 11.2 4.4 12.5 4.9 15.9 5.1 3.3.2 8.8 1.1 18.3 3 2.7.5 22.2 4.3 28.6 5.5s12.1 2.2 17.5 3.2c6.4 1.1 12.3 2 17.8 2.8h-7.1c-3.6-.6-7.4-1.2-11.4-1.9-5.9-1-11.7-2.1-17.6-3.2-6.4-1.2-25.9-5-28.6-5.5-9.3-1.8-14.8-2.7-17.8-2.9-4-.3-5.2-.7-17-5.3-10.7-4.2-17.2-5.8-24.1-4.9-6.4.8-12.3 3.9-17.7 10-4.2 4.7-8.9 9.3-14.1 13.8zm232.9 0c8.6-1.3 16.5-3.4 23.3-6.3 3.2-1.4 6.9-3.5 11-6.3 2.2-1.5 4.4-3.1 7-5 1.7-1.3 3.5-2.6 5.2-3.9l1-.8 1.9-1.5c2.1-1.7 4.4-3.3 6.7-4.9 2.2-1.4 3.8-2.2 5-2.5 2.1-.4 3.1.5 3.1 2v2.1c.1 6.9-.2 11.3-1.4 16.3-.8 3.6-2.5 7.1-4.9 10.6h-2.2c2.5-3.5 4.2-7 5.1-10.7 1.3-5 1.5-9.3 1.4-16.2v-2.1c0-1-.2-1.1-.3-1.1-.7.1-2.2.8-4.1 2.1-2.3 1.6-4.5 3.2-6.6 4.8l-1.9 1.5-1 .8c-1.7 1.3-3.4 2.6-5.2 3.9-2.6 2-4.9 3.6-7.1 5.1-4.3 2.9-8 5-11.3 6.5-5.5 2.3-11.7 4.2-18.4 5.5zm-379.1 0h-2.8c7-3.4 10.7-8.3 10.7-15 0-18.6-.1-17.3 2.1-20.8 1.2-1.9 3.1-3.7 6.7-6.6.9-.7 10.2-7.8 14-10.9 6.3-5 22.8-16.5 25.2-18.6 7.2-6.1 9.7-12.1 9.7-24.2 0-7.9 5.2-14.2 16.7-23.4l5.9-4.6c1.8-1.4 3.5-2.9 5.1-4.4 3.3-3.1 5.1-5.8 5.4-8.3.4-3.8-2.7-7.3-10.1-10.9-10.6-5.1-17.7-5.4-23.1-1.9-4.4 2.9-7.2 7.7-10.4 16.5-.4 1-1.7 4.6-1.7 4.6-1.7 4.7-2.9 7.3-4.3 9.6-2.8 4.4-7.6 7.6-17.2 12.3l-6.7 3.2c-13.2 6.4-20 11.5-23.4 19.5l-2.4 5.5c-1.8 4.1-3.2 7-4.8 9.9-7.6 13.7-19.9 26-46.6 44.7-15.8 11.1-22.8 18.9-22.5 23.7h-2.1c-.2-5.2 6.9-13 22.9-24.3 26.6-18.7 38.8-30.8 46.3-44.4 1.6-2.9 3-5.8 4.8-9.9l2.4-5.5c3.6-8.2 10.6-13.5 24-20 1.3-.6 5.9-2.8 6.7-3.2 9.4-4.5 14.1-7.6 16.8-11.8 1.8-3.1 3.2-6.3 4.3-9.5l1.7-4.6c3.3-8.9 6.2-13.8 10.8-16.9 6.2-4.1 14.9-3.8 26.2 1.7 7.8 3.8 11.2 7.6 10.7 11.7-.3 2.7-2.2 5.4-5.6 8.7-1.6 1.5-3.4 3-5.2 4.5l-5.9 4.6c-11.4 9.1-16.4 15.3-16.4 22.9 0 12.3-2.6 18.4-10 24.7-2.5 2.1-19 13.7-25.2 18.6-3.9 3.1-13.1 10.2-14 10.9-3.6 2.8-5.4 4.6-6.5 6.4-2.1 3.3-2 2.1-2 20.5-.2 6.5-3.7 11.4-10.2 15zm494-600h2.2c-.8.9-1.6 1.8-2.5 2.8-8 9.1-11.2 15.1-11.2 25.2 0 7.6-4.3 11.6-13.7 13-7.1 1.1-11.8 1-36.3-.4-23.8-1.4-39.6-1.6-58.1-.1-12.9 2.5-53.5 7-66.3 7-23 0-75.8-2.9-111.7-7-11.9-1.5-24.5-.6-35 2.5-8.4 2.3-14.6 5-28.7 12-13 6.4-19.7 9.2-28.5 11.5-14.6 3.8-23.2 7.7-27.6 12.3-3.8 3.8-4.8 7.8-4.8 15.3 0 4.4-5.5 6.7-19.5 9.7.2-.1-6.1 1.3-7.9 1.7-18.1 4.1-26.2 8.3-26.2 16.5 0 12.5-10 19.2-35.8 28l-9.4 3.1c-3.9 1.3-6.8 2.3-9.6 3.3-1.9.7-3.7 1.3-5.4 2-14.8 5.6-22.7 14.5-32.1 33.3-1.3 2.6-6.8 14-8.4 17.1-3.2 6.5-6.8 12.9-10.7 19.3-2.8 4.5-9.3 15.1-10.2 16.5-2.2 3.4-3.4 4.9-5.1 6.3s-14.1 9.1-26.1 18.3l-11.2 8.8v-1.9l9.5-7.4c8.2-6.2 16.8-12.3 26-18.2-.6.5 2.8-2.8 4.9-6.1.9-1.4 7.4-12 10.2-16.5 3.8-6 7.1-12.1 10.7-19.3 1.6-3.1 7.1-14.6 8.4-17.1 9.5-18.9 17.6-28 32.8-33.8 1.7-.7 3.5-1.3 5.5-2 2.8-1 5.8-2 9.7-3.3l9.4-3.1c25.3-8.6 34.9-15 34.9-27.1 0-8.7 8.7-13.3 27.4-17.4 1.8-.4 8.2-1.8 7.9-1.7 13.3-2.9 18.3-5 18.3-8.8 0-7.6 1.1-11.7 5-15.7 4.7-4.8 13.6-8.8 28.6-12.7 8.6-2.2 15.2-5 29.2-11.9 13-6.4 19.3-9.1 27.9-11.5 11-3.2 24.1-4.1 36.5-2.6 35.6 4.1 88.3 7 111.2 7 12.6 0 53.1-4.5 65.9-7 18.8-1.5 34.7-1.2 58.8.1 24 1.4 28.7 1.5 35.4.5 8.4-1.3 12.3-4.8 12.3-12.1-.2-10.5 3-16.7 13.4-28.4zm51.9 0h2.1c.1 5.6.5 11.5 1.3 19.4 1 9.7 1.3 14.6 1.3 21.6 0 9.8-9.7 17.5-27 23.2-13.5 4.4-30.8 7.5-50.2 9.3-7.7.5-19.4.6-46.8.2-13.9-.2-19.3-.2-25.6-.2-5.7 0-10.3.4-15.7 1.4-1.8.3-9.4 1.7-11.5 2.1-13.5 2.3-28 3.5-51.2 3.5-16.7 0-28-1.4-46.3-4.9l-6.6-1.2c-25.9-4.9-43.9-5.2-76.7 1.1-23 4.4-37.4 9.2-46 14.8-6.5 4.3-8.9 7.8-12.3 15.8-2.5 6.1-4 8.7-7.2 12.1-3.4 3.5-8.2 5.8-14.6 7.2-4.8 1.1-9 1.5-19.2 2.2-18.7 1.3-26.3 3.1-32.2 9.6-7.7 8.5-15.9 13.9-29.3 19.8-5 2.2-27.1 11-32.8 13.4-16.9 7.1-28.6 17.4-38.6 32-2.4 3.5-4.7 7.1-6.7 10.7 0 .1-4.7 8-5.9 10.1-17.5 28.9-36.9 52.9-53.9 61.2-5.8 2.8-10.4 5.6-21.5 13-7 4.7-12.9 8.2-18.5 11.1v-1.5c5.7-3 11.8-6.8 19.6-12 8.3-5.5 13-8.4 18.9-11.2 16.7-8.1 36-32.1 53.4-60.8 1.3-2.1 5.9-10 5.9-10.1 2.5-4.2 4.6-7.5 6.8-10.7 10.1-14.8 21.9-25.2 39.2-32.4 5.7-2.4 27.9-11.2 32.8-13.4 13.2-5.8 21.3-11.1 28.8-19.4 3.5-3.8 8.4-6.3 14.9-7.9 5-1.2 9.6-1.7 19.7-2.4 9.4-.6 13.4-1.1 18-2.1 6-1.3 10.4-3.4 13.6-6.7s4.6-5.9 7.1-11.9c3.4-8.1 5.9-11.8 12.6-16.2 8.8-5.8 23.5-10.7 46.9-15.2 33.3-6.4 51.9-6.1 78.2-1.1l6.6 1.3c18.1 3.5 29.2 4.8 45.6 4.8 22.9 0 37.2-1.2 50.5-3.5 2.1-.4 9.7-1.8 11.5-2.1 5.3-1 10.8-1.4 16.4-1.4 6.3 0 11.7.1 29 .3 23.8.3 35.5.3 43-.2 19.1-1.8 36.2-4.8 49.4-9.2 16.8-5.5 26.1-12.9 26.1-22.3 0-7-.4-11.9-1.4-22.7-1.1-7.5-1.5-13-1.5-18.5zm-498 0h4.2c-1.4 4-3.3 6.8-6.3 9.5-4.8 4.4-5.9 5.8-10.9 13-1.1 1.7-2.4 3.4-4 5-4.6 4.7-12.2 8.8-27 14.3-16.5 6.1-29.4 16.5-41.3 31.5-5 6.2-18.1 25.6-19.9 28-5.5 7.2-13.4 12.7-32.2 23.7l-5.5 3.2c-12.4 7.3-19.3 12.1-24.2 17.1-4.7 4.9-14.7 9.9-26.6 14.1v-2.4c10.6-3.9 18.8-8.3 22.9-12.6 5.1-5.1 12.1-9.9 24.7-17.4l5.5-3.3c18.4-10.8 26.2-16.2 31.6-23.1 1.8-2.3 14.9-21.7 19.9-28 12.2-15.3 25.4-26 42.7-32.4 14.3-5.3 21.5-9.2 25.8-13.5 1.3-1.4 2.4-2.7 3.8-4.8 5.1-7.4 6.2-8.8 11.1-13.3 2.8-2.7 4.8-5.6 5.7-8.6zm18.7 0h2.1c-3.4 8.3-6 12.7-9.4 15.3-3.3 2.6-6.1 5.4-8.5 8.2-2.6 3-5 6.2-7.2 9.4-.8 1.1-1.4 2.2-5 5.4-9.1 4.3-18 8.7-26.4 13.3-7.2 4-12.3 7.3-14.8 9.7-2 1.9-4.3 6-7.4 13-1.3 2.9-7.5 17.2-9.3 21.1-7.5 16.5-13.7 26.7-20.4 32-15.8 12.5-22 15.7-76.5 41.1-8.9 4.2-18.8 7.9-29.6 10.9v-1.1c10.2-2.9 19.7-6.4 28.2-10.4 54.5-25.3 60.5-28.6 76.2-40.9 6.6-5.2 12.8-15.4 20.2-31.7 1.8-3.9 8-18.2 9.3-21.1 3.2-7.1 5.6-11.2 7.6-13.2 2.6-2.5 7.8-5.9 15-9.9 1.9-1 3.8-2.1 5.9-3.2 5-2.6 10.2-5.2 15.5-7.8 1.9-.9 3.6-1.7 7-3.4 2.8-4.6 6.1-9.1 9.9-13.5 2.4-2.9 5.3-5.7 8.6-8.4 3.1-2.5 5.7-6.8 9-14.8zm-39.7 0h2.3c-4.3 4.7-12.4 8.9-23.6 12.3-14.9 4.5-34 7.2-50.3 7.2-18.4 0-24.3 7-24.2 21.5 0 1.7.1 3.2.2 6 .2 3.3.2 4.5.2 6 0 5.7-1.6 11.3-4.1 16.5-1.2 2.4-2.7 4.7-4.4 7-4.8 5.3-9.6 10.6-14.4 15.9-13.5 14.7-27.2 29.3-41.1 43.9-3.6 3.7-8 7.4-13.3 10.7v-1.6c4.5-3 8.3-6.2 11.5-9.6 17.5-18.6 34.8-37.2 51.8-55.8 1.1-1.2 2-2.2 5-5.9 4.5-6.8 6.9-13.9 6.9-21.1 0-1.5-.1-2.7-.2-6-.2-2.8-.2-4.3-.2-6-.1-6.8 1.1-11.6 4.3-15.3 4-4.7 11.1-7.2 22-7.2 15.9 0 34.7-2.6 49.2-7.1 10.5-3.1 18.2-7 22.4-11.4zm583.2 0h2.1c3.8 10 4.5 12.7 4.8 18.3 2.4 9.2 2.7 18.6.8 27.8-2 8.8-6.4 16-13.7 21.2-23.4 16.5-82.1 29.2-137 29.2-10.5 0-21.6.3-33.7.8-16.8.8-33.6 1.9-50.3 3.2-44.5 3.3-57.1 4-74.9 4-14.3 0-25.2-1.1-44.8-3.9l-5.7-.8c-2.9-.4-5.2-.7-7.5-1-16.5-2.1-29.3-2-44.8.7-8.3 1.4-15.1 4.4-18.9 8.2-3.3 3.1-5.2 6.1-8.3 12.8-3.1 6.6-4.8 9.5-8.2 12.6-4.1 4-11.4 7.1-20.3 8.4-6.6 1-13.2 2.1-19.6 3.4-13.5 2.8-20.8 5.6-28.5 10.5-2.7 1.8-2.1 1.3-11.2 7.9-4.1 3-9.6 5.8-17.5 9.1-4.1 1.8-22.1 8.8-26.6 10.7-15.2 6.4-26 12.1-34.3 19.1-8.7 7.3-16.1 18.3-23.3 33.3-1.8 3.7-3.5 7.6-5.4 12.1l-2.4 5.8-2.2 5.4c-3.7 9-5.7 13.3-7.8 16.3-14 20.4-35.6 42.2-56 51.2-10.5 4.7-16.7 7.1-22.9 8.9-1.9.5-3.8 1-6 1.6-.9.2-19.8 4.4-29.1 6.7l-2.7.6v-1.1l1.6-.4c9.3-2.3 28.2-6.4 29.1-6.6 2-.5 3.9-1 5.9-1.5 6.1-1.8 12.1-4.1 22.6-8.7 20-8.9 41.5-30.5 55.4-50.8 2-2.9 4-7.2 7.7-16.1l2.3-5.5c2.4-6 5-12 7.9-18 7.2-15.1 14.6-26.1 23.5-33.5 8.5-7.1 19.4-13 34.7-19.4 4.5-1.9 22.4-8.9 26.6-10.7 7.8-3.3 13.2-6.1 17.1-8.9 9.1-6.6 8.5-6.2 11.3-8 7.8-5 15.5-7.9 29.3-10.8 5.4-1.1 11.8-2.2 19.8-3.5 8.4-1.2 15.3-4.1 19.1-7.9 3.3-3 5-5.8 8.3-13 2.9-6.3 4.8-9.3 8.2-12.5 4.1-4 11.3-7.1 20-8.7 15.9-2.8 29.1-2.8 46-.8 2.3.3 4.7.6 7.6 1l7.7 1.1c17.5 2.5 28.2 3.6 42.2 3.6 17.7 0 30.3-.8 74.7-4 16.7-1.3 33.5-2.4 50.4-3.2 12.1-.5 23.3-.8 33.9-.8 54.3 0 112.3-12.6 135.3-28.8 7.1-5 11.3-12.1 13.3-20.7 1.7-7.7 1.5-16 0-23.9-.3-1.7-.7-3.4-1.2-5.1 0-4.4-.6-6.8-4.4-16.9zm-716.9 0h2.1c-3.9 7.6-5.7 10.2-11.2 16.2-4 4.4-5.5 9.2-5 14.9.4 4.3 1.5 7.7 4.7 16.1 2.2 5.9 3.2 8.8 4 12.2 2 8.9.5 16.1-5.8 22.8-8.7 9.2-17.9 18.3-27.8 27.2v-2.1c9.2-8.4 17.8-16.9 25.9-25.5 6.1-6.5 7.6-13.5 5.6-22.3-.7-3.4-1.7-6.3-4-12.1-3.2-8.5-4.3-11.9-4.7-16.3-.5-5.8 1-10.8 5.2-15.3 5.4-5.9 7.1-8.5 11-15.8zm578.7 0c-2.7 3.9-6.1 7.6-10.1 11.2-5.3 4.7-8.3 8.4-10 12l-.8 1.8-.6 1.5c-.2.7-.7 1.4-1.5 2.1-1.5 1-4 1.3-10.6 1.2 1.9 0-20.3-.3-31-.3-21 0-38.1.8-60.8 2.6-34.8 2.7-36.6 2.8-48.8 2.5-5.6-.1-11.1-.5-16.5-1.1-36.5-4.2-95.3-5.9-112.9-3-5.6.9-12.1 2.8-19.6 5.6-4.6 1.7-9.1 3.6-13.5 5.5-2.9 1.2-18.9 8.5-22.2 9.8-3 1.2-16.9 7.4-18.3 8-3.1 1.3-6.2 2.6-9.4 3.9-10.3 4-18.4 6.2-24.6 6.2-7.3.1-8.9 0-10.6-.4-2.3-.6-3.1-1.7-2.3-3.6 1.5-3.6 9.2-10.8 26.5-24.8 11.7-9.5 19.4-18 24.3-26.2 3-5 4-7.4 6.1-14.5h2.1c-2.2 7.3-3.2 9.7-6.2 14.8-4.9 8.3-12.7 16.9-24.6 26.4-17.1 13.8-24.8 21-26.2 24.5-.6 1.4-.2 2.1 1.2 2.5 1.2.3 2.8.3 7.2.3 8.1 0 15.9-2.1 25.8-6 2.9-1.1 5.9-2.4 9.3-3.9 1.4-.6 15.3-6.8 18.3-8 3.3-1.3 19.3-8.5 22.2-9.8 5-2.2 9.4-4 13.6-5.5 7.7-2.8 14.4-4.8 20.2-5.7 18.1-2.9 77.2-1.2 114 3 5.3.6 10.6 1 16.1 1.1 12 .2 13.8.1 48.4-2.5 22.8-1.8 39.9-2.6 61.1-2.6 10.7 0 33 .3 31.1.3 5.9 0 7.9-.2 8.9-.8.5-.3.8-.8 1.2-1.7l.6-1.4.8-1.9c1.8-3.6 4.9-7.4 10.2-12.2 3.9-3.4 7.1-7 9.8-10.8zm-17.8 0c-12.2 17.9-19.7 22-40.8 22-9.3 0-21.1.3-59.2 1.5l-3.2.1c-32.2 1-48.4 1.4-59.4 1.4s-27.3-1-59.5-3.3l-3.2-.2c-38-2.7-49.8-3.5-59-3.5s-15.1 1-22.6 3.3c-.2.1-3.7 1.2-4.7 1.5-5 1.5-8.9 2.2-13.9 2.2-5.8 0-8.5-1.5-8.5-4.2 0-1 .3-2.3 1-4.1.3-.8 1.9-4.4 2.2-5.3 1.7-4.1 2.7-7.7 3-11.4h4.1c-.4 3.8-1.4 7.5-3.1 11.8-.4.9-1.9 4.5-2.2 5.3-.6 1.2-.9 2.5-1 3.7 0 1.7.9 2.2 4.4 2.2 4.1 0 7.3-.6 11.8-1.9 1-.3 4.4-1.4 4.7-1.4 8.2-2.5 14.8-3.7 24.8-3.7 9.5 0 21.3.7 59.6 3.5l3.2.2c32 2.3 48.2 3.3 58.9 3.3 10.8 0 27.1-.4 59.1-1.4l3.2-.1c38.3-1.2 50-1.5 59.4-1.5 18.5 0 25.1-3.4 36.4-20h4.5zm-307.9 0h2.3c-4.3 3.9-5.4 5.1-5.7 6.2s.9 1.6 4.8 2c3.7.3 7.9.4 22.3.4 12.4 0 26.8.6 44.1 1.6 8.2.5 16.6 1.1 27.1 1.9 49.5 3.7 46.4 3.5 55.4 3.5 49.6 0 106.9-2.2 124.7-6.9 5.9-1.6 10.4-4.5 13.6-8.6h2.2c-3.4 4.5-8.2 7.7-14.9 9.4-18.2 4.8-75.7 7.1-125.7 7.1-9.1 0-5.9.2-55.7-3.5-10.5-.8-18.9-1.4-27-1.9-17.1-1.1-31.5-1.6-43.8-1.6-14.5 0-18.8-.1-22.6-.4-4.9-.4-7-1.3-6.5-3.1.3-1.3 1.4-2.5 5.4-6.1zm157.6 0c11.7 1.6 21.4 2.5 29.1 2.5 19.8 0 34.5-.7 46.2-2.5h6.1c-12.9 2.5-29.3 3.5-52.4 3.5-9.3 0-21.3-1.2-36.2-3.5zm-303.7 0c-5.9 3.3-14.3 5.4-24.8 6.5-8.2.9-15.5 1.1-26.7 1-1.2 0-2.4 0-3.6 0-11.1 0-18.3-1.2-20.8-5-.5-.8-.8-1.7-.8-2.5h2c0 .8.3 1.6.7 2.2 2.2 3.2 8.6 4.3 18.9 4.3h3.6c11 .1 18.2-.1 26.2-1 9.3-1 16.9-2.8 22.4-5.6h2.9zm-145.9 207.9c15.1-.2 23.7 3.3 23.7 11.1 0 11.4-10.4 28.4-23.7 41.5v-2.3c12.2-12.7 21.7-28.5 21.7-39.2 0-7.2-7.6-10.3-21.7-10.1zm0 7c2.5.1 4.5.6 5.9 1.3 2.9 1.5 3.3 3.7 2.4 7.6l-.3 1.3c-.4 1.3-.7 2.6-.8 3.9 0 3.2-3.1 9.5-7.2 15.9v-3.4c3.1-5.1 5.2-9.9 5.2-12.4 0-1 .2-1.8.8-4l.3-1.3c.9-3.6.5-5.6-1.8-6.8-1-.5-2.5-.9-4.4-1v-1.1zm0 196v-1.5c2.5-1.4 4.5-3 6.1-4.7 2.7-2.7 5.5-6.3 9.4-11.9 16.2-23.5 16.2-26.6.5-30.4-4.6-1.1-9.9-1.4-16.1-.9v-1c5.7-.6 11.7-.2 17 1 17 4.1 17 7.6.5 31.6-3.9 5.7-6.7 9.3-9.5 12-1.9 2.2-4.6 4.1-7.9 5.8zm69.4 41.1c3.5 0 6.3-.2 17.2-1.3l4.9-.5c17-1.6 26.2-1.3 30 2.3 2.8 2.8-1 5.9-9.8 9.7-3.4 1.4-6.9 2.8-10.5 4.1-1.9.7-10.1 3.6-11.9 4.3-3.8 1.4-6.1 2.4-7.2 3-2.6 1.7-4.6 3.5-6 5.5.1-.2-8.3 13.6-14.4 22.2-5.6 7.9-11.5 10.7-18.2 8.6-4.4-1.4-7.6-4.2-13.6-11-4.1-4.6-5.2-5.8-7-7.4-9.4-8.2-8-23.9-.1-32.9 2.4-3 7.8-5.3 14.4-6 5.3-.7 10-.8 24.3-.7zm0 2c-2.3 0-4.3 0-7.9 0-24.9-.1-30.6.6-34.9 5.4-7.5 8.5-8.8 23.5-.1 31.1 2 1.7 3.1 2.9 7.2 7.6 5.6 6.3 8.7 9.1 12.1 10.1 3.4 1.1 7.2-.8 12-7.5 5.1-7.4 9.8-14.8 14.4-22.2 1.5-2.2 3.7-4.2 6.6-6 1.3-.9 3.8-1.9 8-3.4 1.9-.7 10-3.6 12-4.3 4.2-1.5 7.4-2.8 10.2-4 7.5-3.2 10.5-5.7 8.9-7.3-2.5-2.4-10.5-2.6-25.5-1.3l-4.8.5c-11.5 1.1-14.3 1.3-18.2 1.3zm713.2 146c-7.1-12.3-7.8-14.1-7.8-19 0-3.3-.3-6.3-.9-11.3-1.3-10.3-1.3-13.5.5-17.1 2.5-4.7 8.7-7.1 20-7.1h53.6c8.4 0 10.7 1.8 12.2 7.1.2.8.3 1 .4 1.3 1.7 5.3 5.8 7.6 18.3 7.6 7.5 0 11.4.4 13.3 1.4 1.6.8 1.6 1.4.7 3.9-1.8 5.3 1 8.8 15.5 13.8 13 4.5 24 5.4 34.1 3.4 7.8-1.5 13.9-4.2 24.6-10l2.3-1.2 2.2-1.2c1.8-1 3.7-1.9 5.6-2.9 5.8-2.8 12.4-5 19.7-6.7 3.1-.8 3.5-.9 11.7-2.6 12.6-2.7 18.6-4.5 24.2-7.6 5.4-3 9.6-4.8 13.8-6 6.6-1.8 11.3-2.1 28.2-2.1 12.3 0 21.8-4.3 37.1-15l5.8-4c2.2-1.5 4-2.7 5.8-3.8 16.2-10.1 40-10.4 63.4 1 11.4 5.5 21 19.4 28.1 38.5 5.2 13.8 8.6 29.5 9.2 39.8h-2.1c-.6-10.3-4-26-9.2-39.7-7.1-18.9-16.5-32.7-27.6-38-22.6-11-44.9-10.7-60.4-1-1.7 1.1-3.5 2.3-5.7 3.8l-5.8 4c-15.8 11-25.5 15.4-38.9 15.4-16.6 0-21.1.3-27.2 2-4 1.1-8 2.9-13.3 5.8-5.9 3.3-12.1 5.1-24.9 7.9-3.9.8-7.8 1.7-11.6 2.6-7.1 1.7-13.6 3.9-19.2 6.5-2.7 1.3-5.3 2.7-7.7 4l-2.3 1.2c-10.9 6-17.1 8.6-25.3 10.2-10.9 2.1-22.5 1.2-36.1-3.5-15.1-5.2-18.2-9.2-16.3-14.8.7-2.1.7-2.6-.2-3.1-1.3-.7-4.8-1-11.8-1-13.7 0-18.5-2.6-20.4-8.4l-.4-1.3c-1.4-4.8-3.2-6.2-10.2-6.2h-53.6c-10.3 0-15.7 2-18 6.3-1.8 3.4-1.8 6.6-.5 16.8.5 3.8.8 7.6.9 11.4 0 4.8.7 6.6 7.9 19zm28.2 0c-2.7-6.6-3.3-10.7-2.8-14.8.1-.7.2-1.4.4-2.4l.5-2.6c.7-3.8 1-7 1-11.2 0-4.9 3-7.8 8.7-8.4 4.9-.6 11.5.5 19 3 13.7 4.5 28.9 13.1 34.1 19.2 9.8 11.4 29.1 15.7 69.2 15.7 17.7 0 29.5-2.3 42.6-7.9 3-1.3 31.1-15 43.3-20 14.9-6.1 24.3-7.6 42.5-8.3 11.4-.5 16.5-.9 23.6-2.4 9.5-2 19.3-5.5 30.7-11.3 15.3-7.8 27.3-8.9 36-4.3 6.9 3.6 11.3 10.6 14.1 20.2 1.5 5.2 1.9 7.7 3.3 17.4.5 3.8.4 5.3-1.9 18h-2.1c2.2-12.7 2.4-14.3 1.9-18-1.3-9.6-1.8-12.2-3.2-17.3-2.7-9.5-7.1-16.3-13.5-19.7-7.8-4.1-18.4-3.1-33 4.3-11.7 5.9-21.7 9.5-31.5 11.5-7.4 1.5-12.6 2-23.9 2.4-18.2.7-27.2 2.2-41.7 8.1-12.2 5-40.2 18.7-43.3 20-13.5 5.7-25.7 8.1-44 8.1-40.8 0-60.9-4.4-71.1-16.3-5.1-6-20-14.4-33.4-18.8-7.1-2.3-13.1-3.3-17.3-2.9-4.5.5-7.1 2.9-7.1 7.5 0 4.3-.3 7.5-1 11.3l-.5 2.6c-.2.9-.3 1.7-.4 2.3-.5 4.1.1 8.2 2.9 14.8zm234.7 0c5.2-3.3 18.4-11.8 22.5-14.3 11.3-7 26.9-12.4 40-13.9 14.5-1.7 23.7 1.5 23.7 9.2 0 4-.1 5.2-1.5 19h-2.1c1.4-13.8 1.5-15 1.5-19 0-7.1-8-9.8-21.2-8.3-12.6 1.5-27.9 6.8-38.9 13.6-3.8 2.4-15.8 10.1-21.5 13.7zm-20.4-339c7.1 2.7 14.4 5.1 23.6 7.8 2.2.6 17.4 4.9 21.4 6.1 23.3 7 31 13.4 25.5 25.3-3 6.5-9.3 11.1-19.4 14.4-7.9 2.6-16.7 4.3-33.2 6.6-24.7 3.5-28.2 4-38.8 6.3-5.6 1.2-11 2.6-16.1 4.2-22.9 7.1-39.4 7.7-57.7 3.3-7.3-1.8-35.5-11-35.5-11-3.5-1.1-7.1-2.1-10.7-3.1-33.1-8.8-70.7-24.2-71.2-31.9-.2-3.5 4.1-6.6 13-10.3 2.1-.9 4.5-1.8 7.6-3 1.5-.5 7-2.6 8.1-3 9.2-3.4 14.8-5.8 19.2-8.5 22.9-13.8 54.8-28.7 70.9-32.3 24.9-5.5 40.9-5.8 56.5.1 6.7 2.5 11.7 6.5 17.7 13.4.6.6 4.7 5.4 5.9 6.7 3.3 3.6 6 5.8 8.7 6.9 1.5.8 3 1.4 4.5 2zm-7.2-.2c-3.4-1.4-6.3-3.7-9.8-7.6-1.2-1.3-5.4-6.1-5.9-6.8-5.8-6.5-10.5-10.3-16.5-12.6-14.1-5.4-28.6-5.1-52.2.1-15.4 3.4-46.8 18.1-69.4 31.7-4.7 2.8-10.5 5.3-20 8.8l-8.1 3c-2.5.9-5 1.9-7.4 2.9-8 3.3-11.7 6-11.5 8.7.4 6.6 37.4 21.7 69.1 30.1 3.6 1 7.2 2 10.9 3.1.2.1 28.1 9.2 35.1 10.9 17 4.1 31.9 3.5 53.6-3.2 5.3-1.6 10.9-3.1 16.7-4.3 10.8-2.4 14.4-2.9 39.4-6.4 16.1-2.2 24.6-3.8 32-6.3 9.2-3 14.9-7.2 17.7-13.2 5-11-1.7-16.6-23.6-23.2-3.9-1.2-19-5.4-21.3-6.1-9.3-2.7-16.8-5.1-24-7.9-1.7-.5-3.2-1.1-4.8-1.7zm-836.9-19.2c8.9-3 16.3-5 25-6.9 1.7-.4 3.6-.8 5.7-1.2l9-1.9c12.6-2.6 24.8-5.6 36.6-9 18.7-5.3 37.9-10.1 57.5-14.5 8.7-1.9 45.2-9.8 43.7-9.5 39.6-8.6 58-6.9 102.1 8.1 16.3 5.5 27.3 13.2 33.9 22.7 6.2 8.8 7.8 16.5 7.8 27.8 0 8.3-1.4 13-7.6 19-8.6 8.4-25.4 16.1-52.8 23.5-50.4 13.5-80.1 27.5-109 47.8-18.2 12.8-98.5 44.2-134.4 54.1-43.8 12.1-97.7 22.1-134.6 22.1-20.7 0-30.3-4.8-30.5-13.4-.1-6.3 4.3-13.7 13-24.3 6.1-7.4 4.2-12.9-4.5-22.3-6.6-7.2-8-9.1-8-12.5s3.9-6.9 11.4-11.1c5.4-3 7.2-3.8 24.6-11.5 10.5-4.7 16.7-7.6 22.1-10.8 19.5-11.4 26-19.5 36.9-44.8 6.4-15 13.7-20.3 31.2-25.2 1.7-.5 8.2-2.2 9.7-2.7 3.9-1.2 7.6-2.3 11.2-3.5zm1.2.8c-3.6 1.2-7.4 2.4-11.2 3.4l-9.7 2.7c-17 4.8-23.9 9.8-30.2 24.6-10.9 25.5-17.6 33.7-37.3 45.2-5.5 3.2-11.7 6.2-22.3 10.8-17.2 7.6-19.1 8.5-24.4 11.4-7.2 4-10.9 7.4-10.9 10.4 0 3.2 1.4 5.1 7.8 12.1 8.8 9.6 10.8 15.4 4.5 23.1-8.6 10.5-13 17.8-12.8 23.9.2 8.1 8.8 12.4 28.4 12.4 36.5 0 90.1-9.9 133.6-21.9 35.7-9.9 115.8-41.2 133.8-53.9 29.1-20.4 58.9-34.6 109.7-48.2 27.1-7.2 43.5-14.9 51.9-23 6-5.9 7.4-10.4 7.4-18.5 0-11.1-1.5-18.7-7.6-27.4-6.5-9.2-17.2-16.8-33.2-22.2-43.6-14.8-61.3-16.4-100.1-7.9 1.4-.3-35 7.6-43.7 9.5-3.5.8-6.8 1.6-10 2.3-16.1 3.7-31.9 7.8-47.3 12.2-11.9 3.4-24.2 6.4-36.8 9l-9 1.9c-2.1.4-4 .8-5.7 1.2-8.9 2-17.2 4.3-24.9 6.9zm-15.7 12.2c15.9-6.2 25.4-8.2 48.9-11.3 12.6-1.7 18.8-2.9 25.4-5.7 7.8-3.3 15.4-4.5 32.7-6.1 5.7-.5 7.6-.7 10.4-1 11.3-1.2 19.6-2.9 27-5.9 21.5-8.5 52.4-14.1 74.9-14.1 11 0 34.6 7.6 53.1 17.2 22.1 11.5 32.9 23.3 26.3 32.5-6.6 9.1-23.5 18.6-47.5 27.9-17.4 6.7-37.9 13-52 16.4-7.7 1.9-13.6 4.9-20.2 10-1.4 1.1-22.9 20.2-33.1 27.8-11.6 8.6-31.8 17.4-62.4 28-6.3 2.2-12.6 4.3-19 6.4-.3.1-14.1 4.6-17.7 5.9-13.3 4.5-21.4 7.4-26.9 9.8-24 10.7-76.6 15.5-90.2 9-4-2-4.5-4.1-4-10.5.8-9.4-1-14.5-10.2-20.5-4.1-2.6-9-5-14.5-6.9-8.1-3-12.5-6.1-13.5-9.5-2-6.6 8-13.1 29.2-21.7 3.3-1.3 13.8-5.4 14.6-5.8 3.8-1.5 7.4-3.1 10.8-4.8 8.5-4.6 12.1-9.5 16.1-20.1.6-1.5 1.1-2.9 1.7-4.4.7-1.9 1.2-3.3 1.8-4.7 1.5-3.8 3.1-7.2 5-10.6 2.1-3.8 2.8-5.5 4.9-10.4 1.2-3 1.9-4.2 3.2-5.5 2.4-2.4 2.5-2.5 25.2-11.4zm1.3.8c-22.2 8.7-22.4 8.8-24.8 11.1-1.2 1.2-1.8 2.3-3 5.2-2 4.9-2.8 6.6-4.9 10.4-1.9 3.4-3.4 6.8-4.9 10.6-.9 2.3-1.8 4.6-2.7 7l-.8 2.1c-4.1 10.7-7.8 15.7-16.6 20.5-3.4 1.8-7.1 3.4-11 4.9-.9.3-11.3 4.5-14.6 5.8-20.7 8.4-30.4 14.6-28.5 20.8.9 3.1 5 6 12.7 8.8 6.2 2.2 11.1 4.6 14.9 7.1 9.6 6.2 11.4 11.5 10.6 21.1-.5 6.1 0 8.1 3.4 9.8 12.6 6.1 64 1.3 87.3-9 5.7-2.5 13.7-5.4 27.2-9.9l17.7-5.9c7.5-2.5 13.3-4.4 19-6.4 30.4-10.5 50.4-19.2 61.8-27.7 10.1-7.5 31.6-26.7 33.1-27.8 6.7-5.3 12.9-8.4 21-10.4 14-3.4 34.4-9.6 51.6-16.3 23.8-9.2 40.5-18.5 46.9-27.4 6.3-8.8-4.2-20.3-25.8-31.5-18.2-9.4-41.3-16.8-51.6-16.8-22 0-52.5 5.5-73.6 13.9-7.8 3.1-16.3 4.8-27.9 6.1-2.9.3-4.8.5-10.5 1-16.9 1.6-24.3 2.7-31.7 5.9-6.9 2.9-13.3 4.2-26.2 5.9-23.2 3.1-32.5 4.9-48.1 11.1zm269.6-3.5c0 7.6-1.2 10.9-5.4 14.3-2.3 1.8-15.8 10-17.7 11.3-12.3 7.9-19.3 10.3-35.6 13.8-2.8.6-4.5 1-6.3 1.5-1.1.3-2.5.7-4.1 1-1.5.3-9.2 1.9-11.4 2.4-12.5 2.8-18.5 5.8-18.5 10.7 0 11-39.1 36.1-71.2 44.9-16.9 4.6-43.9 9.4-67.6 11.9-27.5 2.9-46.4 2.5-50.8-2.3-2.7-3-9.1-4.3-24.7-5.8l-1.2-.1c-10-1-14.3-1.5-18.6-2.6-6-1.5-9.2-3.7-9.2-6.8 0-2.7 2.2-5.8 6.7-9.7 1.8-1.5 3.8-3.1 6.7-5.4-.3.2 5.8-4.4 7.6-5.8 13.8-10.7 20.3-18.5 20.3-27.2 0-18.4 23.2-33.4 56.7-42.9 10.8-3.1 19-3.3 31.4-2.1 10.4 1 12.5.9 15.3-1.5 9.3-7.9 14.5-9.5 32.7-9.5 8.1 0 14.4-1 21.6-3.2 3.2-1 17.9-6.2 22.7-7.7 19-6 23.4-7 52-11.9 14.3-2.5 31.3 1.3 46.1 9.1 13.3 7.1 22.5 16.5 22.5 23.6zm-4.1 0c0-6.5-8.8-15.5-21.6-22.3-13.8-7.3-29.2-10.7-41.6-8.6-28.3 4.9-32.5 5.9-51.2 11.8-4.6 1.5-19.3 6.7-22.7 7.7-7.8 2.4-14.9 3.5-23.8 3.5-16.7 0-20.6 1.2-29.2 8.5-2.3 1.9-5.2 2.9-9 3.1-2.7.1-3.9.1-10.8-.6-11.4-1.1-18.7-.9-28.5 1.9-32.4 9.2-54.7 23.5-54.7 41.1 0 9.2-6.8 17.3-20.9 28.3l-7.6 5.8c-2.9 2.2-4.8 3.8-6.5 5.2-4.2 3.6-6.2 6.4-6.2 8.7 0 4.2 5.9 5.7 24.6 7.5l1.3.1c17.1 1.7 24.1 3.1 27.6 7 6.5 7.1 74.3 0 112.7-10.5 30.9-8.4 69.1-33 69.1-43.1 0-5.9 7.2-9.5 21-12.5 2.3-.5 10-2.1 11.4-2.4 1.5-.3 2.7-.6 3.7-.9 1.9-.5 3.8-1 6.7-1.6 15.8-3.4 22.2-5.5 34-13.1 2.1-1.4 15.4-9.4 17.5-11.1 3.6-3.3 4.7-6.3 4.7-13.5zm-76.7-22.4c.3-.1 5-1.5 6.1-1.8 2-.6 3.5-.9 5-1.2 5.3-.8 10.4-.1 22.8 3.1 30.7 8 40.1 22.9 18.9 38.7-8.3 6.2-19.3 9-38.6 11.1-1.8.2-2.5.3-6.5.7-12.5 1.3-18.1 2.1-23.9 3.6-7.5 2-12.6 5-15.5 9.4-16.2 24.9-40.7 43.3-74.9 50.3-33.9 6.9-43.6 8.5-57.7 8.9-10.2.2-20.2-.6-31.8-2.9-4-.7-7.9-1.6-11.6-2.6-8.3-2.3-10.6-4.7-9.3-9.3.6-2.1 7.8-15.5 10-20.6 1.3-3 2.5-6.1 3.6-9.7 1-3 1.9-5.9 2.8-8.9 2.9-9.4 5.2-14.3 9.3-18.6 5.1-5.4 12.6-9 24.2-11.1 13.6-2.5 21.7-3.1 37.2-3.5 9.8-.3 13.8-.6 18.6-2 1.3-.4 2.5-.8 3.8-1.3 2.5-1 4.8-2.2 7-3.4 1.2-.7 4.9-2.9 5.4-3.2 6.9-4 13-5.5 25.4-5.5 8.1 0 12.2-.9 16.9-3.4-.4.2 5.7-3.1 7.9-4.2 4.2-2 8.9-3.7 14-5 3.1-.8 6.5-1.6 10.3-2.4 7.1-1.6 14-3.3 20.6-5.2zm-30 8.3c-5 1.3-9.5 2.9-13.6 4.8-2.7 1.4-5.3 2.8-7.9 4.2-5.1 2.6-9.7 3.7-18.4 3.7-11.8 0-17.3 1.4-23.9 5.2-.5.3-4.2 2.5-5.4 3.2-2.2 1.3-4.6 2.4-7.2 3.5-1.3.5-2.7 1-4 1.4-5.2 1.5-9.4 1.9-19.5 2.2-15.2.4-23.2 1-36.6 3.5-11 2-18.2 5.4-23 10.6-4 4.3-6.2 9.1-9.1 18.4l-1.3 4.3-1.4 4.6c-1.2 3.6-2.3 6.7-3.6 9.7-2.2 5.2-9.4 18.5-10 20.6-1.2 4.2.7 6.2 8.3 8.3 2.8.8 6.4 1.6 11.4 2.5 11.3 2.2 21 3 30.9 2.8 13.8-.3 23.4-1.9 57.1-8.8 33.4-6.8 57.6-25 73.7-49.7 3.1-4.7 8.5-7.9 16.4-10 6-1.6 11.8-2.5 24.5-3.8 4-.4 4.7-.5 6.4-.7 18.8-2.1 29.4-4.7 37.3-10.7 20.5-15.3 11.5-29.6-18.2-37.3-11.9-3.1-16.6-3.8-21.1-3.1-1.3.2-2.7.5-4.6 1.1-1.1.3-5.7 1.7-6 1.8-6.7 2-13.7 3.7-21 5.2-3.8.9-7.1 1.7-10.2 2.5zm-87.4 32.7c33.3-2.9 54.4-1 67 6.2 10.5 5.9 2.3 21.4-12.2 35.5-9.9 9.6-21.9 16.2-47.8 25.2-29.2 10.1-73.2 12.2-84 3.9-3.8-3-4.3-8.1-2.2-15.7 1.6-5.7 3.8-10.7 9.8-23l.2-.5c3.3-6.8 4.9-10.3 6.5-14.1 3-7.2 7.7-11.5 15-13.7 5.8-1.8 11.4-2.3 25.4-2.6 11-.4 15.6-.6 22.3-1.2zm.3 1c-6.8.6-11.5.8-22.6 1-13.7.3-19 .8-24.4 2.5-6.7 2.1-11.2 6.1-14.1 13.1-1.6 3.8-3.2 7.4-6.5 14.2l-.2.5c-5.9 12.2-8.1 17.3-9.7 22.9-2.1 7.4-1.6 12.4 1.9 15.1 9.9 7.7 52.7 5.7 81.1-4.1 25.6-8.9 37.4-15.4 47.1-24.8 14.2-13.7 22.2-29 12.5-34.5-12.1-6.9-32.4-8.7-65.1-5.9zm32.9 5c14.7 0 22 3.1 23.2 8.7.9 4-.9 8.1-5.7 15.9-5.3 8.5-37.9 25.4-56.1 31.3-14.5 4.7-41.3 5.7-54.8 1-8.2-2.9-7.3-12.1 0-26.5 1.4-2.8 3-5.6 4.9-8.8 2-3.4 4.1-6.8 6.3-10.1l.8-1.2c3.1-4.8 10.5-7.8 22.1-9.3 9.1-1.2 19.7-1.5 36.1-1.3l8 .1c7.9.2 11.1.2 15.2.2zm0 1c-4.1 0-7.3 0-15.3-.1l-8-.1c-16.2-.2-26.7.1-35.5 1.3-11 1.4-17.9 4.2-20.7 8.6-1.1 1.7-2.2 3.5-3.3 5.2-1.4 2.2-2.6 4.2-3.8 6.1-1.9 3.1-3.5 6-4.9 8.7-7.1 13.9-8 22.9-.8 25.4 12.7 4.4 38.6 3.5 52.5-1 17.9-5.8 50.2-22.5 55.3-30.7 4.7-7.7 6.5-11.7 5.6-15.6-1.1-5.1-7.5-7.8-21.1-7.8zm-36.7 7c6 .1 12 .5 17.7 1.4 11.2 1.8 18 5 18 10.1 0 9.6-19.6 17.2-46.1 21.5-20.3 3.3-28.1-1.8-24.1-16.5 1.7-6.3 7.9-10.7 17-13.5 5.3-1.6 11.2-2.7 17.5-3zm-1.3 1.1c-5.4.4-10.5 1.3-15.1 2.7-8.6 2.6-14.4 6.8-16 12.8-3.9 14.1 2.8 18.5 21.3 15.5 25.7-4.2 44.7-11.5 44.7-20.5 0-4.6-6.1-7.5-16.6-9.1-5.5-.9-11.2-1.3-16.9-1.4-.3-.1-.7-.1-1.4 0zm166.9-23.5c-5.6 9.8-30.8 9.9-55.1 3.3-21-5.6-28.5-18-10.3-22.9 3.2-.8 6.2-1.7 9.2-2.7l4.2-1.3c2.6-.8 5.3-1.6 8.1-2.3 9.8-2.4 18.2-2.8 28.9-.7 18.8 3.7 22.6 13.4 15 26.6zm-43-25c-2.7.7-5.4 1.4-7.9 2.2l-4.2 1.3c-1.7.5-3.1.9-4.5 1.4-1.7.5-3.3 1-4.9 1.4-16.4 4.4-9.5 15.8 10.3 21.1 23.3 6.3 47 6.2 52.2-2.7 7.4-12.8 3.8-22-13.8-25.4-10.1-1.9-18-1.6-27.2.7zm36.8 12.2c0 5.7-5 9-13.7 10-6.8.8-15.6 0-22.9-1.8l-3.9-.9c-1.4-.3-2.4-.6-3.4-.9-8.4-2.4-8.5-5 .7-10.9 14.1-9.2 43.2-7.3 43.2 4.5zm-2 0c0-5.3-5.9-8.6-15.1-9.2-8.7-.6-18.5 1.4-24.3 5.2-8.6 5.5-8.5 7.4-1.3 9.5.9.2 1.9.5 3.3.9l3.9.9c6.9 1.7 15.2 2.4 21.5 1.7 7.6-.9 12-3.8 12-9zm405.4 281c0-12.8 5-16.7 38.1-29.8 4.9-1.9 10.2-3.7 15.7-5.2 5.4-1.5 11-2.8 17.5-4.2 2.6-.5 5.1-1 8.5-1.7l8.1-1.6c19.4-3.8 28.4-6.7 34.3-12 2.5-2.2 4.6-4.4 6.7-6.8 1.1-1.3 2.2-2.6 3.2-3.8l.6-.7 1.2-1.4c6.6-8 12.5-12.1 26.2-16.5 3.7-1.2 7.1-2.5 10.2-4 2.9-1.3 5.5-2.8 8-4.3.6-.3 5.3-3.2 6.6-4 7.2-4.1 13.4-5.9 23.7-5.9 6.4 0 11.6-.6 19.7-2.1 11.2-2 13.5-2.3 18.5-2.2 5.2.1 10 1.3 14.8 3.6 2.7 1.3 11.5 5.8 13.5 6.8 10.4 5 19.5 6.9 36.7 6.9 8.3 0 16.6.2 24.9.5 32.9.9 45.3.6 52.2-2.2 14.3-5.8 24-2.7 24 7.8 0 10.7-17.7 20-39.2 20-9.9 0-17.2 1.4-19.3 3.7-2.3 2.5 1.4 6.1 12.3 10.6 28.1 11.3 23.2 20.8-15.8 20.8-11-.1-21.7 1.8-30.1 5.2-6.8 2.7-12 5.9-20.3 11.8l-3.1 2.2c-6.4 4.6-10.3 7.1-15.1 9.4-12.8 6.2-19.2 7.6-26.9 6.9l-2.1-.2c-1.8-.2-3.6-.4-5.5-.4-3.3 0-5 .7-16.9 6.2-10 4.7-16.7 6.8-24.4 6.8-2.7 0-7.1 1.2-13.3 3.5-2.6 1-5.5 2.1-9.3 3.7l-10.2 4.3c-3.1 1.3-6.2 2.6-9.4 3.8-19.3 7.6-32.2 10.2-41.7 6.5-5.6-2.2-8.5-4.5-9.6-7.3-.8-2-.5-3.6.6-7.3 1.8-5.8 1.3-8.4-3.8-11.6-4.8-3-6.1-3.2-7.8-2.4-.5.3-2.8 1.6-3.3 1.9-4.6 2.5-10 3.6-18.6 2.8-9.5-.8-11.5-4.1-9.7-10.1l.5-1.6c1.2-3.7 1.4-4.9.5-5.8s-3.9-.9-10.8.4l-1.5.3c-28.4 5.5-31.5 6.1-40.1 6.7-12.2.7-19-1.7-19-8zm4.1 0c0 5 4.4 6.6 14.5 5.9 8.1-.5 11.2-1.1 39.1-6.5l1.5-.3c8.6-1.7 13.8-1.5 16 .6 1.5 1.4 1.3 2.8-.1 7l-.5 1.5c-1.5 5-.1 7.3 6.4 7.8 7.1.6 11.1-.2 14.8-2.2.4-.2 2.8-1.7 3.5-2 3.9-2 7.9-1.2 14 2.5 6 3.7 6.5 6.8 4.6 13.1-2.1 6.8-1.1 9.4 7.5 12.7 7.2 2.8 18.8.5 36.5-6.5 2.8-1.1 5.7-2.3 9.3-3.8l10.2-4.3c3.8-1.6 6.7-2.8 9.5-3.8 6.9-2.6 11.8-3.9 15.8-3.9 6.3 0 12.3-1.9 21.5-6.2l5.1-2.4c1.9-.9 3.4-1.6 4.9-2.1 3.7-1.5 6.8-2.3 9.8-2.3 2.1 0 3.7.1 6.4.4 1.4.2 1.5.2 2 .2 6.1.6 11.2-.5 23.2-6.3 4.5-2.2 8.4-4.7 14.6-9.1l3.1-2.2c8.6-6.1 13.9-9.4 21.1-12.2 9.1-3.8 20.8-5.8 32.8-5.7 34.8 0 38.4-7 13.1-17.2-12.2-4.9-16.8-9.4-13.5-12.9 2.9-3.1 11.7-4.8 23-4.8 19.1 0 35.1-8.3 35.1-18 0-8.9-5.9-10.8-17.2-6.2-8.1 3.3-20.6 3.6-55 2.7l-2.1-.1c-10.5-.3-16.5-.4-22.6-.4-18.3 0-28.4-2.1-39.6-7.5-2.1-1-10.9-5.5-13.5-6.8-4.1-2-8-2.9-12.1-3-4.2-.1-6.3.2-16.8 2.1-8.6 1.5-14.2 2.2-21.2 2.2-8.9 0-14.1 1.5-20.6 5.2-1.3.7-6 3.6-6.6 4-2.6 1.6-5.4 3.1-8.3 4.5-3.3 1.6-7 3-10.8 4.2-12.9 4.2-18.4 7.9-24.7 15.6l-1.2 1.4-.6.7c-1.1 1.3-2.1 2.6-3.2 3.9-2 2.4-4.3 4.7-6.9 7-6.5 5.9-16.1 9-36.4 13l-8.1 1.6c-3.3.6-5.9 1.1-8.4 1.7-5.9 1.2-11.6 2.6-17.1 4.1-5.3 1.5-10.4 3.2-15.2 5-32.2 12.6-36.6 16-36.6 28.1zm274.9-79.8c6.3 1.5 13.5 2 22 1.7 5.2-.2 10.1-.6 18.2-1.5 11.1-1.2 13.1-1.4 17.2-1.5 5.7-.2 9.9.2 13 1.4 3.3 1.3 4 2.7 2.6 4.2-1.4 1.4-2.2 1.7-10.4 5.1-7.3 2.9-10.4 4.8-10.4 7.1 0 7.3 2.7 10 16.2 15.6 8 3.3 12.2 6.8 10.9 9.6-1.5 3.2-10.2 5-26 5-14.8 0-26.2 4.6-41.3 14.7-1 .7-8.2 5.6-10.2 6.9-2.9 2-6.1 3.8-9.7 5.5-2.2 1-4.3 1.7-6.4 2.2-5.9 1.3-10.4 1.6-20.3 1.7-15.8.3-22.4 1.5-30.9 7.1-3.3 2.2-6.4 4-9.7 5.6-5.3 2.6-11.3 4.8-17.8 6.7-.3.1-22.1 6.2-30.5 8.8-7.8 2.4-13.3 2-17-.8-2.6-2-3.9-4.5-5.9-10.3-1.7-5.1-2.6-7.1-4.3-8.9-2-2.3-4.6-3.2-8.3-2.9-12.8 1.2-18.5 1.4-22.7.2-4.9-1.4-6.5-4.6-5.4-10.7.3-2-2.1-2.9-7.8-3-4.6-.1-10.1.2-20.5 1.1l-1.4.1c-16.4 1.5-22.1 1.7-26.2.7-6-1.4-3.3-5.3 8.7-12.2 11.3-6.5 21.9-10.8 32.5-13.5 7.7-2 12.3-2.6 25.1-4.1 15-1.7 21.5-3.5 29-9.3 6.1-4.8 22.2-18.6 25-20.8 7.4-5.7 14-9.1 22.8-11.3 5.4-1.4 9.7-2.8 18.9-6.1l2.8-1c16.2-5.7 25.4-8 36.5-8 8.7 0 13.4 1.4 18.8 4.8.7.4 3.4 2.2 4.1 2.7 1.8 1.1 3.3 2 5.1 2.8 4 1.8 8.6 3.4 13.7 4.6zm-.9.9c-5.8-1.4-10.3-3-14.3-5-1.8-.9-3.4-1.8-5.2-2.9-.7-.5-3.5-2.2-4.1-2.7-5.1-3.2-9.2-4.4-17.2-4.4-10.5 0-19.4 2.2-35.3 7.8l-2.8 1c-9.3 3.3-13.7 4.7-19.2 6.1-8.4 2.1-14.8 5.5-22 11-2.9 2.2-18.9 16-25.1 20.8-7.8 6.1-14.7 8-30.2 9.8-12.6 1.5-17.1 2.1-24.6 4-10.4 2.7-20.7 6.9-31.9 13.3-11.2 6.5-13.5 9.7-9.4 10.7 3.5.8 9.2.6 25-.8l1.4-.1c10.6-.9 16.1-1.3 21-1.1 6.6.2 10.2 1.5 9.7 4.1-1 5.8.4 8.6 4.4 9.8 3.6 1 9 .9 21.2-.3 4.8-.5 8.3.8 10.6 3.5 1.7 2 2.6 4 4.3 8.8l.1.4c1.9 5.7 3.2 8.1 5.6 10 3 2.3 7.3 2.6 14.1.5 8.5-2.7 30.3-8.8 30.6-8.8 6.4-1.8 12.2-4 17.5-6.5 3.4-1.7 6.6-3.5 9.5-5.5 8.9-6 16.1-7.2 32.5-7.5 9.6-.2 13.9-.5 19.5-1.7 1.9-.4 3.8-1.1 5.9-2 3.5-1.6 6.7-3.4 9.5-5.4 2-1.3 9.1-6.2 10.2-6.9 15.5-10.3 27.3-15.1 43-15.1 14.9 0 22.7-1.6 24-4.2 1.1-2.3-2.8-5.5-10.3-8.6-13.9-5.8-16.9-8.8-16.9-16.4 0-2.7 3.4-4.7 11.1-7.9 7.8-3.2 8.7-3.6 9.9-4.7 1-1.1.5-2-2-3-4.6-1.9-9.7-1.6-28.4.4-8.1.9-13.1 1.3-18.4 1.5-9.1.2-16.6-.4-23.3-2zm-57.8-3.9c11.7-2.8 18.5-2.2 26.6 1.4 1.2.5 5.4 2.5 6.2 2.9 8.7 3.9 16.7 5.7 29.5 5.7 23.5 0 28.9 1.4 33.2 8.1.5.8 2.8 4.6 3.4 5.6 1.7 2.6 3.4 5 5.6 7.6 4.4 5.2 5.4 8.3 3.5 10.2-1.6 1.6-4.3 2.2-11.1 2.8-4.8.4-5.8.5-7.9.9-3.8.6-6.9 1.4-9.5 2.7-2.1 1-4.2 2.1-6.8 3.7-1.2.7-6 3.5-7.1 4.1-14.9 8.5-25.6 12.4-40.4 12.4-7.8 0-14.3 1.3-21.9 4-3.8 1.4-24 10.3-31.4 13.1-5.9 2.2-12 4.1-18.5 5.9-9.5 2.5-15.2 3.2-18.5 2.2-2.7-.8-3.4-2.1-4-5.5-.1-.6-.2-1.2-.3-1.8-1.1-4.7-4.6-6.9-14.8-6.9-14.7 0-18.3-1.2-20.1-5.4-2-4.6-4.3-6.7-13.5-9.7-8.2-2.6-8.9-5.4-3.1-8.2 4.1-2 9.6-3.5 23.4-6.9 13.6-3.3 19-4.8 22.9-6.7 4.1-2 7.8-4.1 10.9-6.5 2-1.5 3.8-3 5.9-5.1l4.4-4.3c1.9-1.8 3.5-3.4 5.4-5 12-10.4 21.5-14.8 48-21.3zm-46.1 21.7c-1.8 1.6-3.5 3.1-5.4 4.9l-4.4 4.3c-1.8 1.8-3.8 3.5-6.1 5.2-3.2 2.4-7 4.6-11.2 6.6-4.1 2-9.5 3.5-23.4 6.9-13.6 3.3-19 4.8-22.9 6.7-4.8 2.3-4.3 4.4 2.8 6.7 9.7 3.1 12.3 5.5 14.4 10.3 1.6 3.7 4.3 4.6 18.1 4.6 11.3 0 15.6 2.6 16.8 7.8.1.5.2.8.4 1.8.5 3.1 1.1 4.2 3 4.7 2.5.7 7.6.1 16.5-2.2 6.4-1.7 12.4-3.7 18.2-5.8 7.3-2.7 27.5-11.7 31.4-13.1 7.8-2.8 14.8-4.2 23.1-4.2 14 0 24.3-3.7 38.9-12l7.1-4.1c2.2-1.3 4.5-2.5 7-3.7 2.9-1.4 6.4-2.4 10.3-2.9 2.3-.3 3.3-.5 8.2-.9 6.1-.5 8.4-1 9.6-2.2 1.6-1.6.6-4.5-3.6-9.4-2.1-2.5-4-5.1-5.7-7.7-.6-1-2.9-4.8-3.4-5.6-4-6.2-8.6-7.4-31.2-7.4-13.4 0-21.9-1.9-30.9-6-.9-.4-5.1-2.4-6.2-2.9-7.5-3.3-13.5-3.9-24.3-1.2-26.2 6.4-35.4 10.7-47.1 20.8zm115.3 12c-6.1 6.5-34.6 15.3-55.2 15.3-11 0-15.6-3-14.7-7.9.7-3.5 4.3-7.9 8.1-10.6l3.1-2.3c1.2-.9 2.5-1.8 3.9-2.7 7.6-4.8 16.2-7.5 28.1-7.5 18.8 0 32.6 9.5 26.7 15.7zm-1.9-.5c5.2-5.5-7.5-14.3-24.8-14.3-11.1 0-19.3 2.5-26.5 7.1-1.2.8-2.4 1.6-3.8 2.6 0 0-2.5 1.9-3.1 2.3-3.6 2.6-7.1 6.9-7.8 10.1-.8 4.3 3 6.8 12.6 6.8 19.9.1 47.6-8.5 53.4-14.6zm-143.7 20.8c4.3.2 9.2.8 12.1 1.8 4.4 1.5 4.5 3.6-.5 6-10.6 5.1-26.5 4.3-26.5-1.4 0-4.6 6.4-6.8 14.9-6.4zm-.2 1c-7.3-.3-12.7 1.5-12.7 5.5 0 4.6 13.5 5.3 23 .6 4.2-2 4.1-3.4.8-4.5-2.6-.9-7.1-1.5-11.1-1.6zm61.1-226c9.6 2.4 35.6 8.2 40 9.4 5.5 1.4 10.5 3.3 14.5 5.6 2.8 1.6 5.4 3.4 7.7 5.2 5 3.8.1 7.7-12.8 11.6-10.3 3.2-25.1 6.3-45.3 9.8-10 1.7-40.5 6.7-43.5 7.2-13.6 2.3-30.6.1-51.9-5.9-8.1-2.3-16.5-5-26.7-8.5-4.6-1.6-19.6-7-22.1-7.9-5.7-2.1-11.6-4-17.8-5.7-9.9-2.6-9.2-6.6.4-12.1 6.7-3.9 8.6-4.7 37.3-16.3 6.2-2.5 12.4-5.1 18.3-7.7 3.4-1.5 6.6-3.1 9.7-4.7 10.5-5.4 20.2-6.5 30.9-3.9 4.6 1.1 9.3 2.9 15.3 5.5 3.1 1.4 14.3 6.7 16.5 7.7 10.9 5.1 19.7 8.4 29.5 10.7zm-1 .9c-10-2.5-18.9-5.8-29.8-10.8-2.2-1-13.4-6.3-16.4-7.7-5.8-2.6-10.4-4.3-14.9-5.4-9.8-2.4-18.6-1.4-28.5 3.7-3.2 1.6-6.4 3.2-9.8 4.7-5.1 2.3-10.6 4.6-18.4 7.8-28.6 11.6-30.5 12.4-37.1 16.2-8.8 5.1-9.5 8.4-.9 10.6 4.6 1.2 10.1 3 18 5.8 2.5.9 17.5 6.2 22.1 7.9 8.5 3 17.4 5.9 26.5 8.5 20.8 5.8 37.3 8 50.1 5.8 3.1-.5 33.6-5.5 43.5-7.2 20-3.5 34.8-6.6 44.9-9.7 12-3.7 16.3-7.1 12.2-10.3-2.3-1.8-4.8-3.5-7.6-5.1-3.9-2.2-8.7-4.1-14-5.4-4.2-1.1-30.2-7-39.9-9.4zm-80.1 8.1c6.4-.4 11.8-.1 17.3.7 4.4.7 5.7.9 17.8 3.8 9.8 2.3 17.3 3.9 27.2 5.6 17.3 3 23.4 6.2 18.2 9.8-4.3 2.9-16.6 5.9-36.8 9.2-17.4 2.8-31.9 2.4-44.2-.9-9.6-2.5-17.2-6.5-25.1-12.3-6-4.4-5.6-8.2.3-11.1 5.2-2.6 14.3-4.2 25.3-4.8zm.2 1c-10.6.6-19.3 2.2-24 4.4-5.2 2.5-5.5 5.8 0 9.8 7.7 5.7 15.1 9.5 24.3 12 11.8 3.1 25.6 3.6 42.5.8 19.8-3.2 31.9-6.1 35.8-8.8 4-2.8-1-5.5-17.2-8.2-10-1.7-17.5-3.3-27.4-5.6-12-2.8-13.2-3.1-17.5-3.7-5.3-.9-10.9-1.1-16.5-.7zm-504.6 213.9c0 4.8-3 7.6-9.1 8.9-4.7 1-9.4 1.2-22.3 1.2h-3.7c-19 0-35.1-7.6-35.1-15.5 0-7.6 21.9-10.5 40.7-5.4 5.7 1.5 8.7 1.9 17.7 2.8 9.2.7 11.8 2.2 11.8 8zm-2 0c0-5.3-1.9-6.3-10.1-7.1-9.2-.8-12.3-1.2-18.3-2.9-17.7-4.8-37.7-2.1-37.7 4.6 0 7.3 15.2 14.5 33 14.5h3.7c12.5 0 17-.1 21.4-1.1 5.4-1.2 8-3.6 8-8zm68.7-117.9c7.7-1.3 18-2.7 33.2-4.5 5.3-.6 34.1-4 42.4-5 40.4-4.9 65.1-8.9 78.9-13.4 30.8-10 76.1-33.9 90.4-47.8 4.6-4.5 9.6-6.4 15.8-6.2 2.6.1 5.4.5 8.9 1.2 2.5.5 4.9 1.1 7.3 1.7l2.6.6c9.9 2.3 17.3 3.4 26.1 3.4 14.9 0 20.7 3.1 17.2 7.9-2.9 4.1-12.2 8.9-22.9 12-17.1 5-24.2 17.3-24.2 33.6 0 3.6-2.8 6.3-8.2 8.4-4.1 1.6-8.7 2.6-17.5 4.2l-2.1.4c-10 1.8-14.4 2.8-17.9 4.5-10.5 5.1-25.9 7.1-42 7.1-2.8 0-5.1.9-8.2 3.1-.6.4-2.7 2-3 2.2-5.5 3.9-10.2 5.7-17.6 5.7-16.2 0-22.2.9-44.9 6.9-10.7 2.8-18.2 3.6-30.2 3.7-.5 0-1 0-1.9 0-9.9.1-14.7.3-21.7 1.3-6.3 1-12.4 2.2-18.3 3.6-4.5 1-21.7 5-21.1 4.9-16.1 3.7-27.5 6-39 7.6-25.6 3.5-38.3 2.2-56.6-4.1-5.3-1.9-5.6-4.4-1.7-7.6 3-2.5 8-5.1 16.7-9l3.7-1.6c8.1-3.6 9.2-4.1 12.2-5.5 4.8-2.3 6.4-3.5 11.3-7.6 4-3.4 7-5.1 12.9-7.1 4.7-1.7 11-3.1 19.4-4.6zm.7 1c-8.3 1.4-14.4 2.8-19 4.3-5.7 1.9-8.5 3.5-12.3 6.7-5 4.2-6.7 5.4-11.6 7.8-3 1.4-4.1 2-12.3 5.6l-3.7 1.6c-8.5 3.8-13.5 6.4-16.3 8.8-3.4 2.8-3.2 4.8 1.1 6.3 17.7 6.1 29.8 7.4 54.8 3.9 11.3-1.6 22.7-3.8 38.7-7.5-.6.1 16.6-3.9 21.1-4.9 6-1.4 12.2-2.6 18.6-3.6 7.2-1.1 12.2-1.3 22.3-1.4h1.9c11.8-.1 18.9-.8 29.3-3.6 23-6.1 29.3-7.1 45.9-7.1 6.6 0 10.7-1.6 15.9-5.3l3.1-2.2c3.5-2.4 6.2-3.5 9.9-3.5 15.6 0 30.5-2 40.5-6.9 3.8-1.8 8.3-2.9 18.7-4.7l2.1-.4c17.7-3.1 24.3-5.7 24.3-11.6 0-16.6 7.3-29.2 25.3-34.4 10.3-3 19.3-7.7 22-11.5 2.9-4.1-1.7-6.6-15.3-6.6-9.2 0-16.9-1.1-27-3.5-15.5-3.7-14-3.3-18-3.4-5.3-.1-9.6 1.5-13.9 5.7-14.5 14.1-60 38.1-91.1 48.2-14.1 4.5-38.9 8.5-79.5 13.5-8.3 1-37.1 4.4-42.4 5-15.3 2-25.5 3.4-33.1 4.7zm34.8 4c4.3 0 8.3-.2 15-.7 10.8-.8 13.7-.9 17.5-.5 5.2.6 7.8 2.4 7.8 5.7 0 4-4.7 7.3-13.7 10.1-6.7 2.1-13.5 3.5-29.2 6.4l-.6.1-4.7.9c-6.3 1.2-10.9 2.5-19.3 5.4l-1.7.6c-16.9 5.9-27.5 8-47.6 8-10.3 0-14.2-2-11.9-5.6 1.8-2.8 7.4-6.6 16.1-11.1 2.6-1.4 5.4-2.8 8.6-4.3 6.5-3.1 23.2-10.6 23.6-10.8.9-.5 1.9-.9 2.9-1.3 7-2.7 11.9-3.1 29.3-2.9zm0 1c-2.4 0-4.4 0-7.8 0-16.9-.1-21.5.2-27.9 2.7-.9.4-1.8.7-2.7 1.2-.4.2-17.1 7.7-23.6 10.8-2.9 1.4-5.7 2.8-8.5 4.3-8.5 4.5-13.9 8.1-15.6 10.8-1.9 2.9.9 4.3 9.9 4.3 19.5 0 29.8-2.1 46.3-7.8l1.7-.6c8.5-3 13.2-4.4 19.7-5.6l4.7-.9.5-.1c15.6-2.8 22.3-4.2 28.8-6.3 8.4-2.6 12.7-5.6 12.7-9.3 0-2.9-2-4.3-6.2-4.7-3.4-.4-6.3-.2-16.7.5-6.9.5-10.9.7-15.3.7zm232-45.3c-3.9 5.4-4.1 6.8-2 12.8 2.4 7.1-2.8 16.6-11.3 16.6-1 0-2.1 0-3.1.1h-1.3c-5.9.2-10 .2-14.3-.2-13.5-1.1-21.5-5.1-21.5-13.4 0-13.9 4.4-19.7 16.8-26.3 2-1.2 3.7-2.4 5.2-3.8 1.2-1 5.7-5.1 5.6-5 9.2-8.1 15.9-11.5 25.3-10.4 2.4.3 4.5.8 7.4 1.6l2.9.8c2 .6 4.2 1.2 6.4 1.6 1.4.3 3.7.3 9.8.3h1.5c6.5 0 9.9.1 12 .7 3.3.9 2.5 2.6-2.4 4.9-2.6 1.3-5.3 2.5-8 3.8-21.9 9.9-26.4 12.2-29 15.9zm-1.9-.4c2.8-3.9 7.1-6.2 29.4-16.5 3.2-1.5 5.6-2.6 7.9-3.7 4-2 4.5-2.9 2.8-3.3-1.7-.5-4.9-.6-11-.5h-1.5c-6.5.1-8.8 0-10.6-.3-2.2-.4-4.1-.9-6.7-1.7l-2.8-.8c-2.1-.7-4.4-1.1-6.8-1.5-8-1-14.3 2.2-23 9.9.1-.1-4.4 4-5.6 5-1.5 1.4-3.4 2.7-5.5 3.9-12 6.5-16.2 12-16.2 25.7 0 7.8 7.2 11.5 19.7 12.5 4.1.3 8.1.3 13.8.2.8 0 1.7 0 2.5-.1h2c6.6 0 11.6-8.9 9.3-15.4-1.9-6.3-1.7-7.8 2.3-13.4zm-19.1 12.5c1.2.5 5.2 1.9 5.3 1.9 4 1.6 4.2 3.3 0 6.4-7.7 5.6-18.2 3.1-18.2-4.5 0-3.8 1.1-5.7 4.3-6 2.3-.4 4 .2 8.6 2.2zm-2.8 1.4c-3.1-1.4-4.6-1.9-5-1.8-.4 0-1 1.2-1 4.1 0 5.9 5.5 7.2 10.7 3.5 3.1-2.3 3-2.8.8-3.7 0 0-4.1-1.4-5.5-2.1zm459.9-130.1c4.5-1.1 7.6-1.7 12.1-2.4l.6-.1c6.3-.9 12.3-2.1 18.1-3.6 8.6-2.1 13.1-1.9 14.4.8.9 2 .4 4-2.6 12.7-4.7 13.6-18.9 26.1-43.7 36.3-8.9 3.6-15.3 4.4-20.1 2.4-3.9-1.6-6.4-4.6-9.5-10.5-.6-1.1-3-5.8-3.5-7-1.6-3.1-3.5-6.2-5.6-9.2-5-6.8-6.3-10.8-4.3-12.9 1.6-1.8 4.3-2.2 11.6-2.4 3.1-.1 4.3-.1 6.1-.3l4-.3c1.5-.1 2.5-.2 3.5-.3 2.3-.2 4-.4 5.6-.6 3.4-.4 7-1.1 13.3-2.6zm.9.9c-6.4 1.5-10.1 2.3-13.7 2.8-1.7.2-3.5.4-5.8.6-2.6.2-5.2.4-7.9.6-1.6.1-2.9.2-6 .3-6.5.2-8.6.5-9.8 1.9-1.6 1.8-.4 5.6 4.4 12.2 2.2 3.1 4 6.2 5.7 9.3l3.5 7c3 5.7 5.4 8.6 8.8 10 3.9 1.6 9.3.9 17.5-2.4 24.4-10 38.4-22.3 43-35.7 2.9-8.4 3.4-10.5 2.6-12.3-.8-1.9-3.8-2-11.4-.2-5.9 1.5-12.1 2.7-18.4 3.6l-.6.1c-4.1.4-8.1 1.2-11.9 2.2zm-9.2 6.5c2.8-.3 5.2-.8 8-1.4.7-.2 5.3-1.3 6.9-1.7 3.1-.7 6.1-1.3 9.7-1.9 5.6-.9 9.6-.8 12.1.4 2 .9 2.8 2.3 2.9 4.2v1.4c0 5.6-9.6 16.9-23.4 22.8-9 3.8-15.1 4.7-20.5 2.5-4.3-1.7-7.2-4.6-13.8-12.9-3.8-4.8-4.2-8.1-1.4-10.2 2.3-1.7 6-2.4 12-2.7l2.6-.1c2.6-.2 3.7-.3 4.9-.4zm-4.4 2.3-2.5.1c-5 .3-7.6.8-9.1 1.8-1.9 1.4-1.6 4.1 1.8 8.4 6.2 7.8 9.1 10.7 12.5 12.1 3.4 1.3 7.5.8 15.1-2.5 12.9-5.5 22-16.2 22-21.2 0-.6 0-.9 0-1.3-.1-1.4-.6-2.3-1.6-2.8-1.2-.6-3.7-.6-8 0-3.1.5-6.2 1.1-9.2 1.8-1.5.3-6 1.5-6.9 1.7-2.8.7-5.8 1.2-8.9 1.6-1.3.1-2.5.2-5.2.3zm-469.9-88.9c-3.3 4.3-7.3 7.2-14.7 11.4l-5.4 3c-1.9 1-3.7 2.1-5.4 3.2-3.7 2.3-6.9 4.9-9.7 7.5-5.9 5.7-14.7 10.2-26.5 13.9-8.8 2.8-17 4.6-32.3 7.6-22.7 4.4-33.9 1.3-56.2-16.4-5.9-4.7-18.2-8.6-37.1-12.7-6.2-1.3-26.6-5.2-29.8-5.9-10.2-2.2-14.5-3.7-13.2-5.9 1.4-2.3 10.9-4.1 31.9-6.1 34.3-3.3 55.6-3.8 82.4-3 16.3.5 20 .5 26.3-.3 4.1-.5 8.1-1.3 12.4-2.6l5.8-1.7c20.3-6.1 26.7-8 35.7-9.9 12.4-2.7 21.8-3.3 28.8-1.4 14.8 4.1 15.8 7.7 7 19.3zm-3.8-.7c8.2-10.7 7.4-13.3-5.3-16.8-5.5-1.5-13.7-1-25 1.5-8.7 1.9-15.1 3.7-35.2 9.8l-5.8 1.7c-4.2 1.3-8.8 2.2-13.6 2.8-6.9.8-10.8.8-27.5.3-26.5-.8-47.4-.3-81.3 3-10.1 1-17.4 1.9-22.3 2.8-4.2.8-6.3 1.4-6.5 1.9-.3.6 3.1 1.8 10.9 3.5 3.1.7 23.5 4.6 29.8 5.9 19.6 4.2 32.5 8.3 38.9 13.4 21.4 16.9 30.7 19.6 51.1 15.6 15.1-2.9 23.1-4.8 31.6-7.4 11.2-3.5 19.5-7.8 25.1-13.1 3-2.9 6.2-5.4 10-7.8 1.8-1.1 3.7-2.2 5.6-3.3l5.4-3c7.2-4.1 11-6.8 14.1-10.8zm-13.7-.4c-16.4 12.8-38.2 21.8-68.7 25.2-16.1 1.8-25.7-.8-27.1-5.9-1.1-4.4 4.7-9.1 12.4-9.1 6.2 0 11.6-1.7 31.7-9.2 3-1.1 5.3-2 7.6-2.7 9.1-3.2 16-5.2 22.3-6.1 11.5-1.7 19.3-2.1 23.4-1.2 5.1 1.1 4.6 4.1-1.6 9zm-1.8-.6c5.6-4.4 6.1-6.7 2.5-7.5-3.5-.8-11-.3-22 1.3-6 .9-12.8 2.8-21.7 5.9-2.2.8-4.5 1.6-7.5 2.7-20.8 7.7-26 9.4-33 9.4-6.2 0-11.3 4-10.3 7.9 1.2 4.5 9.5 6.8 24.5 5.1 30-3.4 51.4-12.2 67.5-24.8zm265.3-112.2c28.6 5 42.8 5 65.2 0 6.2-1.4 11.3-2.9 22.7-6.8 11.5-3.9 16.6-5.5 23-6.9 8.5-1.9 16.1-2.4 23.2-1.3 8.1 1.3 12.8 12.3 14 28.5 1 14.2-1.1 28.9-5.1 34.2-3.8 4.9-12.1 8.2-23.7 10-8.7 1.3-17.7 1.9-26.7 1.8-11.9 0-18.6 2.4-25.2 7.6-.8.6-3.2 2.6-3.5 2.9-3.6 2.9-6.3 4.3-10.2 4.9-1.9.3-4.3.8-8 1.7l-5 1.2c-2.1.5-3.9.9-5.6 1.3-13.3 3.1-24.2 4.7-35.4 4.7-11.8 0-20.7 2.1-28.9 5.9-2.4 1.1-8.7 4.5-9.6 4.9-5.2 2.4-12.2 4.2-22.4 6.1-2.9.5-12.3 2.1-12.9 2.2l-4.3.8c-1.8.4-3.7.6-5.6.8-11.5 1.1-23-.5-37.1-4.4-2.6-.7-10.6-3.1-11.9-3.4-4.2-1.2-8.5-1.5-18.8-1.9l-3.6-.1c-9.9-.4-15.8-1.1-21.1-3-10.3-3.6-14-7.8-11.7-12.3 2.7-5.4 13.4-11 30.6-17.3 4.4-1.6 8.9-3.1 13.4-4.6-.7.2 8.9-2.9 10.9-3.6 5.6-1.9 9.9-3.9 26.3-12l2.2-1.1c7.2-3.6 12.2-5.9 16.8-7.8 6-2.5 9.7-6 15.5-13l1.3-1.6c5.6-6.9 8.8-10 14.2-12.3 2.9-1.3 13.8-6.5 16.4-7.5 8.5-3 16.8-2.7 40.6 1.4zm-.7 1c-23.2-4-31-4.3-38.4-1.5-2.5.9-13.2 6.1-16.3 7.4-5 2.2-8.2 5.2-13.6 12l-1.3 1.6c-5.8 7.3-9.7 10.8-16 13.4-6.6 2.8-12.9 5.8-18.9 8.9-16.5 8.2-20.8 10.2-26.6 12.2-2 .7-11.7 3.8-11 3.6-5.2 1.7-9.3 3.1-13.3 4.6-16.9 6.1-27.3 11.6-29.9 16.7-2.1 4.2 1.2 7.9 10.9 11.3 4.9 1.7 10.5 2.4 20.1 2.8l3.6.1c10.6.4 15 .8 19.6 2 1.3.4 9.3 2.7 11.9 3.4 13.7 3.8 24.8 5.4 35.7 4.3 1.8-.2 3.5-.4 5.2-.8 1.4-.3 2.9-.5 4.3-.8.6-.1 10-1.7 12.9-2.2 9.9-1.8 16.7-3.6 21.7-5.9.8-.4 7.1-3.8 9.6-4.9 8.6-4 18-6.2 30.4-6.2 10.8 0 21.5-1.6 34.5-4.6 1.7-.4 3.4-.8 5.5-1.3.2-.1 4-1 5-1.2 3.8-.9 6.2-1.5 8.3-1.8 3.3-.5 5.7-1.8 9.1-4.5l3.5-2.9c7-5.5 14.2-8.1 27-8.1 9.2 0 18-.5 26.1-1.8 11.1-1.8 19-4.8 22.5-9.4 3.9-5.1 6-19.8 4.9-33.8-1.2-15.5-5.8-26.5-12.5-27.5-6.6-1-13.6-.5-21.7 1.2-6.2 1.4-11.3 2.9-22.7 6.8-11.5 3.9-16.6 5.5-23 6.9-23.2 5-37.9 5-67.1 0zm29.3 20.5c11.1 0 15.6-.2 20.1-1 2.6-.4 20.5-4.8 30.7-7 3.9-.8 7.3-2.4 13.6-6 5.3-3 6.6-3.8 9.1-4.8 7.6-3.3 14.6-3.3 21.1 1.2 12.9 8.9 11.6 15.9.1 27-1.9 1.8-3.6 3.6-5.2 5.5-.7.8-2.1 2.7-2.2 2.9-.4.4-.7.8-1.1 1.2-1.3 1.1-3.2 2.2-8.4 4.7-5 2.4-10.6 3.3-24.1 4.3-3.7.3-4.5.4-6.2.5-12.4 1.1-19.8 2.7-25.3 6.1-7.4 4.6-16.3 7.5-30.9 10.7-1.1.2-2.3.5-3.7.8l-3.7.8c-5.5 1.1-10.8 2.4-15.9 3.9-5.3 1.6-9.9 2.3-19.4 3.5-17.7 2.1-25.3 3.8-35.8 9.4-10.6 5.6-21 7.6-34.3 6.7-11.1-.8-21.9-3-48.6-9.5-13-3.2-13.3-7.8-3.1-13.6 7-3.9 7.3-4.1 40-16.4 16.8-6.3 26.8-10.6 34.3-14.9 5.2-3 8.7-5.7 10.2-8.3 11.3-18.3 25.8-22 47-15.6 4 1.2 13.6 4.5 14.8 4.9 7 2.2 13.5 3 26.9 3zm0 2c-14.1 0-21.4-.9-29.1-3.3-1.3-.4-10.9-3.7-14.8-4.9-18.7-5.7-30.2-2.7-40.9 14.5-1.8 2.9-5.5 5.8-11 9-7.8 4.4-18 8.8-35 15.2-32.3 12.2-32.7 12.4-39.4 16.2-8.6 4.9-8.4 8 1.8 10.5 26.2 6.3 36.9 8.5 47.3 9.3 11.9.8 21-.9 30.7-6.1 11.2-6 19.5-7.8 37.9-10 9.1-1.1 13.4-1.8 18.2-3.2 5.3-1.5 10.7-2.9 16.4-4l3.7-.8 3.7-.8c14.1-3.1 22.5-5.9 29.4-10.1 6.2-3.9 14.4-5.6 27.8-6.8 1.7-.2 2.5-.2 6.3-.5 12.6-1 17.7-1.8 21.8-3.8 4.9-2.4 6.6-3.3 7.7-4.3.3-.3.6-.6.9-.9.1-.2 1.5-2.1 2.2-2.9 1.3-1.6 3-3.4 5.3-5.6 10.8-10.5 12-16.8.1-25-5-3.4-9-3.5-14.9-.9-2.3 1-3.6 1.7-8.7 4.7-6.7 3.8-10.4 5.6-15.1 6.6-9.9 2.1-28.1 6.5-31 7-5 .7-9.8.9-21.3.9zm-26.2 8.6c11.3 3.9 21.3 3.7 37.6.9 11.1-1.9 12.2-2.1 15.9-2.1 5.2 0 8.7 1.4 10.8 4.5 3.4 5-4.8 8.5-25.4 12.7-5.6 1.1-33.5 6.2-41.3 7.7-16.2 3.2-28.7 6.4-38.9 10.2-26.9 9.8-37.9 11.9-48.9 9.7-2.6-.6-5.1-1.2-7.5-2l-4.1-1.3c-1.5-.5-3.1-.9-4.6-1.4-6.9-2-5.8-4.3 1.8-7.3 2.8-1.1 22-7.6 27.9-9.9 14.6-5.7 24.6-11.5 29.7-18.3 6.3-8.5 10.1-12.1 14-13.4 3.6-1.2 6.9-.5 12.8 1.9 1.3.6 7 3.1 8.5 3.7 3.9 1.5 7.6 3 11.7 4.4zm-1.3.8c-4.1-1.4-7.8-2.9-11.8-4.6-1.5-.6-7.2-3.2-8.5-3.7-5.2-2.2-7.7-2.7-10.3-1.8-3.4 1.1-7.1 4.7-13.2 12.9-5.3 7.1-15.5 13-30.4 18.8-6 2.3-25.2 8.8-27.9 9.9-6.6 2.7-7.3 4.2-2 5.7l4.7 1.4 4.1 1.3c3 .9 5.1 1.5 7.2 1.9 10.1 2.1 20.6.1 46.9-9.6 10.4-3.8 23-7 39.4-10.3 7.8-1.6 35.7-6.6 41.3-7.7 19.6-4 27.1-7.2 24.2-11.4-1.9-2.7-4.6-3.8-8.9-3.8-3.3 0-4.4.2-15.2 2.1-16.9 2.9-27.5 3.1-39.6-1.1z" fill="#cecece"/></svg>