<?xml version="1.0" encoding="utf-8"?>
<!-- Generator: Adobe Illustrator 25.2.2, SVG Export Plug-In . SVG Version: 6.00 Build 0)  -->
<svg version="1.1" id="Layer_1" xmlns="http://www.w3.org/2000/svg" xmlns:xlink="http://www.w3.org/1999/xlink" x="0px" y="0px"
	 viewBox="0 0 600 600" style="enable-background:new 0 0 600 600;" xml:space="preserve">
<style type="text/css">
	.st0{fill:#CECECE;}
</style>
<path class="st0" d="M1238,325.1v-1.2c-13.4,3.8-26.9,7.6-30.3,8.6c-21.9,6.6-38.3,12.6-50.9,19.1c-11.5,6-25.7,10.1-46.3,14.1
	c-3,0.6-6.1,1.2-10,1.9l-9.8,1.8c-20.2,3.8-30.5,6.3-39.2,10.1c-8.7,3.9-19.9,6.6-34.6,8.8c-4,0.6-8.2,1.2-13.3,1.8l-12.7,1.5
	c-10.9,1.4-17.1,2.4-21.7,3.8c-6.4,1.9-13.7,3.3-26.3,5c-3.3,0.5-6.6,0.9-9.9,1.4c-4.2,0.6-7.4,1-10.7,1.5c-7.8,1.1-15.6,2.5-23.1,4
	c-5.6,1.1-11.3,3.9-18.1,8.4c-4.5,3-8.7,6.1-12.7,9.2c-11.9,9.1-15.6,11.7-21.1,14.5c-3,1.5-6.2,2.9-9.5,4.2
	c-4.8,1.9-21.4,7.5-24.4,8.7c-3,1.1-5.6,2.5-7.6,4.1c-2.6,2.3-3.9,4.6-5.7,8.9c-4.5,10.6-7.3,14.8-16.9,22.1
	c-8.4,6.3-14,9.9-20.3,13c-1,0.5-2,1-3.1,1.5l-7.7,3.6c-3.4,1.6-6.6,3.1-10,4.9c-9.4,4.8-16.4,10.6-20.4,16.9
	c-5.2,8.1-5.6,15.5-3.6,27.2c1,5.8,1.1,6.4,1.1,8.2c0,10.5,0.2,17.5,1.3,25.8c0.5,4,1.2,7.8,2,11.2h1.9c-2.3-9.6-3.1-21.8-3.1-37
	c0-1.9-0.1-2.4-1.1-8.3c-1.9-11.6-1.5-18.9,3.6-26.8c3.9-6.2,10.7-11.9,19.9-16.5c3.4-1.8,6.6-3.3,10-4.9c1.3-0.6,6.5-3,7.7-3.6
	c1.1-0.5,2.1-1,3.1-1.5c6.4-3.2,12.1-6.8,20.6-13.1c9.8-7.4,12.7-11.7,17.2-22.4c1.8-4.2,3.1-6.4,5.5-8.6c1.4-1.2,3.7-2.5,7.1-3.9
	c2.8-1.1,19.5-6.8,24.3-8.7c3.5-1.4,6.7-2.8,9.7-4.3c5.6-2.9,9.4-5.5,21.4-14.7c4-3.1,8.2-6.2,12.6-9.1c6.6-4.3,12.2-7,17.3-8.1
	c7.2-1.5,14.6-2.8,22.9-4c5.2-0.8,10.4-1.5,15.7-2.2l4.9-0.7c12.8-1.8,20.2-3.2,26.8-5.1c4.4-1.3,10.5-2.3,21.2-3.6l12.7-1.5
	c5.2-0.6,9.4-1.2,13.5-1.8c14.9-2.3,26.4-5.1,35.4-9c8.4-3.7,18.6-6.2,38.5-9.9l9.8-1.8c3.9-0.7,7-1.3,10-1.9
	c20.8-4.1,35.2-8.3,47-14.4c12.5-6.5,28.8-12.4,50.5-18.9C1212,332.5,1224.9,328.8,1238,325.1l0-64.6c-8.3,8.1-17.6,14.9-26.2,17.9
	c-5.2,1.8-11.1,4-18.7,6.9c-4.3,1.7-8.6,3.3-12.9,5l-2.6,1c-3.3,1.3-6.7,2.6-10,3.9c-15.6,6-26.6,10-36.3,13.2
	c-6.4,2.1-8,2.8-16.6,7.1c-12,6.1-24.2,8.6-60.1,11c-23.3,1.5-41.3,4.9-63.4,11.1c-3.4,0.9-15,4.3-14.4,4.1
	c-5.6,1.6-9.7,2.7-13.7,3.7c-11.6,2.8-21.6,4.2-32.4,4.2c-35.3,0-85.5,11.5-106.5,22.8c-24.9,13.4-64.8,27.7-93.4,31.2
	c-15.3,1.9-24.5,7-29,14.7c-2.6,4.4-3.3,8.3-3.3,13.8c0,0.8,0,1,0.5,3.6c0.9,5.2,0.7,8.7-1.6,13.3c-3.2,6.2-10.1,12.6-21.9,19.4
	c-28.6,16.6-47.2,46.6-47.2,71.7c0,2.4,0,4.3,0.1,8.8c0.2,10.8,0.2,15.8-0.5,22c-1.2,11.2-4.3,20.7-10.3,29.3h-2.2
	c6.1-8.6,9.3-18.1,10.4-29.3c0.6-6.1,0.7-11.1,0.5-21.9c-0.1-4.5-0.1-6.4-0.1-8.8c0-25.3,18.7-55.5,47.7-72.3
	c11.6-6.7,18.3-13,21.4-19c2.2-4.4,2.4-7.9,1.5-12.9c-0.5-2.7-0.5-2.9-0.5-3.7c0-5.6,0.7-9.6,3.3-14.1c4.7-8,14.4-13.4,30.5-15.4
	c28.1-3.4,67.7-17.6,92.3-30.8c21.4-11.5,72.1-23.2,108.1-23.2c10.5,0,20.2-1.3,31.5-4.1c4-1,8-2,13.6-3.6c-0.6,0.2,11-3.2,14.4-4.1
	c22.3-6.2,40.6-9.7,64.2-11.2c35.6-2.3,47.3-4.8,58.9-10.6c8.8-4.4,10.4-5.2,17-7.3c9.7-3.1,20.7-7.1,36.2-13.1
	c3.3-1.3,6.7-2.6,10-3.9l2.6-1c4.3-1.7,8.6-3.3,12.9-5c7.6-2.9,13.5-5.1,18.7-7c9-3.2,18.9-10.6,27.4-19.4L1238,325.1L1238,325.1z
	 M1238,208.9c-1.3,0-2.6,0.1-4,0.1c-12.6,0.6-28.5,3.4-45,7.4c-7.5,1.8-17.5,2.7-29.2,2.7c-9.7,0-20.1-0.5-30.4-1.3
	c-3.5-0.3-6.7-0.6-9.6-0.9c-2.4-0.3-4.9-0.4-7.3-0.6c-11.4-0.5-22.9-0.8-34.4-0.9c-21.5-0.2-35.5,0.7-37.1,2.7
	c-0.8,1,1.2,2.6,6.3,4.9c2.1,1,4.6,2,8.3,3.6c3.3,1.3,6.6,2.7,9.9,4c2.9,1.2,6.4,1.9,11.3,2.5c1.4,0.2,1.8,0.2,5.4,0.5
	c7.3,0.7,10.4,1.2,12.7,2.6c2.9,1.8,2.9,4.5-0.3,8.9c-5,6.8-11.8,10.1-21,10.3c-7.5,0.2-15.7-1.3-30-5.1
	c-9.3-2.5-14.1-7.3-17.2-15.3c-0.4-0.9-0.7-1.8-1-2.9l-0.9-2.8c-2.2-6.6-3.9-9.2-7.7-10.1c-1.7-0.4-3.3-0.7-4.9-1
	c-4.7-0.8-9.5-1-16.7-0.9c-4.7,0.1-30.3,1-28.4,0.9c-42.4,1.4-59.4,5.1-76.5,15c-3,1.8-5.9,3.6-8.8,5.4l-4.7,3.1l-5.2,3.3
	c-8.5,5.4-14.6,8.5-21.4,11.1c-1.3,0.5-2.7,1-4.4,1.6l-8.5,2.9c-3.6,1.3-7.2,2.6-10.6,4c-9.4,3.7-20.1,8.6-33.5,15.4
	c-17,8.6-24.3,13.5-24.1,16c0.1,1.6,3.4,2.1,14,2.4c3.3,0.1,4.4,0.1,6.1,0.2c6.1,0.2,10.5,0.7,14.1,1.7c15.4,4.1,24,7.3,28.8,11.6
	c6.8,6.1,1.7,12.9-18.3,20.3c-17.1,6.3-22.9,10.4-23.3,15c-0.1,1.2,0,1.9,0.5,4.4c1.4,6.5,0.5,10.6-5.8,17.4
	c-2.3,2.6-5.2,5.2-8.6,7.5c-5.8,4-11.3,5.7-21.9,7.7c-0.9,0.2-6.9,1.2-8.8,1.6c-3.7,0.7-7,1.4-10.3,2.1c-8.6,2-17.3,4.6-27,8.2
	c-17.4,6.5-27.3,14.6-33,25.1c-2.3,4.2-3.2,6.8-5.8,15.2c-2.6,8.6-4.5,12.6-8.4,16.5c-4.3,4.3-24.6,26.6-26.8,28.9
	c-4.2,4.5-8.6,9-13.1,13.4c-8.4,8.1-15.7,14.1-22.1,17.8c-11.1,6.5-18.5,14.4-28.4,28.4c-1.3,1.9-2.6,3.7-3.9,5.6
	c-3.7,5.3-6.1,8.6-8.8,11.8c-12.6,15.3-52.5,26.3-95.9,26.3c-23.1,0-42.5-2.7-64-8.5c-11.6-3.1-9.4-2.4-45.9-14.5
	c-29.6-9.8-36.5-10.7-42.2-6.9c-0.8,0.5-3.7,2.7-3.8,2.8c-3.1,2.1-6.5,4.1-10.2,5.9c-1.5,0.8-11.4,5.9-14.4,7.5
	c-4.9,2.6-8.9,4.8-12.3,6.9c-4,2.4-7.5,4.9-10.5,7.7c-2.7,2.6-3.9,5.2-5.5,10.6c-0.3,1.1-0.6,2.1-0.9,3.2h-2.1l1-3.3
	c1.6-5.5,2.9-8.2,5.7-10.9c3-2.8,6.6-5.4,10.7-7.8c3.5-2.1,7.5-4.4,12.4-7c3-1.6,12.9-6.7,14.4-7.5c3.6-1.8,7-3.7,10-5.8
	c0,0,3-2.3,3.8-2.8c6.7-4.5,14.6-3.4,45.1,6.7c36.5,12.1,34.3,11.4,45.8,14.5c21.3,5.7,40.2,8.4,63,8.4c42.6,0,81.6-10.8,94-25.7
	c3.1-3.9,6.1-7.8,8.7-11.8c1.3-1.9,2.6-3.7,3.9-5.6c10-14.2,17.5-22.1,28.8-28.7c6.3-3.7,13.5-9.6,21.9-17.6
	c4.1-3.9,8.3-8.3,13.1-13.4c2.1-2.3,22.4-24.6,26.8-28.9c3.8-3.8,5.7-7.8,8.3-16.2c2.6-8.4,3.5-11.1,5.8-15.3
	c5.8-10.7,15.9-18.9,33.7-25.6c8.5-3.3,17.7-6.1,27.4-8.4c3.4-0.8,6.7-1.5,10.5-2.2c1.9-0.4,8-1.4,8.8-1.6
	c10.2-1.9,15.4-3.5,20.9-7.3c2.8-1.9,5.5-4.3,8.4-7.4c6.1-6.6,7-10.6,5.6-16.9c-0.5-1.5-0.6-3-0.6-4.6c0.5-4.9,6.6-9.2,24.1-15.7
	c19.3-7.1,24.1-13.3,17.8-19c-4.5-4.1-12.9-7.1-28-11.2c-3.2-0.9-7.4-1.3-13.2-1.6c-1.7-0.1-2.8-0.1-6.1-0.2
	c-11.9-0.3-15.7-0.9-15.9-3.3c-0.2-2.8,7.2-7.9,24.7-16.7c13.5-6.8,24.2-11.7,33.7-15.5c3.7-1.5,7.1-2.7,10.7-4l8.5-2.9
	c1.6-0.6,3-1.1,4.3-1.6c6.7-2.6,12.7-5.6,21.1-10.9c1.7-1.1,3.5-2.2,5.2-3.3l4.8-3.1c3.7-2.4,6.3-4,8.9-5.5
	c17.5-10.2,35-14,76.9-15.3c-0.9,0,24.8-0.9,29.5-1c7.5-0.1,12.5,0.2,17.5,1c1.7,0.3,3.3,0.6,5.1,1c4.7,1.1,6.5,3.9,8.8,10.9
	l0.9,2.8c0.4,1.1,0.7,2,1,2.8c3,7.7,7.5,12.3,16.1,14.6c13.9,3.7,21.9,5.1,28.9,4.9c8.3-0.2,14.4-3.2,19.2-9.7c3-4,3-6.5,0.7-7.9
	c-1.9-1.1-4.7-1.6-11.5-2.3c-1.8-0.2-3.7-0.3-5.5-0.6c-5.2-0.6-9.1-1.4-12.2-2.7c-3.3-1.4-6.5-2.7-9.9-4c-2.9-1.2-5.7-2.4-8.4-3.6
	c-5.6-2.6-8-4.4-6.8-5.9c2.1-2.6,16.1-3.5,39.1-3.4c11.5,0.1,23,0.4,34.5,0.9c5.7,0.4,6.6,0.5,7.6,0.6c2.9,0.3,6.1,0.6,9.5,0.9
	c9.9,0.9,20,1.3,30,1.3c11.5,0,21.1-0.9,28.3-2.6c16.7-4.1,32.8-6.9,45.7-7.6c1.4-0.1,2.9-0.1,4.2-0.1L1238,208.9L1238,208.9z
	 M1238,107.9v1.5c-17.8,16.1-35.6,29.6-48.8,35.9c-6.6,3.2-15.7,4.9-27.9,5.6c-9.2,0.5-17.1,0.4-39.6-0.2
	c-20.4-0.6-31.6-0.4-42.3,0.8c-10.2,1.2-20.5,1.9-31,2.1l-4.6,0.1c-25.8,0.8-40,1.8-67.5,5.7c-9.3,1.3-19.1,2.5-29.5,3.5
	c-22.2,2-44.7,3.4-67.3,4c-15.6,0.4-27.3,0.6-41.8,0.6c-11.1,0-24.6,1.6-37.1,5.2c-17.1,4.9-31.1,12.9-40.3,24.5
	c-2.6,3.4-5.7,6.7-9.4,9.8c-7.4,6.2-14.3,9-27.6,12.2l-8.3,2c-11.4,2.7-21.9,6.1-31.3,10.2c-16.9,7.3-28.3,16.6-46.5,35.6l-4.3,4.5
	c-15.1,15.7-23.7,23.3-35.8,29.9c-15.9,8.7-41.8,14.4-83.2,20.1c-9,1.2-39.3,5.1-39.7,5.1c-14.3,1.9-24.1,3.3-32.2,4.9
	c-21.8,4.2-38.6,10.5-75.1,26.5l-3.5,1.5c-17.7,7.8-27.7,11.9-38.8,15.9c-8.2,2.9-16.5,5.7-26.8,8.9c-4.3,1.3-21.3,6.6-25.4,7.9
	c-23.8,7.5-38.2,13-50.8,20.1c-5,2.8-9.4,5.7-13.3,8.9c-8.5,6.9-12.9,13.1-19,25.1l-3.2,6.3c-1.2,2.5-2.4,4.5-3.5,6.6
	c-6.1,10.7-14.2,17.4-30.5,26.9l-8.5,5c-3,1.7-5.8,3.5-8.6,5.3c-3,1.9-5.4,4-7.1,6.3c-2.4,3.2-3.1,5.9-3.9,11.9
	c-1.2,10-2.9,15-9.6,22.7c-3.2,3.7-11.7,14-13.2,15.8c-2.2,2.5-4.6,5-7.4,7.4c-5.9,5.1-13.8,10.1-27.1,17
	c-12.3,6.4-18.3,10.9-21.9,16c-1.1,1.6-2,3.2-2.8,4.8l-0.9,1.8H39l1.1-2.1c1.1-2.1,1.9-3.5,2.9-4.9c3.7-5.2,9.9-9.9,22.4-16.4
	c13.1-6.8,20.9-11.7,26.8-16.8c2.7-2.4,5.1-4.8,7.3-7.3c1.5-1.8,10-12.1,13.2-15.8c6.5-7.5,8.2-12.4,9.4-22.3
	c0.7-6.1,1.5-8.9,4-12.2c1.8-2.3,4.3-4.6,7.4-6.5c2.6-1.7,5.4-3.4,8.7-5.3l8.5-5c16.1-9.5,24.1-16,30.1-26.5c1.2-2,2.3-4.1,3.5-6.6
	l3.2-6.3c6.1-12,10.6-18.4,19.2-25.4c3.8-3.1,8.3-6,13.5-9c12.7-7.1,27.3-12.7,51.2-20.3c4.2-1.3,21.2-6.6,25.4-7.9
	c10.2-3.2,18.6-6,26.7-8.9c11.1-4,21-8.1,38.7-15.8l3.5-1.5c36.6-16.1,53.6-22.4,75.7-26.7c8.3-1.6,18.2-3.1,32.5-5
	c0.4-0.1,30.7-3.9,39.7-5.1c41.1-5.6,66.7-11.3,82.2-19.8c11.9-6.5,20.5-14,35.4-29.6l4.3-4.5c18.3-19.1,29.8-28.5,47-35.9
	c9.5-4.2,20.2-7.7,31.7-10.4l8.3-2c13-3.1,19.5-5.8,26.7-11.8c3.6-3.1,6.7-6.3,9.2-9.7c9.4-11.8,23.7-20,41.2-25
	c12.9-3.7,26.7-5.3,38.2-5.3c14.5,0,26.1-0.1,41.6-0.6c22.5-0.6,44.9-1.9,67-4c10.3-1,20.1-2.1,29.3-3.4c27.7-4,42.1-5,68-5.8
	l4.6-0.1c11.9-0.4,20.2-0.9,30.6-2.1c11-1.2,22.3-1.4,46.6-0.7c18.7,0.5,26.5,0.6,35.5,0.1c11.8-0.6,20.5-2.3,26.7-5.3
	C1201.1,138.2,1219.4,124.3,1238,107.9L1238,107.9z M1238,558.1c-2.6-4.6-4.5-10.5-6.9-20.2l-0.5-2l-0.5-2
	c-3.8-15.7-6.3-22-11.5-24.5c-5.1-2.5-6.3-5-5.2-8.6c0.2-0.6,0.4-1.1,0.8-2.1c1.4-3.5,1.6-5,0.2-6.8c-1.9-2.4-6.8-4.4-16.1-6.3
	c-10.5-2.1-13.5-4.8-10.1-8.4c1.4-1.5,3.7-3,7.3-5c2.1-1.2,11.3-6,10.5-5.5c12.7-6.7,18.5-11.3,18.5-16.5c-0.3-5.1,4.7-10,13.4-12.9
	v1.3c-7.4,2.8-11.6,7.1-11.3,11.6c0,5.5-6,10.3-19.1,17.2c0.8-0.4-8.3,4.3-10.5,5.5c-3.4,1.9-5.7,3.4-6.9,4.8c-2.8,3-0.5,5.2,9,7.1
	c9.7,2,15.1,4.2,17.2,6.8c1.6,2,1.4,3.7-0.1,7.4c-0.4,1-0.6,1.5-0.8,2.1c-1,3.3,0.1,5.6,4.6,7.8c5.7,2.7,8.2,9,12,25.1l0.5,2l0.5,2
	c1.7,7,3.2,12.1,4.8,16L1238,558.1L1238,558.1z M1238,496c-2.9-3.1-9.1-9.9-10.2-11.2c-2.1-2.5-2.6-3.8-1.9-5.2
	c0.4-0.8,4.2-4.7,4.8-5.3c3.1-3.6,5.5-7.4,7.3-11.2v4c-1.5,2.6-3.3,5.1-5.4,7.6c-0.6,0.8-4.3,4.5-4.7,5.2c-0.6,1.1-0.2,2.2,1.8,4.6
	c0.8,1,5.2,5.7,8.3,9.1V496z M1238,410.9c-3.4,1.7-7.6,2.9-13.2,4.1c-0.5,0.1-28.8,5.5-42.1,8.4c-19.3,4.3-34.5,5.9-47.5,5.2
	c-10.5-0.5-18.6-2.2-30.5-5.9l-6.6-2.1c-3.6-1.2-7.4-2.3-11.2-3.3c-8.4-2.2-6.7-5.8,3-10.5c7.7-3.7,19.8-7.9,38.6-13.8l9.2-2.8
	c37-11.3,37.6-11.5,46-14.7c23.2-9,40.6-14,54.3-15.1v1c-13.1,1.1-30.2,6-53,14.9c-8.5,3.3-9,3.4-46.1,14.8
	c-3.1,0.9-6.1,1.9-9.2,2.8c-18.7,5.8-30.8,10-38.3,13.7c-8.9,4.3-10.2,7.1-3.5,8.9c3.5,0.9,6.8,1.9,11.3,3.3l6.6,2.1
	c11.6,3.6,19.5,5.2,29.6,5.8c12.6,0.6,27.5-0.9,46.5-5.1c13.3-3,41.6-8.4,42.1-8.4c6.3-1.4,10.5-2.7,14.1-4.7L1238,410.9L1238,410.9
	z M1238,369.5v1c-13.5,0.3-25,3.1-40.7,9.1l-9.6,3.7c-2.9,1.1-5.9,2.2-9.1,3.1c-1.7,0.5-11.4,3.3-12.8,3.8c-6.8,2-12.7,3.8-18.3,5.6
	c-5.8,1.9-11.4,3.8-16.8,5.9c-9.5,3.7-15.3,6.9-16.4,9.4c-1.3,2.7,3.1,4.5,14.5,5.5c22.1,1.8,43.2,0,62.8-4.6
	c13.1-3.1,25-7.2,35.3-12.2c4.2-2.3,7.9-4.8,11.1-7.4v1.9c-2.8,2.2-6,4.3-9.6,6.2c-10.4,5.1-22.5,9.3-35.9,12.4
	c-20,4.7-41.5,6.5-64.1,4.7c-12.5-1-17.8-3.3-16.2-6.7c1.3-2.7,7.3-6,17.1-9.9c4.8-1.9,10.5-3.9,17-6c5.6-1.8,11.5-3.6,18.4-5.6
	c1.5-0.4,11.1-3.2,12.8-3.8c2.6-0.8,5.4-1.8,8.9-3.1c1.7-0.6,8-3.1,9.6-3.7C1212.1,372.7,1223.9,369.8,1238,369.5L1238,369.5z
	 M1238,214.9v1c-3.6-0.2-8.9,0.2-16.1,1.6c-20.7,3.8-28.5,5.1-39.5,6.8c-3.7,0.6-5.4,0.8-8,1.2c-3.1,0.5-6.5,0.8-13.9,1.2
	c-1.8,0.1-3.6,0.2-5.4,0.3c-16.1,0.9-23.3,2.5-23.3,6.1c0,4.4,6,13.2,16.4,25.8c2,2.5,3.6,5,4.8,7.6c0.6,1.2,1.2,2.3,1.7,3.5
	c3.8,7.6,6.5,10.7,11.5,11.7c4.6,0.9,9.7,0.6,15.4-0.7c7.2-1.7,14.9-4.9,23.1-9.5c3.1-1.7,6.1-3.5,9.5-5.6l6.5-4.1
	c5.3-3.2,12.5-12.2,17.3-20.2v3.4c-4.7,7.2-10.9,14.5-15.7,17.4c-0.9,0.5-5.5,3.5-6.5,4.1c-3.4,2.1-6.4,3.9-9.5,5.6
	c-8.4,4.6-16.3,7.9-23.8,9.7c-6.2,1.4-11.9,1.8-17.1,0.7c-5.9-1.1-8.7-4.3-12.7-12.4c-0.6-1.2-1.2-2.3-1.7-3.5
	c-1.7-3.2-3-5.5-4.7-7.5c-10.6-12.8-16.6-21.6-16.6-26.2c0-4.4,7.9-6.1,25.1-7.1c1.8-0.1,3.6-0.2,5.5-0.3c7.2-0.4,10.6-0.6,13.5-1.1
	c2.6-0.4,4.3-0.7,8-1.3c11-1.7,18.8-3,39.4-6.7C1228.4,215.2,1234,214.7,1238,214.9L1238,214.9z M0,292
	c20.9-11.3,37.4-23.2,47.6-35.4c6.8-8.1,12.6-16.1,22.3-30.6l3.3-4.8c13.5-19.9,20.9-29.8,30.5-39.6c12.5-12.7,25.9-21.2,41.8-25.5
	c13.7-3.8,21-7.9,25.2-13.1c1.6-2.1,2.9-4.3,3.8-6.6c2.5-5.2,4.2-7.6,8.1-10.4c5.1-3.6,12.9-6.5,25-9c32.6-6.6,34.5-7,37.2-9
	c1.3-1,1.7-2.2,1.5-4.5c-0.1-0.7-0.5-3.8-0.5-4c-0.2-1.8-0.3-3.7-0.4-5.5c0-10,0.4-11.4,4.9-13.2c1.1-0.4,2.3-0.8,4.3-1.3
	c0.6-0.1,4.5-1.1,5.9-1.5c6.6-1.7,12.9-3.7,18.8-5.9c4.3-1.5,5.4-2.1,16.5-7.9c7.8-4.1,12.8-6.4,18.5-8.1c7.5-2.3,14.9-3.1,22.5-2.1
	c9.1,1.2,22.3,2,38.7,2.5c14.2,0.4,26.6,0.5,45.3,0.5c10,0,18.5,0.5,31.8,1.6c16,1.3,19.2,1.5,25.5,1.5c8.4,0,15.3-0.9,22-3
	c10.4-3.2,16.7-4.7,23.1-5.2c7.5-0.6,9.8-0.5,34.1,2.1c35.6,3.7,63.7,1.4,84.7-9.7c10.5-5.5,11.3-8.9,7.2-14.8
	c-1.7-2.4-2.1-3.1-2.4-4.3c-0.6-2.5,1-4.7,5.6-6.9c5.5-2.6,9.7-9.2,12.8-18.3h4.2c-3.2,9.7-7.8,16.6-14.1,19.7
	c-3.7,1.8-4.9,3.4-4.4,5.3c0.2,1,0.6,1.6,2.2,3.9c4.6,6.5,3.6,10.7-8,16.8c-22.2,11.7-51.7,14.1-88.6,10.3
	c-23.6-2.5-25.9-2.6-32.6-2.1c-5.7,0.5-11.6,1.8-21.6,4.9c-7.2,2.2-15.7,3.4-24.3,3.3c-6.7,0-9.9-0.2-26.3-1.6
	c-13-1.1-21.3-1.5-31.1-1.5c-18.8,0-31.2-0.1-45.5-0.5c-16.7-0.5-30.2-1.3-39.6-2.5c-11.6-1.5-21,1.4-36.8,9.7
	c-11.3,5.9-12.5,6.5-17.1,8.2c-6.1,2.3-12.6,4.3-19.4,6c-1.4,0.4-5.3,1.3-5.9,1.5c-1.7,0.4-2.8,0.8-3.6,1.1c-3,1.2-3.4,2.4-3.4,11.6
	c0,1.8,0.1,3.5,0.4,5.4c0,0.2,0.4,3.3,0.5,4c0.2,2.8-0.3,4.3-2.2,5.7c-3.4,2.5-4.7,2.8-39.1,9.7c-11.3,2.3-18.5,5-23.1,8.2
	c-3.5,2.5-5.1,4.7-7.5,9.7c-1.7,3.5-2.5,4.9-4,6.8c-4.5,5.7-12.5,10.2-27,14.2c-15.1,4.1-28,12.3-40.2,24.7
	c-9.5,9.6-16.9,19.5-30.3,39.3l-3.3,4.8c-9.8,14.5-15.6,22.5-22.4,30.7C40.5,270.4,22.7,283,0,295L0,292L0,292z M0,370v-0.5l2.1,0
	c13,0,15.4,5.2,9.5,13.4c-3,4-6.9,7.7-11.6,11.3v-1.9c3.8-3.1,7-6.3,9.6-9.7c5.6-7.6,3.5-12-7.5-12c-0.7,0-1.4,0-2.1,0v-46.6
	c9.6-2.7,19-5.5,28.3-8.3c28.2-9.5,61.5-37.6,61.5-53.6c0-18.1,44.5-72.6,66.5-79.4c26.2-8.1,66.5-28,73.9-37.8
	c4-5.3,11.3-7.3,29.8-9.4c12.7-1.4,17.8-2.4,22-4.8c3.1-1.7,5.6-4.8,8.9-10.3c0.5-0.8,3.9-6.7,5-8.5c7.5-12.1,15.1-18.5,27.8-20.4
	c5.2-0.8,6.3-1,20.1-3.7c15.5-3,24.7-4.4,35.3-4.9c13.9-0.7,27.1,0.8,40.3,4.7c11.2,3.3,25.2,4.7,41.6,4.6
	c12.4-0.1,25.2-1.1,40.9-2.8c3.8-0.4,15.2-1.7,17-1.9c5.6-0.6,9-0.9,11.3-0.9c10.3,0,18.4-0.1,29.3-0.3c16.3-0.3,32.1-0.9,46.9-1.9
	c17.5-1.1,32.8-2.7,45.1-4.8c39-6.6,67.3-18.3,69.5-27.6c0.6-2.6,0.8-3,5.8-11.1c4.8-8,6.6-12.9,5.6-18.2c-0.4-2.2-1.4-4.4-3.1-6.4
	c-3.1-3.9-5.4-9.4-7.1-16.2h1.9c1.6,6.5,3.9,11.7,7.2,15.8c1.7,2.1,2.8,4.4,3.2,6.7c1,5.5-0.8,10.5-5.7,18.6
	c-4.9,8.1-5.1,8.5-5.7,11c-2.2,9.8-31.2,21.7-70.8,28.4c-12.5,2.1-27.9,3.7-45.6,4.9c-14.9,1-30.8,1.6-47.1,1.9
	c-10.9,0.2-19.1,0.3-29.4,0.3c-2.1,0-5.4,0.3-10.9,0.9c-1.8,0.2-13.3,1.5-17,1.9c-15.8,1.7-28.7,2.7-41.3,2.8
	c-16.8,0.2-31.2-1.3-42.7-4.7c-12.9-3.8-25.6-5.2-39.1-4.5c-10.4,0.5-19.5,1.9-34.7,4.9c-13.9,2.7-15,2.9-20.3,3.7
	c-11.8,1.8-19.1,8-26.4,19.7c-1.1,1.8-4.5,7.7-5,8.5c-3.4,5.7-6,8.8-9.3,10.7c-4.6,2.6-10,3.6-24.8,5.3c-16.1,1.8-23,3.7-26.6,8.5
	c-7.5,10-48.1,30.1-74.7,38.2c-21.3,6.6-65.6,60.8-65.6,78.6c0,16.3-33.6,44.8-62.4,54.4c-4.4,1.5-17,5.1-29.5,8.7v-1.2L0,370L0,370
	z M0,196.3v-1.1c15.3-3.8,30-10.2,45.1-19c7.8-4.6,29.3-18.8,32.6-20.6c3.7-2,8.4-4,15.3-6.4c2.2-0.8,10.2-3.6,11.3-4
	c19.3-6.9,28.9-12,33-19.4c1.7-3,3.2-6.8,5.1-12.3c0.5-1.4,4.1-12.5,5.3-15.8c5.9-16.8,11.8-26.8,20.8-32.1
	c22.4-13.2,41-27.5,41-32.7c0-2.5,0.7-3.4,12.5-15.7c1.4-1.5,2.6-2.7,3.7-3.9c5.2-5.8,8-10,8.5-13.4h2.1c-0.5,3.5-3.4,7.9-8.7,13.8
	c-1.1,1.2-2.2,2.4-3.7,3.9c-11.4,12-12.3,13-12.3,15.3c0,5.5-18.8,19.8-41.5,33.3c-8.7,5.1-14.5,15.1-20.3,31.6
	c-1.2,3.3-4.8,14.3-5.3,15.8c-1.9,5.6-3.4,9.4-5.1,12.4c-4.2,7.7-14.1,12.9-33.7,19.9l-11.3,4c-6.8,2.4-11.4,4.3-15,6.3
	c-3.2,1.7-24.6,15.9-32.5,20.5C31.1,185.9,15.9,192.5,0,196.3L0,196.3z M0,558.1v-4.3c1,2.4,2.1,4.3,3.3,6.2c4.1,6,9.5,8.3,16.9,6.6
	c39.1-8.9,69.6-24.1,69.6-39.5c0-16.2,13.1-32,35.3-46.3c3.9-2.5,7.6-4.4,11.4-6c1.5-0.6,3-1.2,4.7-1.8l4.1-1.4
	c7.6-2.7,11-5.3,14.6-12.6c1.5-3.1,2.8-5,8.7-13.3l1.3-1.9c6.7-9.6,9.4-15,8.6-18.6c-1-4.4-7.8-5.2-23.3-1.6
	c-6.1,1.4-12.4,2.7-18.9,3.7c-28.7,4.7-55.6,5.8-88,5.4l-4,0l-3,0c-10.6,0-21.2,1-31.1,3c-3.7,0.7-7.1,1.7-10.2,2.9v-1.3
	c2.9-1,6.1-1.9,9.4-2.6c11.1-2.2,23-3.2,34.9-3l4,0c32.2,0.4,58.9-0.8,87.3-5.4c6.4-1,12.6-2.3,18.7-3.6c16.6-3.8,25.1-2.9,26.2,2.4
	c0.9,3.9-1.9,9.3-8.7,19.1l-1.3,1.9c-5.8,8.2-7.1,10.1-8.6,13.2c-3.8,7.5-7.4,10.3-15.4,13.2l-4.1,1.4c-1.7,0.6-3.2,1.1-4.6,1.8
	c-4.1,1.7-7.8,3.7-11.1,5.8C104.8,495.4,91.8,511,91.8,527c0,15.9-31,31.5-70.8,40.5c-8.9,2-15.2-0.7-19.7-7.2
	C0.9,559.6,0.4,558.9,0,558.1L0,558.1z M0,496v-2.5l3,3.3c4.3,4.8,7.1,10.3,8.8,16.8c1.4,5.3,1.7,9.3,2.1,18.5
	c0.4,9.3,1,12.8,3.4,15c2.6,2.6,7.6,2.3,17.1-1.5c35.4-14.3,45-22.9,45-38.6c0-7.2,2.3-12.4,7.6-17.7c4.7-4.7,7.5-6.6,27.6-19.6
	c4.7-3.1,10-6.1,15.7-8.8c2.3-1.1,4.8-2.1,7.3-3.1c0.8-0.3,1.3-0.5,1.8-0.7c2.3-0.9,4.1-2,5.4-3.3c1.9-1.9,3.5-3.9,4.7-5.9l0.8-1.2
	l0.7-1.1c0.6-0.9,1-1.5,1.4-2.2c0.9-1.5,1.5-2.7,1.9-3.7c0.8-2.2,0.2-3.5-1.8-4.1c-4.8-1.6-19.1-0.2-49.1,4.9
	c-19.7,3.4-33.3,4.2-57.5,4.3c-15.9,0.1-21.5,0.4-27.3,2.1c-7.2,2.1-12,6.4-15.6,14.3c-1,2.2-2,4.2-3.1,6v-4l1.1-2.2
	c3.7-8.1,8.8-12.6,16.6-14.9c6.3-1.9,12.1-2.2,28.4-2.3c24-0.1,37.3-0.8,56.8-4.2c30.8-5.3,45.3-6.7,51-4.8c2.8,0.9,3.5,2.6,2.6,5.1
	c-0.5,1.3-1.1,2.5-1.9,3.8l-1.4,2.2l-0.7,1.1l-0.8,1.2c-1.2,2.1-2.8,4.1-4.8,6.1c-1.7,1.5-3.3,2.5-5.9,3.6l-1.9,0.8l-2.1,0.8
	c-1.9,0.7-3.4,1.4-5.1,2.2c-5.6,2.7-10.8,5.6-15.4,8.7c-20,12.9-22.8,14.9-27.5,19.5c-5.2,5.1-7.4,10.2-7.4,17.2
	c0,16-9.9,24.9-45.8,39.4c-10.4,4.2-16.9,4.5-20.3,1.2c-2.5-2.5-3.1-5.9-3.6-15.5c-0.4-9.2-0.8-13.2-2.1-18.4
	c-1.6-6.3-4.4-11.8-8.6-16.5L0,496L0,496z M782.6,0h2.1l3.1,5.3c6.8,11.6,10.1,19.3,10.9,27.8c1,11-3.1,21.3-13.7,31.2
	c-16.1,15.1-42.2,26.5-74.7,34.1c-25.5,6-53.9,9.2-74.7,9.2c-14.1,0-35.6,1.4-76.9,4.6l-4.7,0.4c-50.6,4-65.3,5-77.3,5
	c-7.2,0-8.4-0.1-40.3-2.8c-7.3-0.6-13-1.1-18.6-1.5c-41.7-3-64-1.2-65.9,7.9c-0.2,0.8-0.4,1.7-0.6,2.8l-0.6,2.7
	c-2.3,10.9-4.2,15.7-8.9,20c-6,5.3-16,7.9-32.2,7.9c-21,0-26.7,0.6-32,3.2c1.1-0.5-10.4,5.9-16.8,8.7c-5.7,2.5-29.5,12.6-32.5,13.8
	c-4.6,1.9-9,3.9-13.5,5.9c-14.4,6.5-24.4,11.8-30.1,16.1c-12.2,9.3-21.6,18-24.1,24.1c-3.4,8.3,7.6,9.5,39.2,1.2
	c30-7.9,60.7-15.2,91.9-21.9c7.2-1.6,29-6.2,32.4-6.9c10.4-2.2,17.1-3.8,22.2-5.1l4-1.1l4.5-1.2c3.6-0.9,7-1.8,10.3-2.6
	c37.3-8.7,71.1-10.5,103.8-1.2c47.2,13.3,79,37,79,56.4c0,19.1-1.5,25.1-10.7,33.2c-2.9,2.5-6.3,4.9-10.2,7.1
	c-13.3,7.8-24.4,16.2-26.3,21.3c-2.5,6.3,9.7,7,41.6,0c27.5-6.1,46.2-15,58.8-26.3c5.2-4.8,9.5-9.9,12.6-15.1c1.9-3,6.5-11.6,7-12.5
	c0.9-1.7,2.1-3.3,3.6-4.8c15.4-14.9,43.5-30.5,74.8-37.2c15.7-3.4,26.8-9.6,40-20.8c1.7-1.5,8.8-7.6,10.6-9.2
	c7.3-6.1,12.8-9.7,19.3-12c20.9-7.4,59.2-11.1,103.8-11.1c15.5,0,34.1-1.2,56.8-3.6c10.3-1.1,20.6-2.3,30.9-3.5
	c-2.7,0.3,32.1-4,40.1-4.9c29.2-3.3,84.7-5,132.3-5c35.8,0,57.4-9.2,79.5-38.7c13.7-18.2,13.7-26.4,5.6-34.3l-2.4-2.4
	c-2-1.9-3.1-4-3.2-6.1c0-4,0-4,5.2-24.6c0.9-3.7,1.7-6.7,2.3-9.6c1.9-8.4,2.8-15.2,2.8-20.8c0-0.9,0-1.9-0.1-3h2.1
	c0.1,1.1,0.1,2.1,0.1,3c0,5.6-1,12.4-2.9,20.9c-0.6,2.9-1.4,5.9-2.3,9.7c-5.2,20.5-5.2,20.5-5.2,24.4c0,2,0.9,3.6,3,5.7
	c0.5,0.5,2.4,2.3,2.4,2.4c8.4,8.2,8.4,16.7-5.5,35.1c-22.4,29.8-44.6,39.3-81.4,39.3c-47.4,0-102.8,1.7-131.8,5
	c-8,0.9-42.7,5.2-40,4.9c-10.3,1.3-20.6,2.4-30.9,3.5c-22.8,2.4-41.5,3.6-57.2,3.6c-44.2,0-82,3.7-102.5,10.9
	c-6.2,2.2-11.6,5.7-18.8,11.7c-1.8,1.5-8.9,7.7-10.6,9.2c-13.4,11.3-24.8,17.7-41,21.2c-30.7,6.6-58.6,22-73.8,36.8
	c-1.4,1.5-2.6,3.1-3.5,4.7c-0.5,0.8-5.2,9.5-7,12.5c-3.2,5.3-7.5,10.4-12.8,15.3c-12.8,11.6-31.9,20.6-59.8,26.8
	c-33.2,7.4-47.5,6.5-44.5-1c2.1-5.3,13.2-13.8,26.8-21.7c3.8-2.2,7.1-4.5,9.9-7c9-7.9,10.4-13.8,10.4-32.7c0-19-31.3-42.4-77.8-55.6
	c-32.1-9.1-65.2-7.4-102,1.2c-5,1.2-9.9,2.4-14.7,3.7l-4,1.1c-7.3,1.9-14.8,3.6-22.4,5.2c-3.4,0.7-25.1,5.4-32.4,6.9
	c-31.2,6.7-61.8,14-91.7,21.9c-32.9,8.7-46.2,7.2-42.3-2.3c2.6-6.2,12-15,24.4-24.4c5.9-4.5,16-9.8,30.5-16.3
	c4.1-1.9,8.5-3.8,13.5-5.9c3-1.3,26.9-11.3,32.5-13.8c6.4-2.8,17.7-9.1,16.8-8.7c5.8-2.8,11.9-3.5,33.4-3.5
	c15.5,0,24.8-2.4,30.4-7.4c4.5-4.1,6.4-8.8,8.7-19.6l0.5-2.7l0.6-2.8c1.2-5.4,9.2-8.5,23.2-9.6c11.2-0.9,25.8-0.5,45.1,0.9
	c5.6,0.4,11.3,0.9,18.7,1.5c31.6,2.7,32.9,2.8,39.9,2.8c11.8,0,26.6-1,77-5l4.7-0.4c41.5-3.3,63-4.6,77.2-4.6
	c20.5,0,48.6-3.2,73.8-9.1c32.1-7.5,58-18.7,73.8-33.7c10.4-9.8,14.4-19.8,13.4-30.7c-0.8-8.4-4-16.1-10.8-27.6L782.6,0z M810.8,0
	h2.1c1.6,3.9,4,8.7,7.2,14.9c7.5,14.1,6.3,27-1.5,38.8c-5,7.6-12.9,14.6-23.4,20.7c-12,6.9-25.3,13.2-39.9,18.8
	c-23.4,9-48.2,15.5-74.2,18.4c-15.4,1.7-30.9,3-46.6,4.1c-6.5,0.4-13.1,0.8-21.3,1.3l-19.4,1.1c-23.8,1.4-36,2.6-44.7,4.5
	c-19.1,4.2-58.5,6-101.5,6c-2.8,0-5.8-0.1-8.9-0.4c-5.4-0.4-10.3-1-18.9-2.3c-15.1-2.2-19.9-2.8-26.1-2.6c-8,0.2-13.7,2.3-17.5,6.9
	c-3.8,4.7-5,7.5-6.9,15c-2.3,9-5.9,12.1-20.6,14.3c-4.8,0.7-9.5,1.6-14,2.7c-1.3,0.3-2.4,0.6-3.6,1l-2.8,0.9
	c-3.9,1.1-8,1.5-19.1,1.5c-6.6,0-18.2-0.6-19.6-0.4c-2.5,0.3-1.5-0.1-14.7,6.2c-3.1,1.5-7.2,3.2-13,5.4c-3.1,1.2-14.8,5.4-16.4,6
	c-10.2,3.8-17.2,6.6-22.8,9.4c-10.1,5-14.1,9.1-11.5,12.7c2.8,3.7,8.4,4.4,18.4,2.8c5.5-1,10.9-2.1,16-3.5c3.1-0.8,16.1-4.1,19.3-5
	c8.2-2.1,16.7-4,25.4-5.7c7.7-1.5,15.3-3.1,22.8-4.8c4.2-1,22.2-5.2,26.8-6.2c9.1-2.1,16.7-3.8,24-5.3c35.4-7.3,60.5-9.9,77.7-6.6
	l11.2,2.1c4.7,0.9,8.6,1.6,12.4,2.4c9.2,1.8,18.2,3.8,27,6c37.8,9.6,62.6,22.1,71.8,39.9c14.4,27.9,7.4,45.5-16.7,62.4
	c-8.2,5.8-7.3,9.2,0.1,9c8.5-0.3,21.1-5,31.2-12.5c6.4-4.8,10.5-10.5,16.6-21.5l3.5-6.4c1.4-2.5,2.6-4.5,3.8-6.5
	c10.2-16.6,22.7-27.3,44.5-34.8c14.8-5.1,49-15.5,52.6-16.8c13.9-4.8,21.7-9.4,29.6-18c16-17.4,43.5-24.3,91.8-24.3
	c19.3,0,37-1.1,60.9-3.5c4.3-0.4,8.5-0.8,12.8-1.3c5-0.5,8.4-0.8,11.7-1.1c8.3-0.7,14.5-1.1,19.8-1.1c9.2,0,19.4-1,64.8-6l6.1-0.7
	c33.7-3.7,52.9-5.4,65.3-5.4c3.2,0,5,0,13.2,0.1c16.1,0.1,25.3,0.1,35.8-0.2c33.9-1.1,55.2-5.4,61.5-14.6c2.1-3,4.6-6,7.3-8.8
	c-0.3,0.3,4.7-5,6-6.4c11.1-12.3,11.5-21.9-3-39.4c-5.4-6.7-9-13.6-10.9-20.7c-3.3-12-2.8-23.1,0.2-40.3l0.4-2.1h2.1l-0.4,2.2
	c-3.1,17.1-3.5,28.2-0.2,40.1c1.8,7,5.4,13.9,10.7,20.5c14.6,17.8,14.3,27.7,3,40.2c-1.3,1.4-6.3,6.7-6,6.4
	c-2.7,2.8-5.2,5.8-7.3,8.7c-6.7,9.7-28.7,14.1-63.3,15.2c-10.5,0.3-19.8,0.4-35.9,0.2c-8.2-0.1-10-0.1-13.1-0.1
	c-12.2,0-31.3,1.7-64.9,5.3l-6.1,0.7c-45.7,5-55.8,6-65.2,6c-5.2,0-11.2,0.4-19.5,1.1c-3.3,0.3-6.7,0.6-11.6,1.1
	c-4.3,0.4-8.5,0.9-12.8,1.3c-24.1,2.4-41.9,3.5-61.3,3.5c-47.5,0-74.3,6.7-89.8,23.7c-8,8.8-16.1,13.6-30.3,18.5
	c-3.7,1.3-37.9,11.7-52.6,16.8c-21.3,7.3-33.6,17.9-43.7,34.2c-1.2,2-2.4,4-3.8,6.5l-3.5,6.4c-6.1,11.2-10.3,16.9-16.9,21.8
	c-10.4,7.8-23.5,12.7-32.8,13c-9.7,0.3-10.9-4.2-1.9-10.5c23.8-16.6,30.6-34,16.3-61.6c-9-17.4-33.3-29.7-70.7-39.2
	c-8.3-2.1-16.9-4-26.8-6c-3.8-0.8-7.6-1.5-12.4-2.4l-11.2-2.1c-16.6-3.1-41.3-0.6-76.2,6.6c-7.3,1.5-14.9,3.2-24,5.3l-26.8,6.2
	c-9.7,2.2-16.8,3.8-22.9,4.9c-8.6,1.6-17,3.5-25.2,5.6c-3.3,0.8-16.2,4.2-19.3,5c-5.2,1.4-10.7,2.6-16.3,3.5
	c-10.9,1.8-17.8,0.9-21-3.4c-3-4,1.4-8.5,12-13.7c5.7-2.8,12.7-5.7,23-9.5c1.6-0.6,13.3-4.9,16.4-6c4.5-1.6,8.8-3.4,12.9-5.3
	c13.9-6.7,12.6-6.2,15.7-6.5c1.8-0.2,13.8,0.4,20.1,0.4c10.8,0,14.5-0.3,18-1.4l2.7-0.8c1.3-0.4,2.4-0.7,3.8-1.1
	c4.6-1.1,9.4-2,14.4-2.7c13.7-2,17-4.8,19.1-13.5c1.9-7.5,3.1-10.5,7-15.2c4.1-4.9,10.4-7.3,19.3-7.5c6.5-0.2,11.3,0.3,26.8,2.6
	c6.1,1,12.3,1.7,18.6,2.3c3,0.2,5.8,0.3,8.5,0.3c42.7,0,81.9-1.8,100.7-6c8.9-2,21.2-3.1,45.2-4.5l19.4-1.1
	c8.1-0.5,14.7-0.9,21.2-1.3c16.8-1.1,31.8-2.4,46.4-4.1c25.6-2.9,50.2-9.3,73.4-18.2c14.4-5.6,27.7-11.8,39.6-18.6
	c10.3-6,18.1-12.9,23-20.3c7.8-11.6,8.9-24.4,1.5-38.2C815.4,10.1,813,5.1,810.8,0L810.8,0z M1045.5,0h2.6c-1,0.7-1.9,1.2-2.4,1.5
	c-8.2,5-14.2,7.9-20.3,9.6c-3.1,0.9-6.6,1.4-10.3,1.4c-4.9,0-8.7,0.7-13.8,2.2l-5.5,1.7c-9,2.8-16.5,4.1-28.1,4.1
	c-11.6,0-20.6-1.3-33.2-4c-1.6-0.3-3.2-0.7-4.7-1.1l-4.5-1c-3.3-0.7-6-1.2-8.6-1.5c-2.2-0.3-4.5-0.4-6.7-0.4
	c-4.7,0-8.9-0.7-22.7-3.4L884,8.5c-10.3-2-16.7-2.8-21.7-2.7c-6,0.2-9.1,2-9.1,6.1c0,20.8-10.8,50.4-25.1,57.3
	c-15.6,7.6-54.8,23.7-70.3,29.1c-27.2,9.4-64.3,20.2-91,25.1c-9,1.6-18.2,3-27.5,4c-6.8,0.8-13.6,1.4-23.2,2.2
	c-1.1,0.1-18.2,1.5-23.7,2c-10,0.9-19.2,1.7-28.9,2.8c-42.5,4.5-51.7,5-78.6,5c-5.1,0-6-0.1-29-2c-5-0.4-8.9-0.7-12.7-1
	c-16.7-1.2-28.5-1.4-36.4-0.2c-9.4,1.4-12.2,4.6-7.6,10.5c4.2,5.3,10,8.6,18.2,10.7c6.7,1.7,13.9,2.6,28.5,3.7
	c19.4,1.5,22.6,1.8,32,2.9c13.4,1.6,26.3,4.1,38.4,7.4c17.1,4.6,30.1,11.5,41.2,20.9c5.6,4.7,19.5,19.3,21.7,21.2
	c7,5.9,12.9,6.6,22.5,2c10.2-4.9,21.4-8.4,43.6-14.1c1-0.2,4.3-1.1,4.4-1.1c16.5-4.2,24.6-6.5,32.7-9.5c10.5-3.9,17.9-8.1,22.2-13.1
	c17.6-20.2,42.8-33.3,67-33.3l11.3,0c21.7,0.1,35.8,0,51.4-0.3c28.2-0.6,49.1-2.1,60.6-4.7c12.1-2.7,27.7-5.5,49.9-9
	c7.1-1.1,13-2.1,26.2-4.1c15.9-2.4,22.9-3.5,31.3-4.9c7.8-1.3,15.6-2.5,23.4-3.7c7.6-1.2,12.3-2,16.6-2.8c4.7-0.8,9.3-1.8,13.7-2.9
	c3.9-1,7.8-2.1,12.1-3.5c7.2-2.3,12.7-3.1,24.8-4.1l2.4-0.2c11.8-1,18.6-2.3,26.3-5.6c16.1-7,17.7-23.2,7.9-44.5
	c-3.5-7.7-4.3-19.3-3.2-35.5c0.4-6.2,1-12.4,1.7-18.6h2.1l-0.3,3.1c-0.7,6.4-1.1,11-1.4,15.6c-1.1,16.1-0.2,27.7,3.2,35.2
	c9.9,21.7,8.3,38.2-8.6,45.5c-8.1,3.5-15.2,4.8-27.3,5.9l-2.4,0.2c-11.9,1-17.2,1.8-24,4c-4,1.3-8.1,2.5-12.3,3.6
	c-4.5,1.1-9.2,2.1-14,3c-4.3,0.8-9.1,1.6-16.7,2.8c-7.8,1.2-15.6,2.5-23.4,3.7c-8.5,1.4-15.4,2.5-31.3,4.9c-13.2,2-19.1,3-26.2,4.1
	c-22.1,3.5-37.7,6.3-49.7,9c-11.9,2.7-33,4.1-61.4,4.8c-15.6,0.3-29.7,0.4-51.5,0.3l-11.3,0c-23.1,0-47.8,12.8-65.1,32.7
	c-4.5,5.2-12,9.5-22.9,13.5c-8.3,3.1-16.5,5.4-33,9.6l-4.4,1.1c-22.1,5.6-33.1,9-43.1,13.9c-10.6,5.1-18.1,4.1-25.7-2.2
	c-2.3-1.9-16.2-16.5-21.7-21.2c-11-9.2-23.7-16-40.4-20.5c-12-3.2-24.7-5.7-38-7.3c-9.3-1.2-12.4-1.4-31.8-2.9
	c-14.8-1.1-22.2-2-29.2-3.8c-8.7-2.2-14.9-5.8-19.2-11.3c-5-6.4-1.6-10.3,9-11.8c8.3-1.2,20.3-1.1,37.3,0.2c3.8,0.3,7.7,0.6,12.7,1
	c22.7,1.9,23.7,2,28.6,2c26.7,0,35.8-0.5,78.2-5c9.7-1,18.9-1.9,28.9-2.8c5.6-0.5,22.7-1.9,23.7-2c9.6-0.8,16.4-1.5,23.1-2.2
	c9.4-1.1,18.1-2.3,27.2-4c26.5-4.8,63.5-15.6,90.5-24.9c15.4-5.3,54.5-21.4,70-28.9c13.7-6.7,24.5-36.2,24.5-56.6
	c0-4.6,3.8-6.9,11-7.2c5.4-0.2,12,0.7,22.6,2.7l3.2,0.6c13.5,2.6,17.6,3.3,21.9,3.3c2.4,0,4.7,0.2,7.2,0.5c2.7,0.3,5.5,0.8,9,1.5
	c2.3,0.5,4.6,1,6.9,1.5l2.4,0.5c12.3,2.7,21.1,3.9,32.3,3.9c11.2,0,18.3-1.2,27-3.9c0.4-0.1,4.3-1.4,5.5-1.7
	c5.4-1.6,9.6-2.4,14.9-2.4c3,0,6.1-0.4,9.2-1.3c5.7-1.6,11.7-4.4,19.7-9.3L1045.5,0L1045.5,0z M669.6,600h-4.2c1-3,1.9-6.2,2.6-9.7
	c0.9-4.1,1.6-8.2,2-12.2c0.2-1.4,0.3-2.7-0.7-7.3c-1-1.9-1.9-4.1-2.8-6.5c-4.1-11.3-5.5-22.9-2.4-33.8c1.6-6.2,5.2-12.3,10.7-18
	c6.6-6.7,15.4-12.8,26-18.2c7-3.6,11.4-5.5,24.4-10.8c9.3-3.8,13.1-5.6,15.5-7.5c1.3-1.1,2-2.1,2-3.1c0-1.8,0-1.7-1.5-9.2
	c-0.7-3.7-1.2-6.3-1.4-9c-1-12.1,3.3-19.6,16.7-21.8c32.8-5.3,53.4-12.1,69-25.5c19.5-16.9,53.1-31.5,74-31.5
	c25.5,0,41.3-2,60.7-8.8c13.9-4.9,19.6-6.6,25.7-7.5c4.6-0.6,7.8-0.7,18.8-0.7c3.8,0,7.3-0.8,11.5-2.6c2.2-1,10.5-5.1,11.6-5.6
	c12.5-5.9,24.7-8.8,43-8.8c5.1,0,9.4,0,15.1,0.1c15.5,0.2,18.3,0.2,23.3-0.7c6.3-1.1,11.4-3,30.4-11.2c16.5-7.1,22.1-8.9,47.2-16.5
	c3-0.9,5.3-1.6,7.6-2.4c6.9-2.2,13.5-4.7,19.5-7.5c8.5-3.9,16.5-7.9,24-11.9v3c-6.8,3.6-13.9,7-21.2,10.4c-6.6,3-12.8,5.4-20.1,7.7
	c-2.3,0.8-4.7,1.5-7.7,2.4c-24.9,7.5-30.4,9.3-46.6,16.3c-19.5,8.4-24.8,10.3-31.8,11.5c-5.7,1-8.6,1.1-24.8,0.8
	c-5.7-0.1-10-0.1-15-0.1c-17.1,0-28.4,2.7-40.1,8.2c-0.9,0.4-9.3,4.6-11.7,5.7c-4.9,2.1-9.2,3.1-14.2,3.1c-10.5,0-13.6,0.1-17.7,0.7
	c-5.5,0.8-10.9,2.4-24.5,7.1c-20.2,7.1-36.8,9.2-63.1,9.2c-19,0-51.5,14.2-70.4,30.5c-16.2,13.9-37.6,21-71.3,26.5
	c-11,1.8-14.9,8.5-13.9,19.8c0.2,2.6,0.6,5.2,1.4,8.8c1.5,7.6,1.5,7.6,1.5,9.4c0,1.4-0.9,2.7-2.6,4.1c-2.7,2.2-6.7,4.1-16.4,8
	c-12.9,5.2-17.2,7.1-24.1,10.6c-10.3,5.2-18.8,11.2-25.3,17.7c-5.3,5.5-8.7,11.4-10.3,17.4c-3.1,10.7-1.8,22.1,2.3,33.2
	c0.9,2.4,1.8,4.5,2.7,6.4c0.3,0.7,0.6,1.2,1.2,4.1c-0.4,5.4-1.3,10.8-2.4,16.1C671.5,593.9,670.6,597.1,669.6,600L669.6,600z
	 M642,600h-2.2l0.2-0.3c6.3-7.2,8.9-11.8,8.9-18.7c0-3.6-0.1-4.9-1.6-15.7c-1.6-12-2.1-19.6-1.1-28.3c1.2-11.5,5-22.1,12-32.2
	c2.7-3.8,5.8-7.5,9.4-11.1c7.1-7.1,14.1-12.4,21.5-16.6c2.8-1.6,5.8-3.1,9-4.6c0.9-0.4,6.2-2.8,7.6-3.5
	c11.8-5.6,15.5-11.5,15.5-29.2c0-18.8,6-23.8,32.6-28.2c2.2-0.4,4-0.7,5.7-1c4.3-0.8,8.5-1.7,12.6-2.7c10.2-2.6,19.9-6.2,29.8-11.4
	c52.6-27.6,76.7-35.2,116.3-35.2c17.1,0,30-2,45.4-6.3c3.7-1,28.5-8.8,37.5-11.3c5.8-1.6,11.7-3,17.8-4.4
	c16.3-3.6,28.8-4.5,54.9-4.8c15.5-0.2,22.1-0.5,29.4-1.6c9.4-1.4,16.6-4,22.6-8.4c4.5-3.4,14.1-7.1,30.2-12.1c3.3-1,6.7-2,11.7-3.5
	c19.7-5.9,23.9-7.1,30.6-9.6c11-4,19.2-8.4,28.2-14.8c4-2.9,7.9-5.8,11.6-8.8v1.9c-4.1,3.2-7,5.4-9.9,7.4
	c-9.1,6.5-17.5,10.9-28.7,15c-6.8,2.5-11,3.8-30.7,9.6c-3.9,1.2-7.8,2.3-11.6,3.5c-15.9,4.9-25.3,8.5-29.6,11.8
	c-6.2,4.6-13.8,7.4-23.7,8.9c-7.6,1.1-14.2,1.4-30,1.6c-25.8,0.3-38,1.2-54.1,4.7c-6,1.3-11.9,2.8-17.7,4.4
	c-8.9,2.4-33.7,10.2-37.4,11.3c-15.7,4.4-28.9,6.4-46.4,6.4c-38.9,0-62.5,7.4-114.8,34.8c-10.1,5.3-20,9-30.3,11.6
	c-4.1,1-8.3,1.9-12.9,2.8c-1.8,0.3-3.5,0.6-11.1,1.9c-10.5,1.8-15.4,3.2-19.1,6.4c-4.6,3.8-6.8,9.9-6.8,20
	c0,17.9-3.9,24.1-16.1,29.9c-1.4,0.7-6.7,3.1-7.6,3.5c-3.1,1.4-6.1,2.9-8.8,4.5c-7.3,4.1-14.2,9.3-21.2,16.4
	c-3.6,3.6-6.7,7.2-9.3,11c-7,10-10.7,20.5-11.9,31.9c-0.9,8.6-0.5,16.2,1.1,28.2c1.4,10.8,1.6,12.1,1.6,15.7
	C651,587.3,648.9,591.9,642,600L642,600z M693.7,600h-2.1c-0.1-4.7,0.1-9.4,0.6-15c0.5-6.4-0.8-11.8-5.2-24.4l-0.6-1.9
	c-4.4-12.5-5.7-19.3-4.1-26.5c2.1-9.2,9.8-16.7,24.8-22.7c45.5-18.2,61.5-30.2,61.5-44.6c0-2.6-0.6-4.8-2-8.2c-2-4.8-2.3-5.7-2-7.6
	c0.4-2.6,2.6-4.7,7.3-6.7c5.5-2.4,14.5-4.6,28.3-7c20.1-3.5,32-9.2,50.1-21.6l3.7-2.5c9.2-6.3,14.6-9.6,21.5-12.8
	c8.9-4.1,18.5-6.8,30-8.2c27.4-3.3,42-5.5,52.3-7.6c3.7-0.8,7.4-1.7,10.9-2.7c2.3-0.6,3.6-1,8.7-2.6c5.6-1.7,10.8-2.1,23.5-2.3
	c11.2-0.2,16.3-0.4,22.6-1.4c7.6-1.2,14.4-3.3,19.7-6.2c10-5.3,20.7-7.6,36.7-8.9c2.2-0.2,3.9-0.3,8-0.6c14.2-1,20.5-1.7,27.8-3.6
	c9.3-2.5,14-4.4,48.4-19.7l6.5-2.9c19.9-8.7,33.3-13.8,44.2-16.5c8.8-2.1,15.7-4.7,23.2-8.6v1.5c-7.1,3.6-13.8,6-22.2,8
	c-10.7,2.6-24,7.7-43.7,16.3l-6.4,2.9c-34.7,15.4-39.3,17.3-48.8,19.8c-7.6,2-14,2.8-28.5,3.7c-4.1,0.3-5.7,0.4-7.9,0.6
	c-15.6,1.3-25.8,3.5-35.5,8.6c-5.5,3-12.6,5.3-20.6,6.5c-6.6,1-11.8,1.3-23.2,1.5c-12.3,0.2-17.3,0.6-22.5,2.1
	c-2.9,0.9-5.8,1.8-8.8,2.6c-3.6,1-7.3,1.9-11.1,2.8c-10.4,2.2-25.1,4.4-52.6,7.7c-20.1,2.4-31.5,7.6-50.3,20.6l-3.7,2.5
	c-18.4,12.5-30.6,18.3-51.1,21.9c-13.6,2.4-22.4,4.6-27.6,6.8c-4.3,1.9-6.3,3.7-6.6,6c-0.3,1.8,0,2.6,2,7.3c1.4,3.4,2.1,5.7,2.1,8.4
	c0,14.8-16.4,27-62.3,45.4c-14.5,5.8-22,13-24,22c-1.6,7-0.3,13.7,4,26.2l0.7,1.8c4.4,12.7,5.8,18.1,5.2,24.6
	C693.9,590.6,693.7,595.2,693.7,600L693.7,600z M197.9,600h-4.2c1.4-3.8,2.4-8.8,3.3-16c0.4-3.1,0.6-4.1,0.8-5.6
	c2.7-17.5,8.3-27.1,23.7-33.2c9.6-3.8,14.9-8.9,17.9-16c1.1-2.5,1.4-3.9,2.7-9.2c1.4-5.5,2.4-8.1,4.6-10.4c3-3.1,7.9-4.7,15.2-4.7
	c29.5,0,79.4,9.1,110.6,20.2c17.9,6.3,43.9,13.3,65.5,17.1c26.9,4.7,45.2,4.4,51.1-1.7c3.5-3.6,4-4.1,5.5-5.8
	c6-6.7,9.7-12.2,10.8-17.5c0.5-2.2,0.5-4.2,0-6.2c-0.7-2.8-2.9-4.5-8.4-7.4l-2.7-1.4c-1.8-0.9-3.4-1.8-5-2.8
	c-1.9-1.3-3.7-2.6-5.2-4.1l-2.3-2.1c-3.3-3.1-5.5-4.6-8.5-5.6c-10.9-3.5-30.5-5.5-58.9-6.8c-6.2-0.3-12.4-0.5-18.7-0.7l-4.5-0.2
	c-19.7-0.7-31.2-1.6-39.3-3.2c-29-5.9-71.4-26.4-71.4-36.9c0-5.3,3.6-9.5,11.3-14.1c4.1-2.4,22.9-11.7,26.4-13.5
	c9.3-5,21-9.5,36.5-14.7c5.8-1.9,30.5-9.6,36.1-11.5c4.7-1.6,9-3.4,13.1-5.4c3.2-1.5,14.4-7.1,14.7-7.3
	c14.8-7.3,26.2-11.6,40.7-14.4c6.9-1.3,16.8-2.8,36-5.4c8.1-1.1,16.2-2.2,24.3-3.3c8.7-1.2,17.5-2.4,26.1-3.7
	c42.1-6.2,70.2-12.1,84.2-18.4c18-8.2,24.3-13.8,32.5-26c4.2-6.2,6.4-9,10.5-12.7c19.7-17.7,59.2-39.4,89.8-45.4
	c29.2-5.8,40-11.7,40-18.1c0-2.9,5.6-8.4,14.1-13.7c9.8-6.2,22-11.4,34.6-14.2c25.8-5.8,69.1-10.1,97.8-10.1c11,0,20.3-1.5,33.9-4.9
	c19-4.7,20.8-5.1,28-5.1c21.5,0,66.2-2.6,94.4-6l8-1l7.2-0.9c5.4-0.7,8.9-1.1,12.2-1.4c8-0.9,13.9-1.2,19.8-1.2
	c5.7,0.1,11.3,0.5,17.9,1.5c9.4,1.4,28.3-0.9,47.2-5.7c7.1-1.8,13.9-3.9,20.3-6.2v2.4c-22.9,8.1-53.2,13.7-68.7,11.4
	c-5.4-0.8-11.1-1.3-16.8-1.4c-5.4-0.1-11.1,0.3-18.8,1.1c-6.4,0.7-12.9,1.5-19.3,2.3l-8,1c-28.6,3.5-73.6,6-95.4,6
	c-6.2,0-8.1,0.4-26.1,4.9c-14.1,3.5-24,5.1-35.8,5.1c-28.2,0-70.9,4.3-96.1,9.9c-11.9,2.7-23.6,7.6-33,13.6
	c-7.9,5-13.2,10.2-13.2,12.5c0,7.3-12,13.8-42.5,19.9c-29.4,5.9-68.4,27.2-87.7,44.6c-3.9,3.5-6.1,6.3-10.2,12.4
	c-8.4,12.5-14.9,18.4-33.6,26.9c-14.6,6.6-43.1,12.6-85.8,18.9c-8.7,1.3-17.4,2.5-26.2,3.7c-8.1,1.1-16.2,2.2-24.3,3.3
	c-19.1,2.6-28.8,4-35.6,5.3c-13.9,2.7-24.9,6.8-39.3,13.9c-0.3,0.1-11.6,5.8-14.8,7.3c-4.2,2.1-8.8,4-13.6,5.6
	c-5.7,1.9-30.4,9.6-36.1,11.5c-15.3,5-26.7,9.5-35.8,14.4c-3.5,1.9-22.3,11.1-26.2,13.5c-7.2,4.3-10.4,8-10.4,12.9
	c0,9.5,41.3,29.5,68.9,35.1c7.6,1.5,18.8,2.3,38.1,3c3,0.1,6,0.2,9,0.3c6.7,0.2,10.5,0.4,14.3,0.5c29.1,1.4,49.1,3.4,60.8,7.2
	c3.8,1.2,6.2,2.9,9.9,6.3l2.3,2.1c1.4,1.3,3,2.6,4.8,3.8c1.3,0.8,2.7,1.6,4.7,2.6c0.5,0.2,2.3,1.2,2.7,1.4c6,3.1,8.7,5.2,9.5,8.5
	c0.5,2.1,0.5,4.3,0,6.6c-1.2,5.5-5,11.2-11.2,18.1c-1.5,1.7-2,2.2-5.5,5.8c-7.2,7.5-27.5,7.8-56.2,2.8c-22-3.9-48.3-10.9-66.5-17.4
	C339.7,516,290.6,507,262,507c-10.3,0-13.2,3-15.8,13.3c-0.6,3.1-1.6,6.2-2.8,9.3c-3.2,7.5-8.9,13-19.3,17.2
	c-14.2,5.6-19.6,14.8-22.2,31.8c-0.2,1.5-0.4,2.5-0.8,5.6C200.2,591.2,199.3,596.1,197.9,600L197.9,600z M214.5,600h-2.1
	c0.6-1.4,1.2-2.9,1.9-4.6l2.2-5.6c5.2-13.3,8.7-19.9,13.8-24c3.5-2.8,7.6-5.5,16.6-11c16.9-10.4,22.4-14.5,22.4-18.7l0-1.7
	c0-1.8,0-2.7,0-3.8c0.4-5,3-8.2,9.6-9.4c8.1-1.5,21.4,0.4,41.5,6.4c19.7,5.9,36.2,10.7,53.5,15.7c2.7,0.8,29.4,8.4,36.5,10.5
	c4.4,1.3,8.8,2.6,13.2,3.9c28.5,8.5,80.3,5,95.5-7.8c7.4-6.3,9.4-8.5,16.1-17.3c0.8-1,1.6-2.1,2.4-3.1c2.2-2.7,5.1-5.2,8.4-7.6
	c19.3-14,30.8-26.1,30.8-36.7c0-3.7,1.5-6.6,6.9-14.9c1.1-1.6,1.7-2.7,2.4-3.7c7.5-12.2,6.3-19.1-8.9-24c-6.2-2-13.2-3.3-20.6-3.8
	c-14.9-0.9-29.9,1.2-49.3,5.9c-3.2,0.8-13.7,3.4-15.7,3.9c-2.9,0.7-5.8,1.5-8.5,2.3l-9.1,2.7c-24,6.9-42.1,9.2-67.7,6.1
	c-6.9-0.8-12.9-1.4-27-2.6c-27.3-2.4-38.6-3.8-48.1-6.5c-12.9-3.7-15.4-9-5.9-16.6c8.3-6.7,18.3-12.8,29.8-18.3
	c5.5-2.7,11.3-5.2,17.2-7.7c-0.1,0,12.7-5.3,16.1-6.8c4.7-2,9.2-4.1,13.4-6.3c15.9-8.5,26.4-13.4,41.4-18.6
	c20.5-7.1,44.2-12.4,72.6-15.6c76.4-8.6,105.2-12.7,121.4-17.9c17.7-5.7,43.9-24.8,76-54.8c10.8-10.1,25.3-18.4,43.6-25.7
	c10.6-4.2,19.7-7.2,36.2-12.2c15.3-4.6,19.8-6.1,23.5-8.2c2.5-1.5,4.5-3.1,6.1-4.9c1.3-1.3,5.9-6.5,6.2-6.8c2.8-3,5.3-5.4,8.2-7.7
	c13.5-11,33.1-18,64.8-20.8c26.3-2.3,41-2.7,61.2-2.3c6.7,0.1,8.5,0.2,11.6,0.1c10.6-0.1,20-1,34.3-3.8c42.8-8.3,80-12,122.1-12
	c6.3,0,12.4,0.1,21.6,0.5l4.3,0.2c25.7,1,37.3,1,52.3-0.6c10.2-1.1,20-2.9,29.1-5.4v1.1c-9,2.4-18.6,4.2-28.6,5.3
	c-15.2,1.6-27,1.6-52.9,0.6l-4.3-0.2c-9.1-0.3-15.2-0.5-21.5-0.5c-41.9,0-78.8,3.7-121.3,12c-14.5,2.8-24.1,3.8-35,3.9
	c-3.1,0-4.9,0-11.7-0.1c-20.1-0.4-34.7,0-60.8,2.3c-31.1,2.7-50.2,9.6-63.4,20.3c-3,2.5-5.7,5-8,7.6c-0.2,0.3-4.9,5.5-6.2,6.8
	c-1.6,1.8-3.8,3.5-6.4,5.1c-3.8,2.1-8.4,3.7-23.9,8.4c-16.4,5-25.5,7.9-36,12.2c-18.1,7.2-32.5,15.4-43.1,25.4
	c-32.2,30.2-58.5,49.3-76.7,55.2c-16.5,5.3-45.3,9.4-122.1,18.1c-28.2,3.2-51.5,8.4-71.8,15.4c-14.9,5.2-25.3,10-41.1,18.4
	c-4.3,2.2-8.8,4.4-13.6,6.4c-3.4,1.5-16.3,6.8-16.2,6.8c-6.7,2.8-12,5.2-17,7.6c-11.3,5.4-21.2,11.5-29.4,18.1
	c-8.9,7.2-6.6,11.9,5.2,15.3c9.2,2.6,20.4,4,48,6.4c8.9,0.7,17.8,1.6,26.7,2.6c25,3,42.6,0.8,66.2-6l9.1-2.6c3.4-1,6.1-1.7,8.7-2.4
	c2-0.5,12.5-3.1,15.7-3.9c19.8-4.8,35.2-6.9,50.5-6c7.7,0.5,15,1.8,21.5,3.9c16.1,5.2,17.4,12.5,9.7,25.1c-0.7,1.1-1.3,2.1-2.4,3.7
	c-5.3,8.1-6.8,11-6.8,14.5c0,10.9-11.7,23.1-31.1,37.3c-3.2,2.3-6,4.8-8.2,7.5c-0.8,0.9-1.5,1.8-2.4,3c-6.7,8.8-8.7,11.1-16.2,17.5
	c-15.8,13.4-69,17-98.4,8.2c-4.4-1.3-8.8-2.6-13.2-3.9c-7-2-33.8-9.7-36.5-10.5c-17.3-5-33.8-9.8-53.5-15.7
	c-19.6-5.8-32.4-7.7-39.7-6.4c-5.5,1-7.8,3.8-8.3,8.5c-0.1,1.2-0.1,2.5,0,3.7l0,1.7c0,4.5-5.6,8.7-23.8,19.9
	c-8.1,5-12.1,7.6-15.6,10.4c-4.9,4-8.4,10.6-13.5,23.7l-2.2,5.6L214.5,600L214.5,600z M236.1,600h-2.1c0.1-0.3,0.1-0.7,0.1-1
	c0-12.4,17.5-33.6,39.5-43.4c2.8-1.3,5.4-2.7,7.6-4.2c2.2-1.6,4.2-3.2,5.9-4.9c0.7-0.7,3.6-3.7,4.3-4.4c6.6-6.3,14.1-6.5,35,0.4
	c2.8,0.9,12.5,4.2,13.2,4.4c5.4,1.8,9.6,3.2,13.8,4.6c10.4,3.4,19.3,6.2,27.9,8.7c29.6,8.7,52.6,13.3,70.4,13.3
	c34.8,0,67.5-6,81.7-14.8c3.3-2,6.6-5.2,10.4-9.6c1.7-1.9,3.4-4.1,5.5-6.8l5.7-7.3c9.6-12.4,16-19.1,23.9-23.3
	c16.3-8.8,30.7-36,30.7-52.7c0-1.9,0.4-3.1,2.1-8.3c0.8-2.2,1.2-3.6,1.5-5.1c1.3-5.5,0.4-9.5-3.5-12.4c-9.5-7.1-40.6-9.2-79.4-4.8
	c-13.4,1.5-26.5,3.6-39.1,6.3c-10.7,2.4-35.3,9.7-34,9.4c-13.9,3.6-26.8,4.1-51.2,1.3c-61-7.1-62.8-8.6-31.5-26.8
	c36-20.9,97.2-46.2,116.3-46.2c20.5,0,111.1-12,135.7-18c19.5-4.7,50.2-21.2,76-37.9c1.5-1,27.9-21.6,39.6-29.6
	c19.3-13.1,37.6-22.5,55.6-27.5c15-4.2,27.2-10.3,38.8-18.7c4-2.9,21.7-17.6,26.3-20.4c3.2-1.9,6.2-3.2,9.3-3.9c29-6.2,50-9,80.9-9
	h59.8c8.4,0,15.2-0.4,47.3-2.5l8.9-0.6c20.5-1.3,34.2-1.9,44.9-1.9c3.4,0,6.1,0,12.4,0c38.4,0.2,58.9-0.5,92.6-4
	c6.4-0.7,12.6-1.8,18.8-3.3v1.1c-5.8,1.4-12,2.5-18.4,3.2c-33.8,3.6-54.5,4.2-93,4.1c-6.4,0-9,0-12.4,0c-10.6,0-24.3,0.6-44.7,1.9
	l-8.9,0.6c-32.3,2.1-39.1,2.5-47.6,2.5h-59.8c-30.6,0-51.3,2.8-80.1,9c-2.8,0.6-5.6,1.8-8.5,3.6c-4.5,2.7-22.1,17.4-26.2,20.3
	c-11.8,8.6-24.1,14.8-39.5,19c-17.7,4.9-35.8,14.2-54.9,27.2c-11.7,8-38.1,28.6-39.7,29.6c-26,16.8-56.8,33.3-76.7,38.1
	c-24.9,6-115.8,18-136.6,18c-18.2,0-79.2,25.1-114.8,45.8c-30.1,17.5-29.3,18.2,30.4,25.2c23.9,2.8,36.3,2.3,49.7-1.2
	c-1.4,0.4,23.3-7,34.2-9.4c11.2-2.5,23.9-4.6,39.4-6.4c39.5-4.5,71.5-2.4,81.6,5.2c4.2,3.2,5.1,7.3,3.8,13c-0.4,1.7-0.9,3.4-1.5,5.1
	c-1.7,5.1-2.1,6.3-2.1,8.1c0,16.9-14.5,44.3-31.2,53.3c-7.6,4.1-13.9,10.7-23.5,23c-0.7,0.9-4.5,5.9-5.6,7.3
	c-2.1,2.8-3.9,4.9-5.5,6.8c-3.9,4.5-7.3,7.7-10.7,9.8c-14.6,9.1-48,15.2-83.3,15.2c-18.3,0-41.6-4.7-71.5-13.4
	c-8.6-2.5-17.5-5.3-28-8.7c-4.6-1.5-9.2-3-13.8-4.6l-13.2-4.4c-20-6.6-26-6.4-32-0.8c-0.7,0.7-3.6,3.6-4.3,4.3
	c-1.8,1.8-3.8,3.4-6.1,5c-2.3,1.6-4.9,3-7.9,4.3c-21.6,9.6-38.9,30.5-38.9,42.6L236.1,600L236.1,600z M175,600h-2.3
	c2.4-2.5,3.7-5.2,3.7-8c0-20,10-42,25.1-49.3c10.7-5.2,16-8.4,20.4-12.7c5.4-5.4,8.2-12,8.2-20.9c0-6.8,2.4-11.6,7-15.1
	c3.6-2.7,7.4-4.2,18.4-7.5c2.8-0.8,5.5-1.8,8-2.8c9.5-4,13.6-6.2,15.9-9.4c3-4,1.9-9-3.8-16c-2.4-2.8-5.1-5.5-8.2-8.1l-1.9-1.7
	c-1.9-1.6-3.8-3.3-5.4-5c-10.6-10.7-7.8-18.9,15.8-29.8c17.2-7.9,35.7-15.1,55.3-21.5c8.2-2.7,34.7-10.8,39.7-12.5
	c4.1-1.4,8.9-3.3,16-6.3c0,0,14.9-6.4,19.5-8.3c10.3-4.3,18.8-7.5,26.9-10.1c9.7-3.1,18.5-5.3,26.6-6.3c26.4-3.4,32.2-4.2,44.9-6
	c25.9-3.6,45.3-6.9,58.1-10c5-1.1,10.1-2.1,15.4-2.8c17.9-2.7,24.8-4.1,35-8.1c14-5.5,27-14.2,39.9-27.9
	c33-34.8,39.4-39.4,66.3-49.2c6.5-2.4,13.1-4.1,23.6-6.4l4.8-1c24.6-5.4,34.8-8.9,43.5-17.4c3.9-3.8,5.1-6.3,7-12.3
	c1.6-5.2,3.1-7.6,7.3-10.2c5.3-3.4,14.5-6.3,29.6-9c7-1.3,15.2-2.5,24.9-3.7c33.7-4.3,52.2-5.4,81.7-5.8c14.2-0.2,19.6-0.6,26.1-2
	c2.5-0.5,4.9-1.2,7.4-2.1c7.6-2.7,16.8-4.5,27.3-5.7c11.8-1.3,22.1-1.5,38.6-1.4l4.8,0c5.8,0,14-1,40.6-4.7
	c22.3-3.1,32.9-4.3,39.8-4.3c1.7,0,3.9,0.1,7.3,0.4l10.3,0.9c20.3,1.7,36,1.9,51.9-0.2c16.5-2.2,30.5-6.8,41.9-14.2v1.6
	c-11.3,7-25.2,11.4-41.3,13.6c-16.3,2.1-32.2,1.9-52.8,0.2l-10.3-0.9c-3.3-0.3-5.4-0.4-7-0.4c-6.6,0-17.2,1.2-40.7,4.5
	c-25.5,3.5-33.6,4.5-39.7,4.5l-4.9,0c-16.4-0.1-26.5,0.2-38.1,1.4c-10.3,1.1-19.2,2.9-26.6,5.5c-2.4,0.9-5,1.6-7.7,2.2
	c-6.9,1.5-12.4,1.9-26.9,2.1c-29.4,0.4-47.7,1.5-81.2,5.8c-8.3,1-16.6,2.3-24.7,3.7c-14.8,2.7-23.7,5.5-28.7,8.7
	c-3.9,2.5-5.3,4.8-6.9,9.8c-1.9,6.1-3.2,8.7-7.2,12.6c-4.6,4.6-11.4,8.5-19.9,11.4c-6.4,2.3-12.3,3.7-24.6,6.4l-4.8,1
	c-10.3,2.3-16.9,4-23.2,6.3c-26.6,9.7-32.9,14.2-65.7,48.8c-13,13.8-26.2,22.7-40.4,28.2c-10.5,4.1-17.6,5.6-35.7,8.3
	c-5.2,0.7-10.3,1.6-15.1,2.7c-12.9,3.1-32.4,6.4-58.4,10.1c-14.9,2.1-29.9,4.1-45,6c-7.8,1-16.4,3.1-25.9,6.2
	c-9.3,3.1-18.2,6.5-26.7,10.1c-4.6,1.9-19.6,8.3-19.6,8.3c-5.2,2.3-10.6,4.4-16.2,6.4c-5.1,1.7-31.6,9.8-39.7,12.5
	c-19.6,6.4-38,13.6-55.1,21.5c-23,10.6-25.6,18.3-15.4,28.6c1.7,1.7,3.5,3.3,5.4,5l1.9,1.7c3.1,2.6,5.9,5.4,8.3,8.2
	c5.9,7.2,7,12.5,3.9,16.7c-2.5,3.4-6.8,5.8-16.5,9.8c-2.4,1-4.8,1.8-10.9,3.7c-8.1,2.5-11.7,3.9-15.1,6.4c-4.4,3.3-6.6,7.9-6.6,14.5
	c0,9-2.8,15.8-8.4,21.3c-4.5,4.5-10,7.8-20.8,13c-14.6,7.1-24.5,28.9-24.5,48.7C178.5,594.8,177.3,597.5,175,600L175,600z
	 M757.9,600h-2.1l-2.3-5.8c-6.4-16.3-8.4-26.2-5.7-37.3c1.4-5.8,1.6-9.7,1.1-15.3c-0.4-4.5-0.4-5.7,0.4-7.6
	c1.6-4.3,7.1-8.5,21.4-16.3c18.7-10.2,25.3-15.4,40.9-30.1c2.8-2.6,4.8-4.5,7-6.3c1.9-1.6,3.8-3.1,5.7-4.5
	c6.5-4.7,14.5-8.4,34.7-16.8c23.2-9.6,32-13.9,37.4-19.1c1.4-1.4,2.7-2.8,4-4.4c1.1-1.3,2.1-2.7,3.1-4c7.5-9.9,16.5-13.9,47.3-17.8
	c10.3-1.3,42.4-5.1,44.1-5.3c33.4-4.1,52.3-7.4,69.1-12.6c12.1-3.8,12-3.8,57.1-16.5l5.4-1.5c21.1-6,35.3-10.2,46.9-14
	c6.2-2,12.3-4.1,18.2-6.3c4.4-1.7,8.8-3.4,13.1-5.1c10.3-4,21.4-7.4,33.3-10.3v1.1c-11.4,2.7-22.1,6.1-32,9.9
	c0.4-0.1-9.8,3.8-13.2,5.1c-5.9,2.2-12,4.3-18.3,6.4c-11.7,3.8-25.9,8-47,14l-5.4,1.5c-45,12.8-44.9,12.7-57,16.5
	c-17.1,5.3-36.1,8.6-69.7,12.7c-1.7,0.2-33.8,4-44.1,5.3c-16.6,2.1-27.1,4.5-33.9,7.5c-5.5,2.4-8.3,4.9-11.9,9.7l-3.1,4.1
	c-1.2,1.5-2.5,3-4,4.5c-5.6,5.5-14.5,9.8-37.9,19.5c-20.1,8.3-28.1,12-34.4,16.6c-2,1.5-3.9,2.9-5.7,4.5c-2.2,1.8-4.1,3.6-6.9,6.2
	c-15.6,14.8-22.3,20.1-41.2,30.4c-14.1,7.7-19.4,11.8-20.9,15.9c-0.7,1.8-0.7,3-0.4,7.4c0.5,5.7,0.3,9.6-1.1,15.5
	c-2.7,10.9-0.7,20.8,5.6,37L757.9,600L757.9,600z M599.9,600h-4.3l2.9-4.3c2.1-3.3,4-6.8,5.5-10.4c5.5-12.7,6.7-23.6,6.7-41.3
	c0-5.7-3.8-9.8-8.5-9.8c-6.1,0-14.4,5.6-22.6,17.1C559.5,579.7,533,593,491.1,593c-46.3,0-60.4-1.3-99.9-10.1
	c-6.7-1.5-13.2-3.2-19.4-5c-6.1-1.8-26.4-8.6-30.6-9.7c-8.7-2.4-14.4-2.7-20.1-1c-1.3,0.4-2.6,0.9-3.9,1.5c-2.8,1.4-5.8,2.6-8.9,3.9
	c-2.1,0.8-4.2,1.6-6.3,2.4l-2.1,0.8c-17.2,6.6-23.4,11.4-23.4,21.2c0,1,0,2-0.1,3h-4.1c0.1-1,0.1-2,0.1-3c0-10.5,6.9-15.8,24.9-22.8
	c1.4-0.5,2.7-1.1,4.1-1.6c1.7-0.6,3-1.1,4.2-1.6c3-1.2,5.9-2.4,8.6-3.7c1.5-0.7,3.1-1.3,4.6-1.8c7.2-2.2,14.4-1.8,24.3,0.9
	c4.4,1.2,24.8,8,30.7,9.8c6.1,1.8,12.5,3.5,19,4.9c38.9,8.6,52.5,9.9,98.2,9.9c39.7,0,65-12.7,84.7-40.3
	c8.7-12.2,17.9-18.4,26.4-18.4c7.8,0,12.6,5.1,12.6,11.8c0,17.8-1.3,28.8-6.8,41.7c-1.6,3.7-3.5,7.2-5.7,10.6
	C601.6,597.6,600.7,598.8,599.9,600L599.9,600z M292,600l1-0.9c4.9-4.3,9.4-8.7,13.5-13.3c5.6-6.3,11.9-9.6,19.1-10.5
	c7.7-1,14.8,0.7,25.9,5.1c11.2,4.4,12.5,4.9,15.9,5.1c3.3,0.2,8.8,1.1,18.3,3c2.7,0.5,22.2,4.3,28.6,5.5s12.1,2.2,17.5,3.2
	c6.4,1.1,12.3,2,17.8,2.8h-7.1c-3.6-0.6-7.4-1.2-11.4-1.9c-5.9-1-11.7-2.1-17.6-3.2c-6.4-1.2-25.9-5-28.6-5.5
	c-9.3-1.8-14.8-2.7-17.8-2.9c-4-0.3-5.2-0.7-17-5.3c-10.7-4.2-17.2-5.8-24.1-4.9c-6.4,0.8-12.3,3.9-17.7,10
	c-4.2,4.7-8.9,9.3-14.1,13.8L292,600L292,600z M524.9,600c8.6-1.3,16.5-3.4,23.3-6.3c3.2-1.4,6.9-3.5,11-6.3c2.2-1.5,4.4-3.1,7-5
	c1.7-1.3,3.5-2.6,5.2-3.9l1-0.8l1.9-1.5c2.1-1.7,4.4-3.3,6.7-4.9c2.2-1.4,3.8-2.2,5-2.5c2.1-0.4,3.1,0.5,3.1,2l0,2.1
	c0.1,6.9-0.2,11.3-1.4,16.3c-0.8,3.6-2.5,7.1-4.9,10.6h-2.2c2.5-3.5,4.2-7,5.1-10.7c1.3-5,1.5-9.3,1.4-16.2l0-2.1
	c0-1-0.2-1.1-0.3-1.1c-0.7,0.1-2.2,0.8-4.1,2.1c-2.3,1.6-4.5,3.2-6.6,4.8l-1.9,1.5l-1,0.8c-1.7,1.3-3.4,2.6-5.2,3.9
	c-2.6,2-4.9,3.6-7.1,5.1c-4.3,2.9-8,5-11.3,6.5c-5.5,2.3-11.7,4.2-18.4,5.5L524.9,600L524.9,600z M145.8,600H143
	c7-3.4,10.7-8.3,10.7-15c0-18.6-0.1-17.3,2.1-20.8c1.2-1.9,3.1-3.7,6.7-6.6c0.9-0.7,10.2-7.8,14-10.9c6.3-5,22.8-16.5,25.2-18.6
	c7.2-6.1,9.7-12.1,9.7-24.2c0-7.9,5.2-14.2,16.7-23.4l5.9-4.6c1.8-1.4,3.5-2.9,5.1-4.4c3.3-3.1,5.1-5.8,5.4-8.3
	c0.4-3.8-2.7-7.3-10.1-10.9c-10.6-5.1-17.7-5.4-23.1-1.9c-4.4,2.9-7.2,7.7-10.4,16.5c-0.4,1-1.7,4.6-1.7,4.6
	c-1.7,4.7-2.9,7.3-4.3,9.6c-2.8,4.4-7.6,7.6-17.2,12.3l-6.7,3.2c-13.2,6.4-20,11.5-23.4,19.5l-2.4,5.5c-1.8,4.1-3.2,7-4.8,9.9
	c-7.6,13.7-19.9,26-46.6,44.7c-15.8,11.1-22.8,18.9-22.5,23.7h-2.1c-0.2-5.2,6.9-13,22.9-24.3c26.6-18.7,38.8-30.8,46.3-44.4
	c1.6-2.9,3-5.8,4.8-9.9l2.4-5.5c3.6-8.2,10.6-13.5,24-20c1.3-0.6,5.9-2.8,6.7-3.2c9.4-4.5,14.1-7.6,16.8-11.8
	c1.8-3.1,3.2-6.3,4.3-9.5l1.7-4.6c3.3-8.9,6.2-13.8,10.8-16.9c6.2-4.1,14.9-3.8,26.2,1.7c7.8,3.8,11.2,7.6,10.7,11.7
	c-0.3,2.7-2.2,5.4-5.6,8.7c-1.6,1.5-3.4,3-5.2,4.5l-5.9,4.6c-11.4,9.1-16.4,15.3-16.4,22.9c0,12.3-2.6,18.4-10,24.7
	c-2.5,2.1-19,13.7-25.2,18.6c-3.9,3.1-13.1,10.2-14,10.9c-3.6,2.8-5.4,4.6-6.5,6.4c-2.1,3.3-2,2.1-2,20.5
	C155.8,591.5,152.3,596.4,145.8,600L145.8,600z M639.8,0h2.2c-0.8,0.9-1.6,1.8-2.5,2.8c-8,9.1-11.2,15.1-11.2,25.2
	c0,7.6-4.3,11.6-13.7,13c-7.1,1.1-11.8,1-36.3-0.4c-23.8-1.4-39.6-1.6-58.1-0.1c-12.9,2.5-53.5,7-66.3,7c-23,0-75.8-2.9-111.7-7
	c-11.9-1.5-24.5-0.6-35,2.5c-8.4,2.3-14.6,5-28.7,12c-13,6.4-19.7,9.2-28.5,11.5c-14.6,3.8-23.2,7.7-27.6,12.3
	c-3.8,3.8-4.8,7.8-4.8,15.3c0,4.4-5.5,6.7-19.5,9.7c0.2-0.1-6.1,1.3-7.9,1.7c-18.1,4.1-26.2,8.3-26.2,16.5c0,12.5-10,19.2-35.8,28
	l-9.4,3.1c-3.9,1.3-6.8,2.3-9.6,3.3c-1.9,0.7-3.7,1.3-5.4,2C89,164,81.1,172.9,71.7,191.7c-1.3,2.6-6.8,14-8.4,17.1
	c-3.2,6.5-6.8,12.9-10.7,19.3c-2.8,4.5-9.3,15.1-10.2,16.5c-2.2,3.4-3.4,4.9-5.1,6.3c-1.7,1.4-14.1,9.1-26.1,18.3L0,278v-1.9
	l9.5-7.4c8.2-6.2,16.8-12.3,26-18.2c-0.6,0.5,2.8-2.8,4.9-6.1c0.9-1.4,7.4-12,10.2-16.5c3.8-6,7.1-12.1,10.7-19.3
	c1.6-3.1,7.1-14.6,8.4-17.1c9.5-18.9,17.6-28,32.8-33.8c1.7-0.7,3.5-1.3,5.5-2c2.8-1,5.8-2,9.7-3.3l9.4-3.1
	c25.3-8.6,34.9-15,34.9-27.1c0-8.7,8.7-13.3,27.4-17.4c1.8-0.4,8.2-1.8,7.9-1.7c13.3-2.9,18.3-5,18.3-8.8c0-7.6,1.1-11.7,5-15.7
	c4.7-4.8,13.6-8.8,28.6-12.7c8.6-2.2,15.2-5,29.2-11.9c13-6.4,19.3-9.1,27.9-11.5c11-3.2,24.1-4.1,36.5-2.6c35.6,4.1,88.3,7,111.2,7
	c12.6,0,53.1-4.5,65.9-7c18.8-1.5,34.7-1.2,58.8,0.1c24,1.4,28.7,1.5,35.4,0.5c8.4-1.3,12.3-4.8,12.3-12.1
	C626.2,17.9,629.4,11.7,639.8,0L639.8,0z M691.7,0h2.1c0.1,5.6,0.5,11.5,1.3,19.4c1,9.7,1.3,14.6,1.3,21.6c0,9.8-9.7,17.5-27,23.2
	c-13.5,4.4-30.8,7.5-50.2,9.3c-7.7,0.5-19.4,0.6-46.8,0.2c-13.9-0.2-19.3-0.2-25.6-0.2c-5.7,0-10.3,0.4-15.7,1.4
	c-1.8,0.3-9.4,1.7-11.5,2.1c-13.5,2.3-28,3.5-51.2,3.5c-16.7,0-28-1.4-46.3-4.9l-6.6-1.2c-25.9-4.9-43.9-5.2-76.7,1.1
	c-23,4.4-37.4,9.2-46,14.8c-6.5,4.3-8.9,7.8-12.3,15.8c-2.5,6.1-4,8.7-7.2,12.1c-3.4,3.5-8.2,5.8-14.6,7.2c-4.8,1.1-9,1.5-19.2,2.2
	c-18.7,1.3-26.3,3.1-32.2,9.6c-7.7,8.5-15.9,13.9-29.3,19.8c-5,2.2-27.1,11-32.8,13.4c-16.9,7.1-28.6,17.4-38.6,32
	c-2.4,3.5-4.7,7.1-6.7,10.7c0,0.1-4.7,8-5.9,10.1c-17.5,28.9-36.9,52.9-53.9,61.2c-5.8,2.8-10.4,5.6-21.5,13
	c-7,4.7-12.9,8.2-18.5,11.1v-1.5c5.7-3,11.8-6.8,19.6-12c8.3-5.5,13-8.4,18.9-11.2c16.7-8.1,36-32.1,53.4-60.8
	c1.3-2.1,5.9-10,5.9-10.1c2.5-4.2,4.6-7.5,6.8-10.7c10.1-14.8,21.9-25.2,39.2-32.4c5.7-2.4,27.9-11.2,32.8-13.4
	c13.2-5.8,21.3-11.1,28.8-19.4c3.5-3.8,8.4-6.3,14.9-7.9c5-1.2,9.6-1.7,19.7-2.4c9.4-0.6,13.4-1.1,18-2.1c6-1.3,10.4-3.4,13.6-6.7
	c3.2-3.3,4.6-5.9,7.1-11.9c3.4-8.1,5.9-11.8,12.6-16.2c8.8-5.8,23.5-10.7,46.9-15.2c33.3-6.4,51.9-6.1,78.2-1.1l6.6,1.3
	c18.1,3.5,29.2,4.8,45.6,4.8c22.9,0,37.2-1.2,50.5-3.5c2.1-0.4,9.7-1.8,11.5-2.1c5.3-1,10.8-1.4,16.4-1.4c6.3,0,11.7,0.1,29,0.3
	c23.8,0.3,35.5,0.3,43-0.2c19.1-1.8,36.2-4.8,49.4-9.2c16.8-5.5,26.1-12.9,26.1-22.3c0-7-0.4-11.9-1.4-22.7
	C692.1,11,691.7,5.5,691.7,0z M193.7,0h4.2c-1.4,4-3.3,6.8-6.3,9.5c-4.8,4.4-5.9,5.8-10.9,13c-1.1,1.7-2.4,3.4-4,5
	c-4.6,4.7-12.2,8.8-27,14.3c-16.5,6.1-29.4,16.5-41.3,31.5c-5,6.2-18.1,25.6-19.9,28C83,108.5,75.1,114,56.3,125l-5.5,3.2
	c-12.4,7.3-19.3,12.1-24.2,17.1c-4.7,4.9-14.7,9.9-26.6,14.1v-2.4c10.6-3.9,18.8-8.3,22.9-12.6C28,139.3,35,134.5,47.6,127l5.5-3.3
	c18.4-10.8,26.2-16.2,31.6-23.1c1.8-2.3,14.9-21.7,19.9-28c12.2-15.3,25.4-26,42.7-32.4c14.3-5.3,21.5-9.2,25.8-13.5
	c1.3-1.4,2.4-2.7,3.8-4.8c5.1-7.4,6.2-8.8,11.1-13.3C190.8,5.9,192.8,3,193.7,0z M212.4,0h2.1c-3.4,8.3-6,12.7-9.4,15.3
	c-3.3,2.6-6.1,5.4-8.5,8.2c-2.6,3-5,6.2-7.2,9.4c-0.8,1.1-1.4,2.2-5,5.4c-9.1,4.3-18,8.7-26.4,13.3c-7.2,4-12.3,7.3-14.8,9.7
	c-2,1.9-4.3,6-7.4,13c-1.3,2.9-7.5,17.2-9.3,21.1c-7.5,16.5-13.7,26.7-20.4,32c-15.8,12.5-22,15.7-76.5,41.1
	c-8.9,4.2-18.8,7.9-29.6,10.9v-1.1c10.2-2.9,19.7-6.4,28.2-10.4c54.5-25.3,60.5-28.6,76.2-40.9c6.6-5.2,12.8-15.4,20.2-31.7
	c1.8-3.9,8-18.2,9.3-21.1c3.2-7.1,5.6-11.2,7.6-13.2c2.6-2.5,7.8-5.9,15-9.9c1.9-1,3.8-2.1,5.9-3.2c5-2.6,10.2-5.2,15.5-7.8
	c1.9-0.9,3.6-1.7,7-3.4c2.8-4.6,6.1-9.1,9.9-13.5c2.4-2.9,5.3-5.7,8.6-8.4C206.5,12.3,209.1,8,212.4,0L212.4,0z M172.7,0h2.3
	c-4.3,4.7-12.4,8.9-23.6,12.3c-14.9,4.5-34,7.2-50.3,7.2c-18.4,0-24.3,7-24.2,21.5c0,1.7,0.1,3.2,0.2,6c0.2,3.3,0.2,4.5,0.2,6
	c0,5.7-1.6,11.3-4.1,16.5c-1.2,2.4-2.7,4.7-4.4,7c-4.8,5.3-9.6,10.6-14.4,15.9c-13.5,14.7-27.2,29.3-41.1,43.9
	C9.7,140,5.3,143.7,0,147v-1.6c4.5-3,8.3-6.2,11.5-9.6C29,117.2,46.3,98.6,63.3,80c1.1-1.2,2-2.2,5-5.9c4.5-6.8,6.9-13.9,6.9-21.1
	c0-1.5-0.1-2.7-0.2-6c-0.2-2.8-0.2-4.3-0.2-6c-0.1-6.8,1.1-11.6,4.3-15.3c4-4.7,11.1-7.2,22-7.2c15.9,0,34.7-2.6,49.2-7.1
	C160.8,8.3,168.5,4.4,172.7,0L172.7,0z M755.9,0h2.1c3.8,10,4.5,12.7,4.8,18.3c2.4,9.2,2.7,18.6,0.8,27.8c-2,8.8-6.4,16-13.7,21.2
	c-23.4,16.5-82.1,29.2-137,29.2c-10.5,0-21.6,0.3-33.7,0.8c-16.8,0.8-33.6,1.9-50.3,3.2c-44.5,3.3-57.1,4-74.9,4
	c-14.3,0-25.2-1.1-44.8-3.9l-5.7-0.8c-2.9-0.4-5.2-0.7-7.5-1c-16.5-2.1-29.3-2-44.8,0.7c-8.3,1.4-15.1,4.4-18.9,8.2
	c-3.3,3.1-5.2,6.1-8.3,12.8c-3.1,6.6-4.8,9.5-8.2,12.6c-4.1,4-11.4,7.1-20.3,8.4c-6.6,1-13.2,2.1-19.6,3.4
	c-13.5,2.8-20.8,5.6-28.5,10.5c-2.7,1.8-2.1,1.3-11.2,7.9c-4.1,3-9.6,5.8-17.5,9.1c-4.1,1.8-22.1,8.8-26.6,10.7
	c-15.2,6.4-26,12.1-34.3,19.1c-8.7,7.3-16.1,18.3-23.3,33.3c-1.8,3.7-3.5,7.6-5.4,12.1l-2.4,5.8l-2.2,5.4c-3.7,9-5.7,13.3-7.8,16.3
	c-14,20.4-35.6,42.2-56,51.2c-10.5,4.7-16.7,7.1-22.9,8.9c-1.9,0.5-3.8,1-6,1.6c-0.9,0.2-19.8,4.4-29.1,6.7L0,344.1v-1.1l1.6-0.4
	c9.3-2.3,28.2-6.4,29.1-6.6c2-0.5,3.9-1,5.9-1.5c6.1-1.8,12.1-4.1,22.6-8.7c20-8.9,41.5-30.5,55.4-50.8c2-2.9,4-7.2,7.7-16.1
	l2.3-5.5c2.4-6,5-12,7.9-18c7.2-15.1,14.6-26.1,23.5-33.5c8.5-7.1,19.4-13,34.7-19.4c4.5-1.9,22.4-8.9,26.6-10.7
	c7.8-3.3,13.2-6.1,17.1-8.9c9.1-6.6,8.5-6.2,11.3-8c7.8-5,15.5-7.9,29.3-10.8c5.4-1.1,11.8-2.2,19.8-3.5c8.4-1.2,15.3-4.1,19.1-7.9
	c3.3-3,5-5.8,8.3-13c2.9-6.3,4.8-9.3,8.2-12.5c4.1-4,11.3-7.1,20-8.7c15.9-2.8,29.1-2.8,46-0.8c2.3,0.3,4.7,0.6,7.6,1l7.7,1.1
	c17.5,2.5,28.2,3.6,42.2,3.6c17.7,0,30.3-0.8,74.7-4c16.7-1.3,33.5-2.4,50.4-3.2c12.1-0.5,23.3-0.8,33.9-0.8
	c54.3,0,112.3-12.6,135.3-28.8c7.1-5,11.3-12.1,13.3-20.7c1.7-7.7,1.5-16,0-23.9c-0.3-1.7-0.7-3.4-1.2-5.1
	C760.3,12.5,759.7,10.1,755.9,0L755.9,0z M39,0h2.1c-3.9,7.6-5.7,10.2-11.2,16.2c-4,4.4-5.5,9.2-5,14.9c0.4,4.3,1.5,7.7,4.7,16.1
	c2.2,5.9,3.2,8.8,4,12.2c2,8.9,0.5,16.1-5.8,22.8C19.1,91.4,9.9,100.5,0,109.4v-2.1c9.2-8.4,17.8-16.9,25.9-25.5
	c6.1-6.5,7.6-13.5,5.6-22.3c-0.7-3.4-1.7-6.3-4-12.1c-3.2-8.5-4.3-11.9-4.7-16.3c-0.5-5.8,1-10.8,5.2-15.3C33.4,9.9,35.1,7.3,39,0z
	 M617.7,0c-2.7,3.9-6.1,7.6-10.1,11.2c-5.3,4.7-8.3,8.4-10,12l-0.8,1.8l-0.6,1.5c-0.2,0.7-0.7,1.4-1.5,2.1c-1.5,1-4,1.3-10.6,1.2
	c1.9,0-20.3-0.3-31-0.3c-21,0-38.1,0.8-60.8,2.6c-34.8,2.7-36.6,2.8-48.8,2.5c-5.6-0.1-11.1-0.5-16.5-1.1
	c-36.5-4.2-95.3-5.9-112.9-3c-5.6,0.9-12.1,2.8-19.6,5.6c-4.6,1.7-9.1,3.6-13.5,5.5c-2.9,1.2-18.9,8.5-22.2,9.8
	c-3,1.2-16.9,7.4-18.3,8c-3.1,1.3-6.2,2.6-9.4,3.9c-10.3,4-18.4,6.2-24.6,6.2c-7.3,0.1-8.9,0-10.6-0.4c-2.3-0.6-3.1-1.7-2.3-3.6
	c1.5-3.6,9.2-10.8,26.5-24.8c11.7-9.5,19.4-18,24.3-26.2c3-5,4-7.4,6.1-14.5h2.1c-2.2,7.3-3.2,9.7-6.2,14.8
	c-4.9,8.3-12.7,16.9-24.6,26.4c-17.1,13.8-24.8,21-26.2,24.5c-0.6,1.4-0.2,2.1,1.2,2.5c1.2,0.3,2.8,0.3,7.2,0.3
	c8.1,0,15.9-2.1,25.8-6c2.9-1.1,5.9-2.4,9.3-3.9c1.4-0.6,15.3-6.8,18.3-8c3.3-1.3,19.3-8.5,22.2-9.8c5-2.2,9.4-4,13.6-5.5
	c7.7-2.8,14.4-4.8,20.2-5.7c18.1-2.9,77.2-1.2,114,3c5.3,0.6,10.6,1,16.1,1.1c12,0.2,13.8,0.1,48.4-2.5c22.8-1.8,39.9-2.6,61.1-2.6
	c10.7,0,33,0.3,31.1,0.3c5.9,0,7.9-0.2,8.9-0.8c0.5-0.3,0.8-0.8,1.2-1.7l0.6-1.4l0.8-1.9c1.8-3.6,4.9-7.4,10.2-12.2
	c3.9-3.4,7.1-7,9.8-10.8L617.7,0L617.7,0z M599.9,0c-12.2,17.9-19.7,22-40.8,22c-9.3,0-21.1,0.3-59.2,1.5l-3.2,0.1
	c-32.2,1-48.4,1.4-59.4,1.4c-11,0-27.3-1-59.5-3.3l-3.2-0.2c-38-2.7-49.8-3.5-59-3.5c-9.2,0-15.1,1-22.6,3.3
	c-0.2,0.1-3.7,1.2-4.7,1.5c-5,1.5-8.9,2.2-13.9,2.2c-5.8,0-8.5-1.5-8.5-4.2c0-1,0.3-2.3,1-4.1c0.3-0.8,1.9-4.4,2.2-5.3
	c1.7-4.1,2.7-7.7,3-11.4h4.1c-0.4,3.8-1.4,7.5-3.1,11.8c-0.4,0.9-1.9,4.5-2.2,5.3c-0.6,1.2-0.9,2.5-1,3.7c0,1.7,0.9,2.2,4.4,2.2
	c4.1,0,7.3-0.6,11.8-1.9c1-0.3,4.4-1.4,4.7-1.4c8.2-2.5,14.8-3.7,24.8-3.7c9.5,0,21.3,0.7,59.6,3.5l3.2,0.2
	c32,2.3,48.2,3.3,58.9,3.3c10.8,0,27.1-0.4,59.1-1.4l3.2-0.1c38.3-1.2,50-1.5,59.4-1.5c18.5,0,25.1-3.4,36.4-20H599.9z M292,0h2.3
	c-4.3,3.9-5.4,5.1-5.7,6.2c-0.3,1.1,0.9,1.6,4.8,2c3.7,0.3,7.9,0.4,22.3,0.4c12.4,0,26.8,0.6,44.1,1.6c8.2,0.5,16.6,1.1,27.1,1.9
	c49.5,3.7,46.4,3.5,55.4,3.5c49.6,0,106.9-2.2,124.7-6.9c5.9-1.6,10.4-4.5,13.6-8.6h2.2c-3.4,4.5-8.2,7.7-14.9,9.4
	c-18.2,4.8-75.7,7.1-125.7,7.1c-9.1,0-5.9,0.2-55.7-3.5c-10.5-0.8-18.9-1.4-27-1.9c-17.1-1.1-31.5-1.6-43.8-1.6
	c-14.5,0-18.8-0.1-22.6-0.4c-4.9-0.4-7-1.3-6.5-3.1C286.9,4.8,288,3.6,292,0L292,0z M449.6,0c11.7,1.6,21.4,2.5,29.1,2.5
	c19.8,0,34.5-0.7,46.2-2.5h6.1c-12.9,2.5-29.3,3.5-52.4,3.5c-9.3,0-21.3-1.2-36.2-3.5H449.6L449.6,0z M145.9,0
	c-5.9,3.3-14.3,5.4-24.8,6.5c-8.2,0.9-15.5,1.1-26.7,1c-1.2,0-2.4,0-3.6,0c-11.1,0-18.3-1.2-20.8-5c-0.5-0.8-0.8-1.7-0.8-2.5h2
	c0,0.8,0.3,1.6,0.7,2.2c2.2,3.2,8.6,4.3,18.9,4.3l3.6,0c11,0.1,18.2-0.1,26.2-1c9.3-1,16.9-2.8,22.4-5.6H145.9L145.9,0z M0,207.9
	c15.1-0.2,23.7,3.3,23.7,11.1c0,11.4-10.4,28.4-23.7,41.5v-2.3c12.2-12.7,21.7-28.5,21.7-39.2c0-7.2-7.6-10.3-21.7-10.1V207.9
	L0,207.9z M0,214.9c2.5,0.1,4.5,0.6,5.9,1.3c2.9,1.5,3.3,3.7,2.4,7.6L8,225.1c-0.4,1.3-0.7,2.6-0.8,3.9c0,3.2-3.1,9.5-7.2,15.9v-3.4
	c3.1-5.1,5.2-9.9,5.2-12.4c0-1,0.2-1.8,0.8-4l0.3-1.3c0.9-3.6,0.5-5.6-1.8-6.8c-1-0.5-2.5-0.9-4.4-1V214.9z M0,410.9v-1.5
	c2.5-1.4,4.5-3,6.1-4.7c2.7-2.7,5.5-6.3,9.4-11.9c16.2-23.5,16.2-26.6,0.5-30.4c-4.6-1.1-9.9-1.4-16.1-0.9v-1c5.7-0.6,11.7-0.2,17,1
	c17,4.1,17,7.6,0.5,31.6c-3.9,5.7-6.7,9.3-9.5,12C6,407.3,3.3,409.2,0,410.9z M69.4,452c3.5,0,6.3-0.2,17.2-1.3l4.9-0.5
	c17-1.6,26.2-1.3,30,2.3c2.8,2.8-1,5.9-9.8,9.7c-3.4,1.4-6.9,2.8-10.5,4.1c-1.9,0.7-10.1,3.6-11.9,4.3c-3.8,1.4-6.1,2.4-7.2,3
	c-2.6,1.7-4.6,3.5-6,5.5c0.1-0.2-8.3,13.6-14.4,22.2c-5.6,7.9-11.5,10.7-18.2,8.6c-4.4-1.4-7.6-4.2-13.6-11c-4.1-4.6-5.2-5.8-7-7.4
	c-9.4-8.2-8-23.9-0.1-32.9c2.4-3,7.8-5.3,14.4-6c5.3-0.7,10-0.8,24.3-0.7L69.4,452L69.4,452z M69.4,454c-2.3,0-4.3,0-7.9,0
	c-24.9-0.1-30.6,0.6-34.9,5.4c-7.5,8.5-8.8,23.5-0.1,31.1c2,1.7,3.1,2.9,7.2,7.6c5.6,6.3,8.7,9.1,12.1,10.1c3.4,1.1,7.2-0.8,12-7.5
	c5.1-7.4,9.8-14.8,14.4-22.2c1.5-2.2,3.7-4.2,6.6-6c1.3-0.9,3.8-1.9,8-3.4c1.9-0.7,10-3.6,12-4.3c4.2-1.5,7.4-2.8,10.2-4
	c7.5-3.2,10.5-5.7,8.9-7.3c-2.5-2.4-10.5-2.6-25.5-1.3l-4.8,0.5C76.1,453.8,73.3,454,69.4,454L69.4,454z M782.6,600
	c-7.1-12.3-7.8-14.1-7.8-19c0-3.3-0.3-6.3-0.9-11.3c-1.3-10.3-1.3-13.5,0.5-17.1c2.5-4.7,8.7-7.1,20-7.1H848
	c8.4,0,10.7,1.8,12.2,7.1c0.2,0.8,0.3,1,0.4,1.3c1.7,5.3,5.8,7.6,18.3,7.6c7.5,0,11.4,0.4,13.3,1.4c1.6,0.8,1.6,1.4,0.7,3.9
	c-1.8,5.3,1,8.8,15.5,13.8c13,4.5,24,5.4,34.1,3.4c7.8-1.5,13.9-4.2,24.6-10l2.3-1.2l2.2-1.2c1.8-1,3.7-1.9,5.6-2.9
	c5.8-2.8,12.4-5,19.7-6.7c3.1-0.8,3.5-0.9,11.7-2.6c12.6-2.7,18.6-4.5,24.2-7.6c5.4-3,9.6-4.8,13.8-6c6.6-1.8,11.3-2.1,28.2-2.1
	c12.3,0,21.8-4.3,37.1-15l5.8-4c2.2-1.5,4-2.7,5.8-3.8c16.2-10.1,40-10.4,63.4,1c11.4,5.5,21,19.4,28.1,38.5
	c5.2,13.8,8.6,29.5,9.2,39.8h-2.1c-0.6-10.3-4-26-9.2-39.7c-7.1-18.9-16.5-32.7-27.6-38c-22.6-11-44.9-10.7-60.4-1
	c-1.7,1.1-3.5,2.3-5.7,3.8l-5.8,4c-15.8,11-25.5,15.4-38.9,15.4c-16.6,0-21.1,0.3-27.2,2c-4,1.1-8,2.9-13.3,5.8
	c-5.9,3.3-12.1,5.1-24.9,7.9c-3.9,0.8-7.8,1.7-11.6,2.6c-7.1,1.7-13.6,3.9-19.2,6.5c-2.7,1.3-5.3,2.7-7.7,4l-2.3,1.2
	c-10.9,6-17.1,8.6-25.3,10.2c-10.9,2.1-22.5,1.2-36.1-3.5c-15.1-5.2-18.2-9.2-16.3-14.8c0.7-2.1,0.7-2.6-0.2-3.1
	c-1.3-0.7-4.8-1-11.8-1c-13.7,0-18.5-2.6-20.4-8.4l-0.4-1.3c-1.4-4.8-3.2-6.2-10.2-6.2h-53.6c-10.3,0-15.7,2-18,6.3
	c-1.8,3.4-1.8,6.6-0.5,16.8c0.5,3.8,0.8,7.6,0.9,11.4c0,4.8,0.7,6.6,7.9,19L782.6,600L782.6,600z M810.8,600
	c-2.7-6.6-3.3-10.7-2.8-14.8c0.1-0.7,0.2-1.4,0.4-2.4l0.5-2.6c0.7-3.8,1-7,1-11.2c0-4.9,3-7.8,8.7-8.4c4.9-0.6,11.5,0.5,19,3
	c13.7,4.5,28.9,13.1,34.1,19.2c9.8,11.4,29.1,15.7,69.2,15.7c17.7,0,29.5-2.3,42.6-7.9c3-1.3,31.1-15,43.3-20
	c14.9-6.1,24.3-7.6,42.5-8.3c11.4-0.5,16.5-0.9,23.6-2.4c9.5-2,19.3-5.5,30.7-11.3c15.3-7.8,27.3-8.9,36-4.3
	c6.9,3.6,11.3,10.6,14.1,20.2c1.5,5.2,1.9,7.7,3.3,17.4c0.5,3.8,0.4,5.3-1.9,18h-2.1c2.2-12.7,2.4-14.3,1.9-18
	c-1.3-9.6-1.8-12.2-3.2-17.3c-2.7-9.5-7.1-16.3-13.5-19.7c-7.8-4.1-18.4-3.1-33,4.3c-11.7,5.9-21.7,9.5-31.5,11.5
	c-7.4,1.5-12.6,2-23.9,2.4c-18.2,0.7-27.2,2.2-41.7,8.1c-12.2,5-40.2,18.7-43.3,20c-13.5,5.7-25.7,8.1-44,8.1
	c-40.8,0-60.9-4.4-71.1-16.3c-5.1-6-20-14.4-33.4-18.8c-7.1-2.3-13.1-3.3-17.3-2.9c-4.5,0.5-7.1,2.9-7.1,7.5c0,4.3-0.3,7.5-1,11.3
	l-0.5,2.6c-0.2,0.9-0.3,1.7-0.4,2.3c-0.5,4.1,0.1,8.2,2.9,14.8L810.8,600L810.8,600z M1045.5,600c5.2-3.3,18.4-11.8,22.5-14.3
	c11.3-7,26.9-12.4,40-13.9c14.5-1.7,23.7,1.5,23.7,9.2c0,4-0.1,5.2-1.5,19h-2.1c1.4-13.8,1.5-15,1.5-19c0-7.1-8-9.8-21.2-8.3
	c-12.6,1.5-27.9,6.8-38.9,13.6c-3.8,2.4-15.8,10.1-21.5,13.7H1045.5L1045.5,600z M1025.1,261c7.1,2.7,14.4,5.1,23.6,7.8
	c2.2,0.6,17.4,4.9,21.4,6.1c23.3,7,31,13.4,25.5,25.3c-3,6.5-9.3,11.1-19.4,14.4c-7.9,2.6-16.7,4.3-33.2,6.6
	c-24.7,3.5-28.2,4-38.8,6.3c-5.6,1.2-11,2.6-16.1,4.2c-22.9,7.1-39.4,7.7-57.7,3.3c-7.3-1.8-35.5-11-35.5-11
	c-3.5-1.1-7.1-2.1-10.7-3.1c-33.1-8.8-70.7-24.2-71.2-31.9c-0.2-3.5,4.1-6.6,13-10.3c2.1-0.9,4.5-1.8,7.6-3c1.5-0.5,7-2.6,8.1-3
	c9.2-3.4,14.8-5.8,19.2-8.5c22.9-13.8,54.8-28.7,70.9-32.3c24.9-5.5,40.9-5.8,56.5,0.1c6.7,2.5,11.7,6.5,17.7,13.4
	c0.6,0.6,4.7,5.4,5.9,6.7c3.3,3.6,6,5.8,8.7,6.9C1022.1,259.8,1023.6,260.4,1025.1,261L1025.1,261z M1017.9,260.8
	c-3.4-1.4-6.3-3.7-9.8-7.6c-1.2-1.3-5.4-6.1-5.9-6.8c-5.8-6.5-10.5-10.3-16.5-12.6c-14.1-5.4-28.6-5.1-52.2,0.1
	c-15.4,3.4-46.8,18.1-69.4,31.7c-4.7,2.8-10.5,5.3-20,8.8l-8.1,3c-2.5,0.9-5,1.9-7.4,2.9c-8,3.3-11.7,6-11.5,8.7
	c0.4,6.6,37.4,21.7,69.1,30.1c3.6,1,7.2,2,10.9,3.1c0.2,0.1,28.1,9.2,35.1,10.9c17,4.1,31.9,3.5,53.6-3.2c5.3-1.6,10.9-3.1,16.7-4.3
	c10.8-2.4,14.4-2.9,39.4-6.4c16.1-2.2,24.6-3.8,32-6.3c9.2-3,14.9-7.2,17.7-13.2c5-11-1.7-16.6-23.6-23.2c-3.9-1.2-19-5.4-21.3-6.1
	c-9.3-2.7-16.8-5.1-24-7.9C1021,262,1019.5,261.4,1017.9,260.8L1017.9,260.8z M181,241.6c8.9-3,16.3-5,25-6.9
	c1.7-0.4,3.6-0.8,5.7-1.2l9-1.9c12.6-2.6,24.8-5.6,36.6-9c18.7-5.3,37.9-10.1,57.5-14.5c8.7-1.9,45.2-9.8,43.7-9.5
	c39.6-8.6,58-6.9,102.1,8.1c16.3,5.5,27.3,13.2,33.9,22.7c6.2,8.8,7.8,16.5,7.8,27.8c0,8.3-1.4,13-7.6,19
	c-8.6,8.4-25.4,16.1-52.8,23.5c-50.4,13.5-80.1,27.5-109,47.8c-18.2,12.8-98.5,44.2-134.4,54.1c-43.8,12.1-97.7,22.1-134.6,22.1
	c-20.7,0-30.3-4.8-30.5-13.4c-0.1-6.3,4.3-13.7,13-24.3c6.1-7.4,4.2-12.9-4.5-22.3c-6.6-7.2-8-9.1-8-12.5c0-3.4,3.9-6.9,11.4-11.1
	c5.4-3,7.2-3.8,24.6-11.5c10.5-4.7,16.7-7.6,22.1-10.8c19.5-11.4,26-19.5,36.9-44.8c6.4-15,13.7-20.3,31.2-25.2
	c1.7-0.5,8.2-2.2,9.7-2.7C173.7,243.9,177.4,242.8,181,241.6L181,241.6z M182.2,242.4c-3.6,1.2-7.4,2.4-11.2,3.4l-9.7,2.7
	c-17,4.8-23.9,9.8-30.2,24.6c-10.9,25.5-17.6,33.7-37.3,45.2c-5.5,3.2-11.7,6.2-22.3,10.8c-17.2,7.6-19.1,8.5-24.4,11.4
	c-7.2,4-10.9,7.4-10.9,10.4c0,3.2,1.4,5.1,7.8,12.1c8.8,9.6,10.8,15.4,4.5,23.1c-8.6,10.5-13,17.8-12.8,23.9
	c0.2,8.1,8.8,12.4,28.4,12.4c36.5,0,90.1-9.9,133.6-21.9c35.7-9.9,115.8-41.2,133.8-53.9c29.1-20.4,58.9-34.6,109.7-48.2
	c27.1-7.2,43.5-14.9,51.9-23c6-5.9,7.4-10.4,7.4-18.5c0-11.1-1.5-18.7-7.6-27.4c-6.5-9.2-17.2-16.8-33.2-22.2
	c-43.6-14.8-61.3-16.4-100.1-7.9c1.4-0.3-35,7.6-43.7,9.5c-3.5,0.8-6.8,1.6-10,2.3c-16.1,3.7-31.9,7.8-47.3,12.2
	c-11.9,3.4-24.2,6.4-36.8,9l-9,1.9c-2.1,0.4-4,0.8-5.7,1.2C198.2,237.5,189.9,239.8,182.2,242.4z M166.5,254.6
	c15.9-6.2,25.4-8.2,48.9-11.3c12.6-1.7,18.8-2.9,25.4-5.7c7.8-3.3,15.4-4.5,32.7-6.1c5.7-0.5,7.6-0.7,10.4-1
	c11.3-1.2,19.6-2.9,27-5.9c21.5-8.5,52.4-14.1,74.9-14.1c11,0,34.6,7.6,53.1,17.2c22.1,11.5,32.9,23.3,26.3,32.5
	c-6.6,9.1-23.5,18.6-47.5,27.9c-17.4,6.7-37.9,13-52,16.4c-7.7,1.9-13.6,4.9-20.2,10c-1.4,1.1-22.9,20.2-33.1,27.8
	c-11.6,8.6-31.8,17.4-62.4,28c-6.3,2.2-12.6,4.3-19,6.4c-0.3,0.1-14.1,4.6-17.7,5.9c-13.3,4.5-21.4,7.4-26.9,9.8
	c-24,10.7-76.6,15.5-90.2,9c-4-2-4.5-4.1-4-10.5c0.8-9.4-1-14.5-10.2-20.5c-4.1-2.6-9-5-14.5-6.9c-8.1-3-12.5-6.1-13.5-9.5
	c-2-6.6,8-13.1,29.2-21.7c3.3-1.3,13.8-5.4,14.6-5.8c3.8-1.5,7.4-3.1,10.8-4.8c8.5-4.6,12.1-9.5,16.1-20.1c0.6-1.5,1.1-2.9,1.7-4.4
	c0.7-1.9,1.2-3.3,1.8-4.7c1.5-3.8,3.1-7.2,5-10.6c2.1-3.8,2.8-5.5,4.9-10.4c1.2-3,1.9-4.2,3.2-5.5
	C143.7,263.6,143.8,263.5,166.5,254.6L166.5,254.6z M167.8,255.4c-22.2,8.7-22.4,8.8-24.8,11.1c-1.2,1.2-1.8,2.3-3,5.2
	c-2,4.9-2.8,6.6-4.9,10.4c-1.9,3.4-3.4,6.8-4.9,10.6c-0.9,2.3-1.8,4.6-2.7,7l-0.8,2.1c-4.1,10.7-7.8,15.7-16.6,20.5
	c-3.4,1.8-7.1,3.4-11,4.9c-0.9,0.3-11.3,4.5-14.6,5.8c-20.7,8.4-30.4,14.6-28.5,20.8c0.9,3.1,5,6,12.7,8.8
	c6.2,2.2,11.1,4.6,14.9,7.1c9.6,6.2,11.4,11.5,10.6,21.1c-0.5,6.1,0,8.1,3.4,9.8c12.6,6.1,64,1.3,87.3-9c5.7-2.5,13.7-5.4,27.2-9.9
	l17.7-5.9c7.5-2.5,13.3-4.4,19-6.4c30.4-10.5,50.4-19.2,61.8-27.7c10.1-7.5,31.6-26.7,33.1-27.8c6.7-5.3,12.9-8.4,21-10.4
	c14-3.4,34.4-9.6,51.6-16.3c23.8-9.2,40.5-18.5,46.9-27.4c6.3-8.8-4.2-20.3-25.8-31.5c-18.2-9.4-41.3-16.8-51.6-16.8
	c-22,0-52.5,5.5-73.6,13.9c-7.8,3.1-16.3,4.8-27.9,6.1c-2.9,0.3-4.8,0.5-10.5,1c-16.9,1.6-24.3,2.7-31.7,5.9
	c-6.9,2.9-13.3,4.2-26.2,5.9C192.7,247.4,183.4,249.2,167.8,255.4L167.8,255.4z M437.4,251.9c0,7.6-1.2,10.9-5.4,14.3
	c-2.3,1.8-15.8,10-17.7,11.3c-12.3,7.9-19.3,10.3-35.6,13.8c-2.8,0.6-4.5,1-6.3,1.5c-1.1,0.3-2.5,0.7-4.1,1
	c-1.5,0.3-9.2,1.9-11.4,2.4c-12.5,2.8-18.5,5.8-18.5,10.7c0,11-39.1,36.1-71.2,44.9c-16.9,4.6-43.9,9.4-67.6,11.9
	c-27.5,2.9-46.4,2.5-50.8-2.3c-2.7-3-9.1-4.3-24.7-5.8l-1.2-0.1c-10-1-14.3-1.5-18.6-2.6c-6-1.5-9.2-3.7-9.2-6.8
	c0-2.7,2.2-5.8,6.7-9.7c1.8-1.5,3.8-3.1,6.7-5.4c-0.3,0.2,5.8-4.4,7.6-5.8c13.8-10.7,20.3-18.5,20.3-27.2
	c0-18.4,23.2-33.4,56.7-42.9c10.8-3.1,19-3.3,31.4-2.1c10.4,1,12.5,0.9,15.3-1.5c9.3-7.9,14.5-9.5,32.7-9.5c8.1,0,14.4-1,21.6-3.2
	c3.2-1,17.9-6.2,22.7-7.7c19-6,23.4-7,52-11.9c14.3-2.5,31.3,1.3,46.1,9.1C428.2,235.4,437.4,244.8,437.4,251.9L437.4,251.9z
	 M433.3,251.9c0-6.5-8.8-15.5-21.6-22.3c-13.8-7.3-29.2-10.7-41.6-8.6c-28.3,4.9-32.5,5.9-51.2,11.8c-4.6,1.5-19.3,6.7-22.7,7.7
	c-7.8,2.4-14.9,3.5-23.8,3.5c-16.7,0-20.6,1.2-29.2,8.5c-2.3,1.9-5.2,2.9-9,3.1c-2.7,0.1-3.9,0.1-10.8-0.6
	c-11.4-1.1-18.7-0.9-28.5,1.9c-32.4,9.2-54.7,23.5-54.7,41.1c0,9.2-6.8,17.3-20.9,28.3l-7.6,5.8c-2.9,2.2-4.8,3.8-6.5,5.2
	c-4.2,3.6-6.2,6.4-6.2,8.7c0,4.2,5.9,5.7,24.6,7.5l1.3,0.1c17.1,1.7,24.1,3.1,27.6,7c6.5,7.1,74.3,0,112.7-10.5
	c30.9-8.4,69.1-33,69.1-43.1c0-5.9,7.2-9.5,21-12.5c2.3-0.5,10-2.1,11.4-2.4c1.5-0.3,2.7-0.6,3.7-0.9c1.9-0.5,3.8-1,6.7-1.6
	c15.8-3.4,22.2-5.5,34-13.1c2.1-1.4,15.4-9.4,17.5-11.1C432.2,262.1,433.3,259.1,433.3,251.9L433.3,251.9z M356.6,229.5
	c0.3-0.1,5-1.5,6.1-1.8c2-0.6,3.5-0.9,5-1.2c5.3-0.8,10.4-0.1,22.8,3.1c30.7,8,40.1,22.9,18.9,38.7c-8.3,6.2-19.3,9-38.6,11.1
	c-1.8,0.2-2.5,0.3-6.5,0.7c-12.5,1.3-18.1,2.1-23.9,3.6c-7.5,2-12.6,5-15.5,9.4c-16.2,24.9-40.7,43.3-74.9,50.3
	c-33.9,6.9-43.6,8.5-57.7,8.9c-10.2,0.2-20.2-0.6-31.8-2.9c-4-0.7-7.9-1.6-11.6-2.6c-8.3-2.3-10.6-4.7-9.3-9.3
	c0.6-2.1,7.8-15.5,10-20.6c1.3-3,2.5-6.1,3.6-9.7c1-3,1.9-5.9,2.8-8.9c2.9-9.4,5.2-14.3,9.3-18.6c5.1-5.4,12.6-9,24.2-11.1
	c13.6-2.5,21.7-3.1,37.2-3.5c9.8-0.3,13.8-0.6,18.6-2c1.3-0.4,2.5-0.8,3.8-1.3c2.5-1,4.8-2.2,7-3.4c1.2-0.7,4.9-2.9,5.4-3.2
	c6.9-4,13-5.5,25.4-5.5c8.1,0,12.2-0.9,16.9-3.4c-0.4,0.2,5.7-3.1,7.9-4.2c4.2-2,8.9-3.7,14-5c3.1-0.8,6.5-1.6,10.3-2.4
	C343.1,233.1,350,231.4,356.6,229.5L356.6,229.5z M326.6,237.8c-5,1.3-9.5,2.9-13.6,4.8c-2.7,1.4-5.3,2.8-7.9,4.2
	c-5.1,2.6-9.7,3.7-18.4,3.7c-11.8,0-17.3,1.4-23.9,5.2c-0.5,0.3-4.2,2.5-5.4,3.2c-2.2,1.3-4.6,2.4-7.2,3.5c-1.3,0.5-2.7,1-4,1.4
	c-5.2,1.5-9.4,1.9-19.5,2.2c-15.2,0.4-23.2,1-36.6,3.5c-11,2-18.2,5.4-23,10.6c-4,4.3-6.2,9.1-9.1,18.4l-1.3,4.3l-1.4,4.6
	c-1.2,3.6-2.3,6.7-3.6,9.7c-2.2,5.2-9.4,18.5-10,20.6c-1.2,4.2,0.7,6.2,8.3,8.3c2.8,0.8,6.4,1.6,11.4,2.5c11.3,2.2,21,3,30.9,2.8
	c13.8-0.3,23.4-1.9,57.1-8.8c33.4-6.8,57.6-25,73.7-49.7c3.1-4.7,8.5-7.9,16.4-10c6-1.6,11.8-2.5,24.5-3.8c4-0.4,4.7-0.5,6.4-0.7
	c18.8-2.1,29.4-4.7,37.3-10.7c20.5-15.3,11.5-29.6-18.2-37.3c-11.9-3.1-16.6-3.8-21.1-3.1c-1.3,0.2-2.7,0.5-4.6,1.1
	c-1.1,0.3-5.7,1.7-6,1.8c-6.7,2-13.7,3.7-21,5.2C333,236.2,329.7,237,326.6,237.8L326.6,237.8z M239.2,270.5c33.3-2.9,54.4-1,67,6.2
	c10.5,5.9,2.3,21.4-12.2,35.5c-9.9,9.6-21.9,16.2-47.8,25.2c-29.2,10.1-73.2,12.2-84,3.9c-3.8-3-4.3-8.1-2.2-15.7
	c1.6-5.7,3.8-10.7,9.8-23l0.2-0.5c3.3-6.8,4.9-10.3,6.5-14.1c3-7.2,7.7-11.5,15-13.7c5.8-1.8,11.4-2.3,25.4-2.6
	C227.9,271.3,232.5,271.1,239.2,270.5L239.2,270.5z M239.5,271.5c-6.8,0.6-11.5,0.8-22.6,1c-13.7,0.3-19,0.8-24.4,2.5
	c-6.7,2.1-11.2,6.1-14.1,13.1c-1.6,3.8-3.2,7.4-6.5,14.2l-0.2,0.5c-5.9,12.2-8.1,17.3-9.7,22.9c-2.1,7.4-1.6,12.4,1.9,15.1
	c9.9,7.7,52.7,5.7,81.1-4.1c25.6-8.9,37.4-15.4,47.1-24.8c14.2-13.7,22.2-29,12.5-34.5C292.5,270.5,272.2,268.7,239.5,271.5z
	 M272.4,276.5c14.7,0,22,3.1,23.2,8.7c0.9,4-0.9,8.1-5.7,15.9c-5.3,8.5-37.9,25.4-56.1,31.3c-14.5,4.7-41.3,5.7-54.8,1
	c-8.2-2.9-7.3-12.1,0-26.5c1.4-2.8,3-5.6,4.9-8.8c2-3.4,4.1-6.8,6.3-10.1l0.8-1.2c3.1-4.8,10.5-7.8,22.1-9.3
	c9.1-1.2,19.7-1.5,36.1-1.3l8,0.1C265.1,276.5,268.3,276.5,272.4,276.5z M272.4,277.5c-4.1,0-7.3,0-15.3-0.1l-8-0.1
	c-16.2-0.2-26.7,0.1-35.5,1.3c-11,1.4-17.9,4.2-20.7,8.6c-1.1,1.7-2.2,3.5-3.3,5.2c-1.4,2.2-2.6,4.2-3.8,6.1c-1.9,3.1-3.5,6-4.9,8.7
	c-7.1,13.9-8,22.9-0.8,25.4c12.7,4.4,38.6,3.5,52.5-1c17.9-5.8,50.2-22.5,55.3-30.7c4.7-7.7,6.5-11.7,5.6-15.6
	C292.4,280.2,286,277.5,272.4,277.5L272.4,277.5z M235.7,284.5c6,0.1,12,0.5,17.7,1.4c11.2,1.8,18,5,18,10.1
	c0,9.6-19.6,17.2-46.1,21.5c-20.3,3.3-28.1-1.8-24.1-16.5c1.7-6.3,7.9-10.7,17-13.5C223.5,285.9,229.4,284.8,235.7,284.5z
	 M234.4,285.6c-5.4,0.4-10.5,1.3-15.1,2.7c-8.6,2.6-14.4,6.8-16,12.8c-3.9,14.1,2.8,18.5,21.3,15.5c25.7-4.2,44.7-11.5,44.7-20.5
	c0-4.6-6.1-7.5-16.6-9.1c-5.5-0.9-11.2-1.3-16.9-1.4C235.5,285.5,235.1,285.5,234.4,285.6z M401.3,262.1c-5.6,9.8-30.8,9.9-55.1,3.3
	c-21-5.6-28.5-18-10.3-22.9c3.2-0.8,6.2-1.7,9.2-2.7l4.2-1.3c2.6-0.8,5.3-1.6,8.1-2.3c9.8-2.4,18.2-2.8,28.9-0.7
	C405.1,239.2,408.9,248.9,401.3,262.1L401.3,262.1z M358.3,237.1c-2.7,0.7-5.4,1.4-7.9,2.2l-4.2,1.3c-1.7,0.5-3.1,0.9-4.5,1.4
	c-1.7,0.5-3.3,1-4.9,1.4c-16.4,4.4-9.5,15.8,10.3,21.1c23.3,6.3,47,6.2,52.2-2.7c7.4-12.8,3.8-22-13.8-25.4
	C375.4,234.5,367.5,234.8,358.3,237.1L358.3,237.1z M395.1,249.3c0,5.7-5,9-13.7,10c-6.8,0.8-15.6,0-22.9-1.8l-3.9-0.9
	c-1.4-0.3-2.4-0.6-3.4-0.9c-8.4-2.4-8.5-5,0.7-10.9C366,235.6,395.1,237.5,395.1,249.3L395.1,249.3z M393.1,249.3
	c0-5.3-5.9-8.6-15.1-9.2c-8.7-0.6-18.5,1.4-24.3,5.2c-8.6,5.5-8.5,7.4-1.3,9.5c0.9,0.2,1.9,0.5,3.3,0.9l3.9,0.9
	c6.9,1.7,15.2,2.4,21.5,1.7C388.7,257.4,393.1,254.5,393.1,249.3L393.1,249.3z M798.5,530.3c0-12.8,5-16.7,38.1-29.8
	c4.9-1.9,10.2-3.7,15.7-5.2c5.4-1.5,11-2.8,17.5-4.2c2.6-0.5,5.1-1,8.5-1.7l8.1-1.6c19.4-3.8,28.4-6.7,34.3-12
	c2.5-2.2,4.6-4.4,6.7-6.8c1.1-1.3,2.2-2.6,3.2-3.8l0.6-0.7l1.2-1.4c6.6-8,12.5-12.1,26.2-16.5c3.7-1.2,7.1-2.5,10.2-4
	c2.9-1.3,5.5-2.8,8-4.3c0.6-0.3,5.3-3.2,6.6-4c7.2-4.1,13.4-5.9,23.7-5.9c6.4,0,11.6-0.6,19.7-2.1c11.2-2,13.5-2.3,18.5-2.2
	c5.2,0.1,10,1.3,14.8,3.6c2.7,1.3,11.5,5.8,13.5,6.8c10.4,5,19.5,6.9,36.7,6.9c8.3,0,16.6,0.2,24.9,0.5c32.9,0.9,45.3,0.6,52.2-2.2
	c14.3-5.8,24-2.7,24,7.8c0,10.7-17.7,20-39.2,20c-9.9,0-17.2,1.4-19.3,3.7c-2.3,2.5,1.4,6.1,12.3,10.6
	c28.1,11.3,23.2,20.8-15.8,20.8c-11-0.1-21.7,1.8-30.1,5.2c-6.8,2.7-12,5.9-20.3,11.8l-3.1,2.2c-6.4,4.6-10.3,7.1-15.1,9.4
	c-12.8,6.2-19.2,7.6-26.9,6.9l-2.1-0.2c-1.8-0.2-3.6-0.4-5.5-0.4c-3.3,0-5,0.7-16.9,6.2c-10,4.7-16.7,6.8-24.4,6.8
	c-2.7,0-7.1,1.2-13.3,3.5c-2.6,1-5.5,2.1-9.3,3.7l-10.2,4.3c-3.1,1.3-6.2,2.6-9.4,3.8c-19.3,7.6-32.2,10.2-41.7,6.5
	c-5.6-2.2-8.5-4.5-9.6-7.3c-0.8-2-0.5-3.6,0.6-7.3c1.8-5.8,1.3-8.4-3.8-11.6c-4.8-3-6.1-3.2-7.8-2.4c-0.5,0.3-2.8,1.6-3.3,1.9
	c-4.6,2.5-10,3.6-18.6,2.8c-9.5-0.8-11.5-4.1-9.7-10.1l0.5-1.6c1.2-3.7,1.4-4.9,0.5-5.8c-0.9-0.9-3.9-0.9-10.8,0.4l-1.5,0.3
	c-28.4,5.5-31.5,6.1-40.1,6.7C805.3,539,798.5,536.6,798.5,530.3L798.5,530.3z M802.6,530.3c0,5,4.4,6.6,14.5,5.9
	c8.1-0.5,11.2-1.1,39.1-6.5l1.5-0.3c8.6-1.7,13.8-1.5,16,0.6c1.5,1.4,1.3,2.8-0.1,7l-0.5,1.5c-1.5,5-0.1,7.3,6.4,7.8
	c7.1,0.6,11.1-0.2,14.8-2.2c0.4-0.2,2.8-1.7,3.5-2c3.9-2,7.9-1.2,14,2.5c6,3.7,6.5,6.8,4.6,13.1c-2.1,6.8-1.1,9.4,7.5,12.7
	c7.2,2.8,18.8,0.5,36.5-6.5c2.8-1.1,5.7-2.3,9.3-3.8l10.2-4.3c3.8-1.6,6.7-2.8,9.5-3.8c6.9-2.6,11.8-3.9,15.8-3.9
	c6.3,0,12.3-1.9,21.5-6.2l5.1-2.4c1.9-0.9,3.4-1.6,4.9-2.1c3.7-1.5,6.8-2.3,9.8-2.3c2.1,0,3.7,0.1,6.4,0.4c1.4,0.2,1.5,0.2,2,0.2
	c6.1,0.6,11.2-0.5,23.2-6.3c4.5-2.2,8.4-4.7,14.6-9.1l3.1-2.2c8.6-6.1,13.9-9.4,21.1-12.2c9.1-3.8,20.8-5.8,32.8-5.7
	c34.8,0,38.4-7,13.1-17.2c-12.2-4.9-16.8-9.4-13.5-12.9c2.9-3.1,11.7-4.8,23-4.8c19.1,0,35.1-8.3,35.1-18c0-8.9-5.9-10.8-17.2-6.2
	c-8.1,3.3-20.6,3.6-55,2.7l-2.1-0.1c-10.5-0.3-16.5-0.4-22.6-0.4c-18.3,0-28.4-2.1-39.6-7.5c-2.1-1-10.9-5.5-13.5-6.8
	c-4.1-2-8-2.9-12.1-3c-4.2-0.1-6.3,0.2-16.8,2.1c-8.6,1.5-14.2,2.2-21.2,2.2c-8.9,0-14.1,1.5-20.6,5.2c-1.3,0.7-6,3.6-6.6,4
	c-2.6,1.6-5.4,3.1-8.3,4.5c-3.3,1.6-7,3-10.8,4.2c-12.9,4.2-18.4,7.9-24.7,15.6l-1.2,1.4l-0.6,0.7c-1.1,1.3-2.1,2.6-3.2,3.9
	c-2,2.4-4.3,4.7-6.9,7c-6.5,5.9-16.1,9-36.4,13l-8.1,1.6c-3.3,0.6-5.9,1.1-8.4,1.7c-5.9,1.2-11.6,2.6-17.1,4.1
	c-5.3,1.5-10.4,3.2-15.2,5C807,514.8,802.6,518.2,802.6,530.3L802.6,530.3z M1077.5,450.5c6.3,1.5,13.5,2,22,1.7
	c5.2-0.2,10.1-0.6,18.2-1.5c11.1-1.2,13.1-1.4,17.2-1.5c5.7-0.2,9.9,0.2,13,1.4c3.3,1.3,4,2.7,2.6,4.2c-1.4,1.4-2.2,1.7-10.4,5.1
	c-7.3,2.9-10.4,4.8-10.4,7.1c0,7.3,2.7,10,16.2,15.6c8,3.3,12.2,6.8,10.9,9.6c-1.5,3.2-10.2,5-26,5c-14.8,0-26.2,4.6-41.3,14.7
	c-1,0.7-8.2,5.6-10.2,6.9c-2.9,2-6.1,3.8-9.7,5.5c-2.2,1-4.3,1.7-6.4,2.2c-5.9,1.3-10.4,1.6-20.3,1.7c-15.8,0.3-22.4,1.5-30.9,7.1
	c-3.3,2.2-6.4,4-9.7,5.6c-5.3,2.6-11.3,4.8-17.8,6.7c-0.3,0.1-22.1,6.2-30.5,8.8c-7.8,2.4-13.3,2-17-0.8c-2.6-2-3.9-4.5-5.9-10.3
	c-1.7-5.1-2.6-7.1-4.3-8.9c-2-2.3-4.6-3.2-8.3-2.9c-12.8,1.2-18.5,1.4-22.7,0.2c-4.9-1.4-6.5-4.6-5.4-10.7c0.3-2-2.1-2.9-7.8-3
	c-4.6-0.1-10.1,0.2-20.5,1.1l-1.4,0.1c-16.4,1.5-22.1,1.7-26.2,0.7c-6-1.4-3.3-5.3,8.7-12.2c11.3-6.5,21.9-10.8,32.5-13.5
	c7.7-2,12.3-2.6,25.1-4.1c15-1.7,21.5-3.5,29-9.3c6.1-4.8,22.2-18.6,25-20.8c7.4-5.7,14-9.1,22.8-11.3c5.4-1.4,9.7-2.8,18.9-6.1
	l2.8-1c16.2-5.7,25.4-8,36.5-8c8.7,0,13.4,1.4,18.8,4.8c0.7,0.4,3.4,2.2,4.1,2.7c1.8,1.1,3.3,2,5.1,2.8
	C1067.8,447.7,1072.4,449.3,1077.5,450.5L1077.5,450.5z M1076.6,451.4c-5.8-1.4-10.3-3-14.3-5c-1.8-0.9-3.4-1.8-5.2-2.9
	c-0.7-0.5-3.5-2.2-4.1-2.7c-5.1-3.2-9.2-4.4-17.2-4.4c-10.5,0-19.4,2.2-35.3,7.8l-2.8,1c-9.3,3.3-13.7,4.7-19.2,6.1
	c-8.4,2.1-14.8,5.5-22,11c-2.9,2.2-18.9,16-25.1,20.8c-7.8,6.1-14.7,8-30.2,9.8c-12.6,1.5-17.1,2.1-24.6,4
	c-10.4,2.7-20.7,6.9-31.9,13.3c-11.2,6.5-13.5,9.7-9.4,10.7c3.5,0.8,9.2,0.6,25-0.8l1.4-0.1c10.6-0.9,16.1-1.3,21-1.1
	c6.6,0.2,10.2,1.5,9.7,4.1c-1,5.8,0.4,8.6,4.4,9.8c3.6,1,9,0.9,21.2-0.3c4.8-0.5,8.3,0.8,10.6,3.5c1.7,2,2.6,4,4.3,8.8l0.1,0.4
	c1.9,5.7,3.2,8.1,5.6,10c3,2.3,7.3,2.6,14.1,0.5c8.5-2.7,30.3-8.8,30.6-8.8c6.4-1.8,12.2-4,17.5-6.5c3.4-1.7,6.6-3.5,9.5-5.5
	c8.9-6,16.1-7.2,32.5-7.5c9.6-0.2,13.9-0.5,19.5-1.7c1.9-0.4,3.8-1.1,5.9-2c3.5-1.6,6.7-3.4,9.5-5.4c2-1.3,9.1-6.2,10.2-6.9
	c15.5-10.3,27.3-15.1,43-15.1c14.9,0,22.7-1.6,24-4.2c1.1-2.3-2.8-5.5-10.3-8.6c-13.9-5.8-16.9-8.8-16.9-16.4
	c0-2.7,3.4-4.7,11.1-7.9c7.8-3.2,8.7-3.6,9.9-4.7c1-1.1,0.5-2-2-3c-4.6-1.9-9.7-1.6-28.4,0.4c-8.1,0.9-13.1,1.3-18.4,1.5
	C1090.8,453.6,1083.3,453,1076.6,451.4L1076.6,451.4z M1018.8,447.5c11.7-2.8,18.5-2.2,26.6,1.4c1.2,0.5,5.4,2.5,6.2,2.9
	c8.7,3.9,16.7,5.7,29.5,5.7c23.5,0,28.9,1.4,33.2,8.1c0.5,0.8,2.8,4.6,3.4,5.6c1.7,2.6,3.4,5,5.6,7.6c4.4,5.2,5.4,8.3,3.5,10.2
	c-1.6,1.6-4.3,2.2-11.1,2.8c-4.8,0.4-5.8,0.5-7.9,0.9c-3.8,0.6-6.9,1.4-9.5,2.7c-2.1,1-4.2,2.1-6.8,3.7c-1.2,0.7-6,3.5-7.1,4.1
	c-14.9,8.5-25.6,12.4-40.4,12.4c-7.8,0-14.3,1.3-21.9,4c-3.8,1.4-24,10.3-31.4,13.1c-5.9,2.2-12,4.1-18.5,5.9
	c-9.5,2.5-15.2,3.2-18.5,2.2c-2.7-0.8-3.4-2.1-4-5.5c-0.1-0.6-0.2-1.2-0.3-1.8c-1.1-4.7-4.6-6.9-14.8-6.9c-14.7,0-18.3-1.2-20.1-5.4
	c-2-4.6-4.3-6.7-13.5-9.7c-8.2-2.6-8.9-5.4-3.1-8.2c4.1-2,9.6-3.5,23.4-6.9c13.6-3.3,19-4.8,22.9-6.7c4.1-2,7.8-4.1,10.9-6.5
	c2-1.5,3.8-3,5.9-5.1l4.4-4.3c1.9-1.8,3.5-3.4,5.4-5C982.8,458.4,992.3,454,1018.8,447.5L1018.8,447.5z M972.7,469.2
	c-1.8,1.6-3.5,3.1-5.4,4.9l-4.4,4.3c-1.8,1.8-3.8,3.5-6.1,5.2c-3.2,2.4-7,4.6-11.2,6.6c-4.1,2-9.5,3.5-23.4,6.9
	c-13.6,3.3-19,4.8-22.9,6.7c-4.8,2.3-4.3,4.4,2.8,6.7c9.7,3.1,12.3,5.5,14.4,10.3c1.6,3.7,4.3,4.6,18.1,4.6
	c11.3,0,15.6,2.6,16.8,7.8c0.1,0.5,0.2,0.8,0.4,1.8c0.5,3.1,1.1,4.2,3,4.7c2.5,0.7,7.6,0.1,16.5-2.2c6.4-1.7,12.4-3.7,18.2-5.8
	c7.3-2.7,27.5-11.7,31.4-13.1c7.8-2.8,14.8-4.2,23.1-4.2c14,0,24.3-3.7,38.9-12l7.1-4.1c2.2-1.3,4.5-2.5,7-3.7
	c2.9-1.4,6.4-2.4,10.3-2.9c2.3-0.3,3.3-0.5,8.2-0.9c6.1-0.5,8.4-1,9.6-2.2c1.6-1.6,0.6-4.5-3.6-9.4c-2.1-2.5-4-5.1-5.7-7.7
	c-0.6-1-2.9-4.8-3.4-5.6c-4-6.2-8.6-7.4-31.2-7.4c-13.4,0-21.9-1.9-30.9-6c-0.9-0.4-5.1-2.4-6.2-2.9c-7.5-3.3-13.5-3.9-24.3-1.2
	C993.6,454.8,984.4,459.1,972.7,469.2L972.7,469.2z M1088,481.2c-6.1,6.5-34.6,15.3-55.2,15.3c-11,0-15.6-3-14.7-7.9
	c0.7-3.5,4.3-7.9,8.1-10.6l3.1-2.3c1.2-0.9,2.5-1.8,3.9-2.7c7.6-4.8,16.2-7.5,28.1-7.5C1080.1,465.5,1093.9,475,1088,481.2
	L1088,481.2z M1086.1,480.7c5.2-5.5-7.5-14.3-24.8-14.3c-11.1,0-19.3,2.5-26.5,7.1c-1.2,0.8-2.4,1.6-3.8,2.6c0,0-2.5,1.9-3.1,2.3
	c-3.6,2.6-7.1,6.9-7.8,10.1c-0.8,4.3,3,6.8,12.6,6.8C1052.6,495.4,1080.3,486.8,1086.1,480.7L1086.1,480.7z M942.4,501.5
	c4.3,0.2,9.2,0.8,12.1,1.8c4.4,1.5,4.5,3.6-0.5,6c-10.6,5.1-26.5,4.3-26.5-1.4C927.5,503.3,933.9,501.1,942.4,501.5L942.4,501.5z
	 M942.2,502.5c-7.3-0.3-12.7,1.5-12.7,5.5c0,4.6,13.5,5.3,23,0.6c4.2-2,4.1-3.4,0.8-4.5C950.7,503.2,946.2,502.6,942.2,502.5
	L942.2,502.5z M1003.3,276.5c9.6,2.4,35.6,8.2,40,9.4c5.5,1.4,10.5,3.3,14.5,5.6c2.8,1.6,5.4,3.4,7.7,5.2c5,3.8,0.1,7.7-12.8,11.6
	c-10.3,3.2-25.1,6.3-45.3,9.8c-10,1.7-40.5,6.7-43.5,7.2c-13.6,2.3-30.6,0.1-51.9-5.9c-8.1-2.3-16.5-5-26.7-8.5
	c-4.6-1.6-19.6-7-22.1-7.9c-5.7-2.1-11.6-4-17.8-5.7c-9.9-2.6-9.2-6.6,0.4-12.1c6.7-3.9,8.6-4.7,37.3-16.3
	c6.2-2.5,12.4-5.1,18.3-7.7c3.4-1.5,6.6-3.1,9.7-4.7c10.5-5.4,20.2-6.5,30.9-3.9c4.6,1.1,9.3,2.9,15.3,5.5
	c3.1,1.4,14.3,6.7,16.5,7.7C984.7,270.9,993.5,274.2,1003.3,276.5L1003.3,276.5z M1002.3,277.4c-10-2.5-18.9-5.8-29.8-10.8
	c-2.2-1-13.4-6.3-16.4-7.7c-5.8-2.6-10.4-4.3-14.9-5.4c-9.8-2.4-18.6-1.4-28.5,3.7c-3.2,1.6-6.4,3.2-9.8,4.7
	c-5.1,2.3-10.6,4.6-18.4,7.8c-28.6,11.6-30.5,12.4-37.1,16.2c-8.8,5.1-9.5,8.4-0.9,10.6c4.6,1.2,10.1,3,18,5.8
	c2.5,0.9,17.5,6.2,22.1,7.9c8.5,3,17.4,5.9,26.5,8.5c20.8,5.8,37.3,8,50.1,5.8c3.1-0.5,33.6-5.5,43.5-7.2c20-3.5,34.8-6.6,44.9-9.7
	c12-3.7,16.3-7.1,12.2-10.3c-2.3-1.8-4.8-3.5-7.6-5.1c-3.9-2.2-8.7-4.1-14-5.4C1038,285.7,1012,279.8,1002.3,277.4L1002.3,277.4z
	 M922.2,285.5c6.4-0.4,11.8-0.1,17.3,0.7c4.4,0.7,5.7,0.9,17.8,3.8c9.8,2.3,17.3,3.9,27.2,5.6c17.3,3,23.4,6.2,18.2,9.8
	c-4.3,2.9-16.6,5.9-36.8,9.2c-17.4,2.8-31.9,2.4-44.2-0.9c-9.6-2.5-17.2-6.5-25.1-12.3c-6-4.4-5.6-8.2,0.3-11.1
	C902.1,287.7,911.2,286.1,922.2,285.5L922.2,285.5z M922.4,286.5c-10.6,0.6-19.3,2.2-24,4.4c-5.2,2.5-5.5,5.8,0,9.8
	c7.7,5.7,15.1,9.5,24.3,12c11.8,3.1,25.6,3.6,42.5,0.8c19.8-3.2,31.9-6.1,35.8-8.8c4-2.8-1-5.5-17.2-8.2c-10-1.7-17.5-3.3-27.4-5.6
	c-12-2.8-13.2-3.1-17.5-3.7C933.6,286.3,928,286.1,922.4,286.5L922.4,286.5z M417.8,500.4c0,4.8-3,7.6-9.1,8.9
	c-4.7,1-9.4,1.2-22.3,1.2l-3.7,0c-19,0-35.1-7.6-35.1-15.5c0-7.6,21.9-10.5,40.7-5.4c5.7,1.5,8.7,1.9,17.7,2.8
	C415.2,493.1,417.8,494.6,417.8,500.4L417.8,500.4z M415.8,500.4c0-5.3-1.9-6.3-10.1-7.1c-9.2-0.8-12.3-1.2-18.3-2.9
	c-17.7-4.8-37.7-2.1-37.7,4.6c0,7.3,15.2,14.5,33,14.5h3.7c12.5,0,17-0.1,21.4-1.1C413.2,507.2,415.8,504.8,415.8,500.4L415.8,500.4
	z M484.5,382.5c7.7-1.3,18-2.7,33.2-4.5c5.3-0.6,34.1-4,42.4-5c40.4-4.9,65.1-8.9,78.9-13.4c30.8-10,76.1-33.9,90.4-47.8
	c4.6-4.5,9.6-6.4,15.8-6.2c2.6,0.1,5.4,0.5,8.9,1.2c2.5,0.5,4.9,1.1,7.3,1.7l2.6,0.6c9.9,2.3,17.3,3.4,26.1,3.4
	c14.9,0,20.7,3.1,17.2,7.9c-2.9,4.1-12.2,8.9-22.9,12c-17.1,5-24.2,17.3-24.2,33.6c0,3.6-2.8,6.3-8.2,8.4c-4.1,1.6-8.7,2.6-17.5,4.2
	l-2.1,0.4c-10,1.8-14.4,2.8-17.9,4.5c-10.5,5.1-25.9,7.1-42,7.1c-2.8,0-5.1,0.9-8.2,3.1c-0.6,0.4-2.7,2-3,2.2
	c-5.5,3.9-10.2,5.7-17.6,5.7c-16.2,0-22.2,0.9-44.9,6.9c-10.7,2.8-18.2,3.6-30.2,3.7c-0.5,0-1,0-1.9,0c-9.9,0.1-14.7,0.3-21.7,1.3
	c-6.3,1-12.4,2.2-18.3,3.6c-4.5,1-21.7,5-21.1,4.9c-16.1,3.7-27.5,6-39,7.6c-25.6,3.5-38.3,2.2-56.6-4.1c-5.3-1.9-5.6-4.4-1.7-7.6
	c3-2.5,8-5.1,16.7-9l3.7-1.6c8.1-3.6,9.2-4.1,12.2-5.5c4.8-2.3,6.4-3.5,11.3-7.6c4-3.4,7-5.1,12.9-7.1
	C469.8,385.4,476.1,384,484.5,382.5L484.5,382.5z M485.2,383.5c-8.3,1.4-14.4,2.8-19,4.3c-5.7,1.9-8.5,3.5-12.3,6.7
	c-5,4.2-6.7,5.4-11.6,7.8c-3,1.4-4.1,2-12.3,5.6l-3.7,1.6c-8.5,3.8-13.5,6.4-16.3,8.8c-3.4,2.8-3.2,4.8,1.1,6.3
	c17.7,6.1,29.8,7.4,54.8,3.9c11.3-1.6,22.7-3.8,38.7-7.5c-0.6,0.1,16.6-3.9,21.1-4.9c6-1.4,12.2-2.6,18.6-3.6
	c7.2-1.1,12.2-1.3,22.3-1.4h1.9c11.8-0.1,18.9-0.8,29.3-3.6c23-6.1,29.3-7.1,45.9-7.1c6.6,0,10.7-1.6,15.9-5.3l3.1-2.2
	c3.5-2.4,6.2-3.5,9.9-3.5c15.6,0,30.5-2,40.5-6.9c3.8-1.8,8.3-2.9,18.7-4.7l2.1-0.4c17.7-3.1,24.3-5.7,24.3-11.6
	c0-16.6,7.3-29.2,25.3-34.4c10.3-3,19.3-7.7,22-11.5c2.9-4.1-1.7-6.6-15.3-6.6c-9.2,0-16.9-1.1-27-3.5c-15.5-3.7-14-3.3-18-3.4
	c-5.3-0.1-9.6,1.5-13.9,5.7c-14.5,14.1-60,38.1-91.1,48.2c-14.1,4.5-38.9,8.5-79.5,13.5c-8.3,1-37.1,4.4-42.4,5
	C503,380.8,492.8,382.2,485.2,383.5L485.2,383.5z M520,387.5c4.3,0,8.3-0.2,15-0.7c10.8-0.8,13.7-0.9,17.5-0.5
	c5.2,0.6,7.8,2.4,7.8,5.7c0,4-4.7,7.3-13.7,10.1c-6.7,2.1-13.5,3.5-29.2,6.4l-0.6,0.1l-4.7,0.9c-6.3,1.2-10.9,2.5-19.3,5.4l-1.7,0.6
	c-16.9,5.9-27.5,8-47.6,8c-10.3,0-14.2-2-11.9-5.6c1.8-2.8,7.4-6.6,16.1-11.1c2.6-1.4,5.4-2.8,8.6-4.3c6.5-3.1,23.2-10.6,23.6-10.8
	c0.9-0.5,1.9-0.9,2.9-1.3c7-2.7,11.9-3.1,29.3-2.9C515.6,387.5,517.6,387.5,520,387.5L520,387.5z M520,388.5c-2.4,0-4.4,0-7.8,0
	c-16.9-0.1-21.5,0.2-27.9,2.7c-0.9,0.4-1.8,0.7-2.7,1.2c-0.4,0.2-17.1,7.7-23.6,10.8c-2.9,1.4-5.7,2.8-8.5,4.3
	c-8.5,4.5-13.9,8.1-15.6,10.8c-1.9,2.9,0.9,4.3,9.9,4.3c19.5,0,29.8-2.1,46.3-7.8l1.7-0.6c8.5-3,13.2-4.4,19.7-5.6l4.7-0.9l0.5-0.1
	c15.6-2.8,22.3-4.2,28.8-6.3c8.4-2.6,12.7-5.6,12.7-9.3c0-2.9-2-4.3-6.2-4.7c-3.4-0.4-6.3-0.2-16.7,0.5
	C528.4,388.3,524.4,388.5,520,388.5L520,388.5z M752,343.2c-3.9,5.4-4.1,6.8-2,12.8c2.4,7.1-2.8,16.6-11.3,16.6c-1,0-2.1,0-3.1,0.1
	l-1.3,0c-5.9,0.2-10,0.2-14.3-0.2c-13.5-1.1-21.5-5.1-21.5-13.4c0-13.9,4.4-19.7,16.8-26.3c2-1.2,3.7-2.4,5.2-3.8
	c1.2-1,5.7-5.1,5.6-5c9.2-8.1,15.9-11.5,25.3-10.4c2.4,0.3,4.5,0.8,7.4,1.6l2.9,0.8c2,0.6,4.2,1.2,6.4,1.6c1.4,0.3,3.7,0.3,9.8,0.3
	l1.5,0c6.5,0,9.9,0.1,12,0.7c3.3,0.9,2.5,2.6-2.4,4.9c-2.6,1.3-5.3,2.5-8,3.8C759.1,337.2,754.6,339.5,752,343.2L752,343.2z
	 M750.1,342.8c2.8-3.9,7.1-6.2,29.4-16.5c3.2-1.5,5.6-2.6,7.9-3.7c4-2,4.5-2.9,2.8-3.3c-1.7-0.5-4.9-0.6-11-0.5l-1.5,0
	c-6.5,0.1-8.8,0-10.6-0.3c-2.2-0.4-4.1-0.9-6.7-1.7l-2.8-0.8c-2.1-0.7-4.4-1.1-6.8-1.5c-8-1-14.3,2.2-23,9.9c0.1-0.1-4.4,4-5.6,5
	c-1.5,1.4-3.4,2.7-5.5,3.9c-12,6.5-16.2,12-16.2,25.7c0,7.8,7.2,11.5,19.7,12.5c4.1,0.3,8.1,0.3,13.8,0.2c0.8,0,1.7,0,2.5-0.1
	c0.9,0,1.5,0,2,0c6.6,0,11.6-8.9,9.3-15.4C745.9,349.9,746.1,348.4,750.1,342.8L750.1,342.8z M731,355.3c1.2,0.5,5.2,1.9,5.3,1.9
	c4,1.6,4.2,3.3,0,6.4c-7.7,5.6-18.2,3.1-18.2-4.5c0-3.8,1.1-5.7,4.3-6C724.7,352.7,726.4,353.3,731,355.3L731,355.3z M728.2,356.7
	c-3.1-1.4-4.6-1.9-5-1.8c-0.4,0-1,1.2-1,4.1c0,5.9,5.5,7.2,10.7,3.5c3.1-2.3,3-2.8,0.8-3.7C733.7,358.8,729.6,357.4,728.2,356.7
	L728.2,356.7z M1188.1,226.6c4.5-1.1,7.6-1.7,12.1-2.4l0.6-0.1c6.3-0.9,12.3-2.1,18.1-3.6c8.6-2.1,13.1-1.9,14.4,0.8
	c0.9,2,0.4,4-2.6,12.7c-4.7,13.6-18.9,26.1-43.7,36.3c-8.9,3.6-15.3,4.4-20.1,2.4c-3.9-1.6-6.4-4.6-9.5-10.5c-0.6-1.1-3-5.8-3.5-7
	c-1.6-3.1-3.5-6.2-5.6-9.2c-5-6.8-6.3-10.8-4.3-12.9c1.6-1.8,4.3-2.2,11.6-2.4c3.1-0.1,4.3-0.1,6.1-0.3l4-0.3
	c1.5-0.1,2.5-0.2,3.5-0.3c2.3-0.2,4-0.4,5.6-0.6C1178.2,228.8,1181.8,228.1,1188.1,226.6L1188.1,226.6z M1189,227.5
	c-6.4,1.5-10.1,2.3-13.7,2.8c-1.7,0.2-3.5,0.4-5.8,0.6c-2.6,0.2-5.2,0.4-7.9,0.6c-1.6,0.1-2.9,0.2-6,0.3c-6.5,0.2-8.6,0.5-9.8,1.9
	c-1.6,1.8-0.4,5.6,4.4,12.2c2.2,3.1,4,6.2,5.7,9.3l3.5,7c3,5.7,5.4,8.6,8.8,10c3.9,1.6,9.3,0.9,17.5-2.4c24.4-10,38.4-22.3,43-35.7
	c2.9-8.4,3.4-10.5,2.6-12.3c-0.8-1.9-3.8-2-11.4-0.2c-5.9,1.5-12.1,2.7-18.4,3.6l-0.6,0.1C1196.8,225.7,1192.8,226.5,1189,227.5z
	 M1179.8,234c2.8-0.3,5.2-0.8,8-1.4c0.7-0.2,5.3-1.3,6.9-1.7c3.1-0.7,6.1-1.3,9.7-1.9c5.6-0.9,9.6-0.8,12.1,0.4
	c2,0.9,2.8,2.3,2.9,4.2c0,0.4,0,0.7,0,1.4c0,5.6-9.6,16.9-23.4,22.8c-9,3.8-15.1,4.7-20.5,2.5c-4.3-1.7-7.2-4.6-13.8-12.9
	c-3.8-4.8-4.2-8.1-1.4-10.2c2.3-1.7,6-2.4,12-2.7l2.6-0.1C1177.5,234.2,1178.6,234.1,1179.8,234L1179.8,234z M1175.4,236.3l-2.5,0.1
	c-5,0.3-7.6,0.8-9.1,1.8c-1.9,1.4-1.6,4.1,1.8,8.4c6.2,7.8,9.1,10.7,12.5,12.1c3.4,1.3,7.5,0.8,15.1-2.5c12.9-5.5,22-16.2,22-21.2
	c0-0.6,0-0.9,0-1.3c-0.1-1.4-0.6-2.3-1.6-2.8c-1.2-0.6-3.7-0.6-8,0c-3.1,0.5-6.2,1.1-9.2,1.8c-1.5,0.3-6,1.5-6.9,1.7
	c-2.8,0.7-5.8,1.2-8.9,1.6C1179.3,236.1,1178.1,236.2,1175.4,236.3L1175.4,236.3z M705.5,147.4c-3.3,4.3-7.3,7.2-14.7,11.4l-5.4,3
	c-1.9,1-3.7,2.1-5.4,3.2c-3.7,2.3-6.9,4.9-9.7,7.5c-5.9,5.7-14.7,10.2-26.5,13.9c-8.8,2.8-17,4.6-32.3,7.6
	c-22.7,4.4-33.9,1.3-56.2-16.4c-5.9-4.7-18.2-8.6-37.1-12.7c-6.2-1.3-26.6-5.2-29.8-5.9c-10.2-2.2-14.5-3.7-13.2-5.9
	c1.4-2.3,10.9-4.1,31.9-6.1c34.3-3.3,55.6-3.8,82.4-3c16.3,0.5,20,0.5,26.3-0.3c4.1-0.5,8.1-1.3,12.4-2.6l5.8-1.7
	c20.3-6.1,26.7-8,35.7-9.9c12.4-2.7,21.8-3.3,28.8-1.4C713.3,132.2,714.3,135.8,705.5,147.4L705.5,147.4z M701.7,146.7
	c8.2-10.7,7.4-13.3-5.3-16.8c-5.5-1.5-13.7-1-25,1.5c-8.7,1.9-15.1,3.7-35.2,9.8l-5.8,1.7c-4.2,1.3-8.8,2.2-13.6,2.8
	c-6.9,0.8-10.8,0.8-27.5,0.3c-26.5-0.8-47.4-0.3-81.3,3c-10.1,1-17.4,1.9-22.3,2.8c-4.2,0.8-6.3,1.4-6.5,1.9
	c-0.3,0.6,3.1,1.8,10.9,3.5c3.1,0.7,23.5,4.6,29.8,5.9c19.6,4.2,32.5,8.3,38.9,13.4c21.4,16.9,30.7,19.6,51.1,15.6
	c15.1-2.9,23.1-4.8,31.6-7.4c11.2-3.5,19.5-7.8,25.1-13.1c3-2.9,6.2-5.4,10-7.8c1.8-1.1,3.7-2.2,5.6-3.3l5.4-3
	C694.8,153.4,698.6,150.7,701.7,146.7L701.7,146.7z M688,146.3c-16.4,12.8-38.2,21.8-68.7,25.2c-16.1,1.8-25.7-0.8-27.1-5.9
	c-1.1-4.4,4.7-9.1,12.4-9.1c6.2,0,11.6-1.7,31.7-9.2c3-1.1,5.3-2,7.6-2.7c9.1-3.2,16-5.2,22.3-6.1c11.5-1.7,19.3-2.1,23.4-1.2
	C694.7,138.4,694.2,141.4,688,146.3L688,146.3z M686.2,145.7c5.6-4.4,6.1-6.7,2.5-7.5c-3.5-0.8-11-0.3-22,1.3
	c-6,0.9-12.8,2.8-21.7,5.9c-2.2,0.8-4.5,1.6-7.5,2.7c-20.8,7.7-26,9.4-33,9.4c-6.2,0-11.3,4-10.3,7.9c1.2,4.5,9.5,6.8,24.5,5.1
	C648.7,167.1,670.1,158.3,686.2,145.7L686.2,145.7z M951.5,33.5c28.6,5,42.8,5,65.2,0c6.2-1.4,11.3-2.9,22.7-6.8
	c11.5-3.9,16.6-5.5,23-6.9c8.5-1.9,16.1-2.4,23.2-1.3c8.1,1.3,12.8,12.3,14,28.5c1,14.2-1.1,28.9-5.1,34.2
	c-3.8,4.9-12.1,8.2-23.7,10c-8.7,1.3-17.7,1.9-26.7,1.8c-11.9,0-18.6,2.4-25.2,7.6c-0.8,0.6-3.2,2.6-3.5,2.9
	c-3.6,2.9-6.3,4.3-10.2,4.9c-1.9,0.3-4.3,0.8-8,1.7l-5,1.2c-2.1,0.5-3.9,0.9-5.6,1.3c-13.3,3.1-24.2,4.7-35.4,4.7
	c-11.8,0-20.7,2.1-28.9,5.9c-2.4,1.1-8.7,4.5-9.6,4.9c-5.2,2.4-12.2,4.2-22.4,6.1c-2.9,0.5-12.3,2.1-12.9,2.2l-4.3,0.8
	c-1.8,0.4-3.7,0.6-5.6,0.8c-11.5,1.1-23-0.5-37.1-4.4c-2.6-0.7-10.6-3.1-11.9-3.4c-4.2-1.2-8.5-1.5-18.8-1.9l-3.6-0.1
	c-9.9-0.4-15.8-1.1-21.1-3c-10.3-3.6-14-7.8-11.7-12.3c2.7-5.4,13.4-11,30.6-17.3c4.4-1.6,8.9-3.1,13.4-4.6
	c-0.7,0.2,8.9-2.9,10.9-3.6c5.6-1.9,9.9-3.9,26.3-12l2.2-1.1c7.2-3.6,12.2-5.9,16.8-7.8c6-2.5,9.7-6,15.5-13l1.3-1.6
	c5.6-6.9,8.8-10,14.2-12.3c2.9-1.3,13.8-6.5,16.4-7.5C919.4,29.1,927.7,29.4,951.5,33.5L951.5,33.5z M950.8,34.5
	c-23.2-4-31-4.3-38.4-1.5c-2.5,0.9-13.2,6.1-16.3,7.4c-5,2.2-8.2,5.2-13.6,12l-1.3,1.6c-5.8,7.3-9.7,10.8-16,13.4
	c-6.6,2.8-12.9,5.8-18.9,8.9c-16.5,8.2-20.8,10.2-26.6,12.2c-2,0.7-11.7,3.8-11,3.6c-5.2,1.7-9.3,3.1-13.3,4.6
	c-16.9,6.1-27.3,11.6-29.9,16.7c-2.1,4.2,1.2,7.9,10.9,11.3c4.9,1.7,10.5,2.4,20.1,2.8l3.6,0.1c10.6,0.4,15,0.8,19.6,2
	c1.3,0.4,9.3,2.7,11.9,3.4c13.7,3.8,24.8,5.4,35.7,4.3c1.8-0.2,3.5-0.4,5.2-0.8c1.4-0.3,2.9-0.5,4.3-0.8c0.6-0.1,10-1.7,12.9-2.2
	c9.9-1.8,16.7-3.6,21.7-5.9c0.8-0.4,7.1-3.8,9.6-4.9c8.6-4,18-6.2,30.4-6.2c10.8,0,21.5-1.6,34.5-4.6c1.7-0.4,3.4-0.8,5.5-1.3
	c0.2-0.1,4-1,5-1.2c3.8-0.9,6.2-1.5,8.3-1.8c3.3-0.5,5.7-1.8,9.1-4.5l3.5-2.9c7-5.5,14.2-8.1,27-8.1c9.2,0,18-0.5,26.1-1.8
	c11.1-1.8,19-4.8,22.5-9.4c3.9-5.1,6-19.8,4.9-33.8c-1.2-15.5-5.8-26.5-12.5-27.5c-6.6-1-13.6-0.5-21.7,1.2
	c-6.2,1.4-11.3,2.9-22.7,6.8c-11.5,3.9-16.6,5.5-23,6.9C994.7,39.5,980,39.5,950.8,34.5L950.8,34.5z M980.1,55
	c11.1,0,15.6-0.2,20.1-1c2.6-0.4,20.5-4.8,30.7-7c3.9-0.8,7.3-2.4,13.6-6c5.3-3,6.6-3.8,9.1-4.8c7.6-3.3,14.6-3.3,21.1,1.2
	c12.9,8.9,11.6,15.9,0.1,27c-1.9,1.8-3.6,3.6-5.2,5.5c-0.7,0.8-2.1,2.7-2.2,2.9c-0.4,0.4-0.7,0.8-1.1,1.2c-1.3,1.1-3.2,2.2-8.4,4.7
	c-5,2.4-10.6,3.3-24.1,4.3c-3.7,0.3-4.5,0.4-6.2,0.5c-12.4,1.1-19.8,2.7-25.3,6.1c-7.4,4.6-16.3,7.5-30.9,10.7
	c-1.1,0.2-2.3,0.5-3.7,0.8l-3.7,0.8c-5.5,1.1-10.8,2.4-15.9,3.9c-5.3,1.6-9.9,2.3-19.4,3.5c-17.7,2.1-25.3,3.8-35.8,9.4
	c-10.6,5.6-21,7.6-34.3,6.7c-11.1-0.8-21.9-3-48.6-9.5c-13-3.2-13.3-7.8-3.1-13.6c7-3.9,7.3-4.1,40-16.4
	c16.8-6.3,26.8-10.6,34.3-14.9c5.2-3,8.7-5.7,10.2-8.3c11.3-18.3,25.8-22,47-15.6c4,1.2,13.6,4.5,14.8,4.9
	C960.2,54.2,966.7,55,980.1,55z M980.1,57c-14.1,0-21.4-0.9-29.1-3.3c-1.3-0.4-10.9-3.7-14.8-4.9c-18.7-5.7-30.2-2.7-40.9,14.5
	c-1.8,2.9-5.5,5.8-11,9c-7.8,4.4-18,8.8-35,15.2c-32.3,12.2-32.7,12.4-39.4,16.2c-8.6,4.9-8.4,8,1.8,10.5
	c26.2,6.3,36.9,8.5,47.3,9.3c11.9,0.8,21-0.9,30.7-6.1c11.2-6,19.5-7.8,37.9-10c9.1-1.1,13.4-1.8,18.2-3.2c5.3-1.5,10.7-2.9,16.4-4
	l3.7-0.8l3.7-0.8c14.1-3.1,22.5-5.9,29.4-10.1c6.2-3.9,14.4-5.6,27.8-6.8c1.7-0.2,2.5-0.2,6.3-0.5c12.6-1,17.7-1.8,21.8-3.8
	c4.9-2.4,6.6-3.3,7.7-4.3c0.3-0.3,0.6-0.6,0.9-0.9c0.1-0.2,1.5-2.1,2.2-2.9c1.3-1.6,3-3.4,5.3-5.6c10.8-10.5,12-16.8,0.1-25
	c-5-3.4-9-3.5-14.9-0.9c-2.3,1-3.6,1.7-8.7,4.7c-6.7,3.8-10.4,5.6-15.1,6.6c-9.9,2.1-28.1,6.5-31,7C996.4,56.8,991.6,57,980.1,57z
	 M953.9,65.6c11.3,3.9,21.3,3.7,37.6,0.9c11.1-1.9,12.2-2.1,15.9-2.1c5.2,0,8.7,1.4,10.8,4.5c3.4,5-4.8,8.5-25.4,12.7
	c-5.6,1.1-33.5,6.2-41.3,7.7c-16.2,3.2-28.7,6.4-38.9,10.2c-26.9,9.8-37.9,11.9-48.9,9.7c-2.6-0.6-5.1-1.2-7.5-2l-4.1-1.3
	c-1.5-0.5-3.1-0.9-4.6-1.4c-6.9-2-5.8-4.3,1.8-7.3c2.8-1.1,22-7.6,27.9-9.9c14.6-5.7,24.6-11.5,29.7-18.3c6.3-8.5,10.1-12.1,14-13.4
	c3.6-1.2,6.9-0.5,12.8,1.9c1.3,0.6,7,3.1,8.5,3.7C946.1,62.7,949.8,64.2,953.9,65.6L953.9,65.6z M952.6,66.4
	c-4.1-1.4-7.8-2.9-11.8-4.6c-1.5-0.6-7.2-3.2-8.5-3.7c-5.2-2.2-7.7-2.7-10.3-1.8c-3.4,1.1-7.1,4.7-13.2,12.9
	c-5.3,7.1-15.5,13-30.4,18.8c-6,2.3-25.2,8.8-27.9,9.9c-6.6,2.7-7.3,4.2-2,5.7l4.7,1.4l4.1,1.3c3,0.9,5.1,1.5,7.2,1.9
	c10.1,2.1,20.6,0.1,46.9-9.6c10.4-3.8,23-7,39.4-10.3c7.8-1.6,35.7-6.6,41.3-7.7c19.6-4,27.1-7.2,24.2-11.4
	c-1.9-2.7-4.6-3.8-8.9-3.8c-3.3,0-4.4,0.2-15.2,2.1C975.3,70.4,964.7,70.6,952.6,66.4L952.6,66.4z"/>
</svg>
